<svg xmlns="http://www.w3.org/2000/svg" xmlns:xlink="http://www.w3.org/1999/xlink" preserveAspectRatio="xMidYMid" width="1058" height="1167" viewBox="0 0 1058 1167">
  <defs>
    <style>
      .cls-1 {
        fill: #d8efda;
      }

      .cls-2 {
        fill: #fff;
      }

      .cls-3 {
        fill: #efd8da;
      }

      .cls-4, .cls-5 {
        fill: #005c7f;
      }

      .cls-4 {
        fill-rule: evenodd;
      }
    </style>
  </defs>
  <circle cx="529.5" cy="600.5" r="431.5" class="cls-1"/>
  <circle cx="509.5" cy="582.5" r="220.5" class="cls-2"/>
  <circle cx="509.5" cy="582.5" r="192.5" class="cls-3"/>
  <path d="M462.302,618.270 L454.299,626.587 L462.074,634.623 C464.404,637.031 464.360,640.891 461.976,643.244 C459.592,645.597 455.771,645.553 453.442,643.145 L445.883,635.332 L438.793,642.699 C436.485,645.098 432.699,645.142 430.337,642.798 C427.975,640.454 427.932,636.609 430.240,634.211 L437.499,626.667 L429.713,618.620 C427.384,616.212 427.428,612.353 429.812,610.000 C432.195,607.646 436.017,607.691 438.346,610.099 L445.916,617.922 L453.749,609.782 C456.057,607.383 459.843,607.339 462.205,609.683 C464.567,612.027 464.611,615.872 462.302,618.270 Z" class="cls-4"/>
  <path d="M508.656,594.022 L502.437,600.540 L508.479,606.839 C510.290,608.726 510.256,611.751 508.403,613.596 C506.551,615.440 503.581,615.405 501.771,613.518 L495.897,607.395 L490.387,613.169 C488.594,615.049 485.652,615.084 483.816,613.246 C481.981,611.409 481.947,608.396 483.741,606.516 L489.382,600.603 L483.332,594.296 C481.521,592.409 481.555,589.384 483.408,587.539 C485.260,585.695 488.230,585.730 490.040,587.617 L495.922,593.749 L502.010,587.369 C503.803,585.489 506.745,585.454 508.581,587.291 C510.416,589.129 510.450,592.142 508.656,594.022 Z" class="cls-4"/>
  <ellipse cx="505" cy="649.985" rx="13" ry="13.015" class="cls-5"/>
  <circle cx="535" cy="606.954" r="12" class="cls-5"/>
  <path d="M511.500,817.000 C381.437,817.000 276.000,711.605 276.000,581.594 C276.000,451.583 381.437,346.188 511.500,346.188 C641.563,346.188 747.000,451.583 747.000,581.594 C747.000,711.605 641.563,817.000 511.500,817.000 ZM511.500,364.563 C391.585,364.563 294.375,461.731 294.375,581.594 C294.375,701.457 391.585,798.625 511.500,798.625 C631.415,798.625 728.625,701.457 728.625,581.594 C728.625,461.731 631.415,364.563 511.500,364.563 Z" class="cls-4"/>
  <path d="M523.500,659.000 C515.039,659.000 506.871,657.762 499.142,655.495 L501.870,639.572 C508.687,641.769 515.952,642.969 523.500,642.969 C562.436,642.969 594.000,611.384 594.000,572.422 C594.000,537.731 568.970,508.910 536.000,503.003 L536.000,486.756 C577.847,492.821 610.000,528.857 610.000,572.422 C610.000,620.238 571.273,659.000 523.500,659.000 Z" class="cls-4"/>
  <path d="M336.500,807.000 L784.500,807.000 C789.747,807.000 794.000,811.253 794.000,816.500 C794.000,821.747 789.747,826.000 784.500,826.000 L336.500,826.000 C331.253,826.000 327.000,821.747 327.000,816.500 C327.000,811.253 331.253,807.000 336.500,807.000 Z" class="cls-4"/>
  <path d="M504.081,392.906 C501.706,396.860 496.579,398.114 492.630,395.708 L448.932,369.086 C444.983,366.680 443.707,361.525 446.082,357.572 C446.528,356.829 447.095,356.215 447.709,355.670 L479.851,317.017 C482.809,313.460 488.097,312.990 491.661,315.968 C495.226,318.946 495.717,324.244 492.759,327.801 L466.029,359.946 L501.231,381.392 C505.180,383.798 506.456,388.953 504.081,392.906 Z" class="cls-4"/>
  <path d="M566.370,483.263 L539.530,494.105 L553.763,518.784 C555.360,521.553 554.426,525.122 551.678,526.755 C548.930,528.389 545.408,527.469 543.811,524.700 L526.143,494.064 C524.546,491.295 525.479,487.726 528.228,486.093 C528.744,485.786 529.290,485.597 529.843,485.466 L562.117,472.430 C565.087,471.230 568.447,472.683 569.622,475.675 C570.796,478.666 569.340,482.064 566.370,483.263 Z" class="cls-4"/>
  <path d="M810.728,822.972 L772.051,856.143 C768.556,859.141 763.326,858.705 760.371,855.169 C757.415,851.633 757.853,846.336 761.349,843.338 L792.505,816.617 L761.196,789.031 C757.731,785.978 757.377,780.664 760.404,777.161 C763.432,773.658 768.695,773.293 772.160,776.346 L809.808,809.516 C810.497,809.960 811.150,810.477 811.705,811.142 C814.661,814.677 814.223,819.974 810.728,822.972 Z" class="cls-4"/>
</svg>
