<svg xmlns="http://www.w3.org/2000/svg" xmlns:xlink="http://www.w3.org/1999/xlink" preserveAspectRatio="xMidYMid" width="1058" height="1167" viewBox="0 0 1058 1167">
  <defs>
    <style>
      .cls-1, .cls-2 {
        fill: #40e74c;
      }

      .cls-1 {
        fill-rule: evenodd;
      }
    </style>
  </defs>
  <path d="M173.500,303.000 L353.500,303.000 C361.508,303.000 368.000,309.492 368.000,317.500 C368.000,325.508 361.508,332.000 353.500,332.000 L173.500,332.000 C165.492,332.000 159.000,325.508 159.000,317.500 C159.000,309.492 165.492,303.000 173.500,303.000 Z" class="cls-1"/>
  <path d="M893.013,188.128 L800.345,297.991 L800.475,298.096 L772.736,332.005 L772.095,331.484 L771.784,331.852 L747.211,311.272 L699.007,272.116 L726.746,238.208 L766.313,270.347 L859.405,159.980 L893.013,188.128 Z" class="cls-1"/>
  <path d="M312.000,378.000 L575.000,378.000 C582.732,378.000 589.000,384.268 589.000,392.000 C589.000,399.732 582.732,406.000 575.000,406.000 L312.000,406.000 C304.268,406.000 298.000,399.732 298.000,392.000 C298.000,384.268 304.268,378.000 312.000,378.000 Z" class="cls-1"/>
  <path d="M525.000,674.000 L788.000,674.000 C795.732,674.000 802.000,680.268 802.000,688.000 C802.000,695.732 795.732,702.000 788.000,702.000 L525.000,702.000 C517.268,702.000 511.000,695.732 511.000,688.000 C511.000,680.268 517.268,674.000 525.000,674.000 Z" class="cls-1"/>
  <path d="M761.000,822.000 L914.000,822.000 C921.732,822.000 928.000,828.268 928.000,836.000 C928.000,843.732 921.732,850.000 914.000,850.000 L761.000,850.000 C753.268,850.000 747.000,843.732 747.000,836.000 C747.000,828.268 753.268,822.000 761.000,822.000 Z" class="cls-1"/>
  <rect x="338" y="452" width="503" height="28" rx="13" ry="13" class="cls-2"/>
  <rect x="444" y="526" width="345" height="28" rx="13" ry="13" class="cls-2"/>
  <rect x="305" y="600" width="623" height="28" rx="13" ry="13" class="cls-2"/>
  <rect x="249" y="748" width="623" height="28" rx="13" ry="13" class="cls-2"/>
</svg>
