<svg xmlns="http://www.w3.org/2000/svg" xmlns:xlink="http://www.w3.org/1999/xlink" preserveAspectRatio="xMidYMid" width="2356" height="1872" viewBox="0 0 2356 1872">
  <defs>
    <style>
      .cls-1, .cls-2 {
        fill: #d5e2e4;
      }

      .cls-1, .cls-10, .cls-11, .cls-13, .cls-16, .cls-17, .cls-18, .cls-19, .cls-20, .cls-3, .cls-4, .cls-5, .cls-8 {
        fill-rule: evenodd;
      }

      .cls-12, .cls-14, .cls-16, .cls-3, .cls-4, .cls-5, .cls-6, .cls-7, .cls-8, .cls-9 {
        stroke: #d5e2e4;
      }

      .cls-3 {
        stroke-width: 14px;
      }

      .cls-12, .cls-14, .cls-16, .cls-20, .cls-3, .cls-4, .cls-5, .cls-6, .cls-7, .cls-8, .cls-9 {
        fill: none;
      }

      .cls-12, .cls-4 {
        stroke-width: 3px;
      }

      .cls-5, .cls-6 {
        stroke-width: 10px;
      }

      .cls-7, .cls-8 {
        stroke-width: 12px;
      }

      .cls-9 {
        stroke-width: 4px;
      }

      .cls-10 {
        fill: #838ab6;
      }

      .cls-11 {
        fill: #efa4a7;
      }

      .cls-13 {
        fill: #fff;
        stroke: #36505d;
      }

      .cls-13, .cls-18, .cls-20 {
        stroke-width: 5px;
      }

      .cls-14, .cls-15, .cls-16 {
        stroke-width: 2px;
      }

      .cls-15 {
        fill: #545454;
        stroke: #545454;
      }

      .cls-17 {
        fill: #8ab5c9;
        opacity: 0.28;
      }

      .cls-18 {
        fill: #c6eafb;
      }

      .cls-18, .cls-20 {
        stroke: #12486d;
      }

      .cls-19 {
        fill: #33cd9e;
      }
    </style>
  </defs>
  <path d="M218.781,1176.000 L496.000,1176.000 C518.644,1176.000 537.000,1194.356 537.000,1217.000 C537.000,1239.644 518.644,1258.000 496.000,1258.000 L218.781,1258.000 C196.138,1258.000 177.781,1239.644 177.781,1217.000 C177.781,1194.356 196.138,1176.000 218.781,1176.000 Z" class="cls-1"/>
  <rect x="83" y="1176" width="76.25" height="76.5" rx="38.12" ry="38.12" class="cls-2"/>
  <path d="M1934.500,268.000 C1919.312,268.000 1907.000,255.688 1907.000,240.500 C1907.000,225.312 1919.312,213.000 1934.500,213.000 C1949.688,213.000 1962.000,225.312 1962.000,240.500 C1962.000,255.688 1949.688,268.000 1934.500,268.000 ZM1821.500,267.000 L1545.500,267.000 C1529.760,267.000 1517.000,254.240 1517.000,238.500 C1517.000,222.760 1529.760,210.000 1545.500,210.000 L1821.500,210.000 C1837.240,210.000 1850.000,222.760 1850.000,238.500 C1850.000,254.240 1837.240,267.000 1821.500,267.000 Z" class="cls-1"/>
  <path d="M1752.500,328.000 L2033.500,328.000 C2058.077,328.000 2078.000,347.923 2078.000,372.500 C2078.000,397.077 2058.077,417.000 2033.500,417.000 L1752.500,417.000 C1727.923,417.000 1708.000,397.077 1708.000,372.500 C1708.000,347.923 1727.923,328.000 1752.500,328.000 Z" class="cls-1"/>
  <path d="M2189.000,330.000 C2213.853,330.000 2234.000,350.147 2234.000,375.000 C2234.000,399.853 2213.853,420.000 2189.000,420.000 C2164.147,420.000 2144.000,399.853 2144.000,375.000 C2144.000,350.147 2164.147,330.000 2189.000,330.000 Z" class="cls-1"/>
  <path d="M1783.000,508.000 L1974.000,508.000 C1995.539,508.000 2013.000,525.461 2013.000,547.000 C2013.000,568.539 1995.539,586.000 1974.000,586.000 L1783.000,586.000 C1761.461,586.000 1744.000,568.539 1744.000,547.000 C1744.000,525.461 1761.461,508.000 1783.000,508.000 Z" class="cls-1"/>
  <path d="M2115.500,507.000 C2136.211,507.000 2153.000,523.789 2153.000,544.500 C2153.000,565.211 2136.211,582.000 2115.500,582.000 C2094.789,582.000 2078.000,565.211 2078.000,544.500 C2078.000,523.789 2094.789,507.000 2115.500,507.000 Z" class="cls-1"/>
  <path d="M1883.000,1236.000 L2126.000,1236.000 C2148.091,1236.000 2166.000,1253.909 2166.000,1276.000 C2166.000,1298.091 2148.091,1316.000 2126.000,1316.000 L1883.000,1316.000 C1860.908,1316.000 1843.000,1298.091 1843.000,1276.000 C1843.000,1253.909 1860.908,1236.000 1883.000,1236.000 Z" class="cls-1"/>
  <path d="M2250.500,1238.000 C2271.763,1238.000 2289.000,1255.237 2289.000,1276.500 C2289.000,1297.763 2271.763,1315.000 2250.500,1315.000 C2229.237,1315.000 2212.000,1297.763 2212.000,1276.500 C2212.000,1255.237 2229.237,1238.000 2250.500,1238.000 Z" class="cls-1"/>
  <path d="M1790.000,1373.000 L2150.000,1373.000 C2170.987,1373.000 2188.000,1390.013 2188.000,1411.000 C2188.000,1431.987 2170.987,1449.000 2150.000,1449.000 L1790.000,1449.000 C1769.013,1449.000 1752.000,1431.987 1752.000,1411.000 C1752.000,1390.013 1769.013,1373.000 1790.000,1373.000 Z" class="cls-1"/>
  <path d="M2293.000,1389.000 C2313.987,1389.000 2331.000,1406.013 2331.000,1427.000 L2331.000,1435.000 C2331.000,1455.987 2313.987,1473.000 2293.000,1473.000 C2272.013,1473.000 2255.000,1455.987 2255.000,1435.000 L2255.000,1427.000 C2255.000,1406.013 2272.013,1389.000 2293.000,1389.000 Z" class="cls-1"/>
  <path d="M1682.500,1480.000 L1961.500,1480.000 C1991.599,1480.000 2016.000,1504.400 2016.000,1534.500 C2016.000,1564.600 1991.599,1589.000 1961.500,1589.000 L1682.500,1589.000 C1652.400,1589.000 1628.000,1564.600 1628.000,1534.500 C1628.000,1504.400 1652.400,1480.000 1682.500,1480.000 Z" class="cls-1"/>
  <path d="M2189.000,1499.000 C2217.719,1499.000 2241.000,1522.281 2241.000,1551.000 C2241.000,1579.719 2217.719,1603.000 2189.000,1603.000 C2160.281,1603.000 2137.000,1579.719 2137.000,1551.000 C2137.000,1522.281 2160.281,1499.000 2189.000,1499.000 Z" class="cls-1"/>
  <path d="M360.500,1323.000 L569.500,1323.000 C588.001,1323.000 603.000,1337.998 603.000,1356.500 C603.000,1375.002 588.001,1390.000 569.500,1390.000 L360.500,1390.000 C341.998,1390.000 327.000,1375.002 327.000,1356.500 C327.000,1337.998 341.998,1323.000 360.500,1323.000 Z" class="cls-1"/>
  <path d="M234.500,1324.000 C252.449,1324.000 267.000,1338.551 267.000,1356.500 C267.000,1374.449 252.449,1389.000 234.500,1389.000 C216.551,1389.000 202.000,1374.449 202.000,1356.500 C202.000,1338.551 216.551,1324.000 234.500,1324.000 Z" class="cls-1"/>
  <path d="M225.000,1472.000 L643.000,1472.000 C668.405,1472.000 689.000,1492.595 689.000,1518.000 C689.000,1543.405 668.405,1564.000 643.000,1564.000 L225.000,1564.000 C199.595,1564.000 179.000,1543.405 179.000,1518.000 C179.000,1492.595 199.595,1472.000 225.000,1472.000 Z" class="cls-1"/>
  <path d="M71.500,1469.000 C96.629,1469.000 117.000,1489.371 117.000,1514.500 C117.000,1539.629 96.629,1560.000 71.500,1560.000 C46.371,1560.000 26.000,1539.629 26.000,1514.500 C26.000,1489.371 46.371,1469.000 71.500,1469.000 Z" class="cls-1"/>
  <path d="M471.000,315.000 L768.000,315.000 C791.748,315.000 811.000,334.252 811.000,358.000 C811.000,381.748 791.748,401.000 768.000,401.000 L471.000,401.000 C447.252,401.000 428.000,381.748 428.000,358.000 C428.000,334.252 447.252,315.000 471.000,315.000 Z" class="cls-1"/>
  <path d="M308.500,319.000 C331.420,319.000 350.000,337.580 350.000,360.500 C350.000,383.420 331.420,402.000 308.500,402.000 C285.580,402.000 267.000,383.420 267.000,360.500 C267.000,337.580 285.580,319.000 308.500,319.000 Z" class="cls-1"/>
  <path d="M633.500,556.000 L297.500,556.000 C269.610,556.000 247.000,533.390 247.000,505.500 C247.000,477.610 269.610,455.000 297.500,455.000 L633.500,455.000 C661.390,455.000 684.000,477.610 684.000,505.500 C684.000,533.390 661.390,556.000 633.500,556.000 ZM124.000,559.000 C94.729,559.000 71.000,535.271 71.000,506.000 C71.000,476.729 94.729,453.000 124.000,453.000 C153.271,453.000 177.000,476.729 177.000,506.000 C177.000,535.271 153.271,559.000 124.000,559.000 Z" class="cls-1"/>
  <path d="M1967.000,680.000 C1948.774,680.000 1934.000,694.775 1934.000,713.000 C1934.000,731.225 1948.774,746.000 1967.000,746.000 L2008.861,746.000 C2013.701,764.098 2017.953,782.437 2021.578,801.000 L1831.500,801.000 C1798.087,801.000 1771.000,828.087 1771.000,861.500 C1771.000,894.913 1798.087,922.000 1831.500,922.000 L2036.085,922.000 C2036.683,934.926 2037.000,947.926 2037.000,961.000 C2037.000,972.389 2036.761,983.722 2036.306,995.000 L1934.000,995.000 C1913.013,995.000 1896.000,1012.013 1896.000,1033.000 C1896.000,1053.987 1913.013,1071.000 1934.000,1071.000 L2029.759,1071.000 C1975.945,1477.397 1628.102,1791.000 1207.000,1791.000 C787.280,1791.000 440.334,1479.454 384.775,1075.000 L540.500,1075.000 C560.658,1075.000 577.000,1058.658 577.000,1038.500 C577.000,1018.342 560.658,1002.000 540.500,1002.000 L378.500,1002.000 C378.334,1002.000 378.170,1002.010 378.005,1002.012 C377.343,988.424 377.000,974.752 377.000,961.000 C377.000,944.549 377.493,928.214 378.438,912.000 L688.500,912.000 C707.554,912.000 723.000,896.554 723.000,877.500 C723.000,858.446 707.554,843.000 688.500,843.000 L385.350,843.000 C388.429,821.389 392.325,800.042 397.033,779.000 L614.500,779.000 C650.675,779.000 680.000,749.675 680.000,713.500 C680.000,677.325 650.675,648.000 614.500,648.000 L438.048,648.000 C561.610,344.751 859.341,131.000 1207.000,131.000 C1566.763,131.000 1873.053,359.898 1988.209,680.000 L1967.000,680.000 Z" class="cls-3"/>
  <path d="M694.000,58.000 L919.000,58.000 C926.180,58.000 932.000,63.820 932.000,71.000 C932.000,78.180 926.180,84.000 919.000,84.000 L694.000,84.000 C686.820,84.000 681.000,78.180 681.000,71.000 C681.000,63.820 686.820,58.000 694.000,58.000 Z" class="cls-1"/>
  <path d="M856.000,110.000 L988.000,110.000 C992.971,110.000 997.000,114.029 997.000,119.000 C997.000,123.971 992.971,128.000 988.000,128.000 L856.000,128.000 C851.029,128.000 847.000,123.971 847.000,119.000 C847.000,114.029 851.029,110.000 856.000,110.000 Z" class="cls-1"/>
  <path d="M1449.000,136.000 L1594.000,136.000 C1598.418,136.000 1602.000,139.582 1602.000,144.000 C1602.000,148.418 1598.418,152.000 1594.000,152.000 L1449.000,152.000 C1444.582,152.000 1441.000,148.418 1441.000,144.000 C1441.000,139.582 1444.582,136.000 1449.000,136.000 Z" class="cls-1"/>
  <path d="M1495.500,1684.000 L1868.500,1684.000 C1874.299,1684.000 1879.000,1688.701 1879.000,1694.500 C1879.000,1700.299 1874.299,1705.000 1868.500,1705.000 L1495.500,1705.000 C1489.701,1705.000 1485.000,1700.299 1485.000,1694.500 C1485.000,1688.701 1489.701,1684.000 1495.500,1684.000 Z" class="cls-4"/>
  <path d="M1614.000,1641.000 L1730.000,1641.000 C1736.627,1641.000 1742.000,1646.373 1742.000,1653.000 C1742.000,1659.627 1736.627,1665.000 1730.000,1665.000 L1614.000,1665.000 C1607.372,1665.000 1602.000,1659.627 1602.000,1653.000 C1602.000,1646.373 1607.372,1641.000 1614.000,1641.000 Z" class="cls-4"/>
  <path d="M656.500,1627.000 L899.500,1627.000 C908.613,1627.000 916.000,1634.387 916.000,1643.500 C916.000,1652.613 908.613,1660.000 899.500,1660.000 L656.500,1660.000 C647.387,1660.000 640.000,1652.613 640.000,1643.500 C640.000,1634.387 647.387,1627.000 656.500,1627.000 Z" class="cls-4"/>
  <path d="M827.000,1697.000 L933.000,1697.000 C940.732,1697.000 947.000,1703.268 947.000,1711.000 C947.000,1718.732 940.732,1725.000 933.000,1725.000 L827.000,1725.000 C819.268,1725.000 813.000,1718.732 813.000,1711.000 C813.000,1703.268 819.268,1697.000 827.000,1697.000 Z" class="cls-4"/>
  <path d="M1569.500,102.000 L1665.500,102.000 C1671.299,102.000 1676.000,106.701 1676.000,112.500 C1676.000,118.299 1671.299,123.000 1665.500,123.000 L1569.500,123.000 C1563.701,123.000 1559.000,118.299 1559.000,112.500 C1559.000,106.701 1563.701,102.000 1569.500,102.000 Z" class="cls-1"/>
  <path d="M843.003,1276.502 L637.996,1294.789 L724.718,1108.179 L843.003,1276.502 Z" class="cls-5"/>
  <rect x="1702" y="961" width="116" height="116" class="cls-6"/>
  <path d="M1754.000,1467.000 L1742.000,1467.000 L1733.000,1467.000 L1733.000,1453.000 L1742.000,1453.000 L1742.000,1442.000 L1756.000,1442.000 L1756.000,1467.000 L1754.000,1467.000 ZM1742.000,1412.000 L1756.000,1412.000 L1756.000,1430.000 L1742.000,1430.000 L1742.000,1412.000 ZM1742.000,1384.000 L1756.000,1384.000 L1756.000,1400.000 L1742.000,1400.000 L1742.000,1384.000 ZM1742.000,1354.000 L1756.000,1354.000 L1756.000,1372.000 L1742.000,1372.000 L1742.000,1354.000 ZM1742.000,1326.000 L1756.000,1326.000 L1756.000,1342.000 L1742.000,1342.000 L1742.000,1326.000 ZM1742.000,1296.000 L1756.000,1296.000 L1756.000,1314.000 L1742.000,1314.000 L1742.000,1296.000 ZM1742.000,1268.000 L1756.000,1268.000 L1756.000,1284.000 L1742.000,1284.000 L1742.000,1268.000 ZM1742.000,1238.000 L1756.000,1238.000 L1756.000,1256.000 L1742.000,1256.000 L1742.000,1238.000 ZM1742.000,1212.000 L1756.000,1212.000 L1756.000,1226.000 L1742.000,1226.000 L1742.000,1212.000 ZM1742.000,1182.000 L1756.000,1182.000 L1756.000,1200.000 L1742.000,1200.000 L1742.000,1182.000 ZM1742.000,1154.000 L1756.000,1154.000 L1756.000,1170.000 L1742.000,1170.000 L1742.000,1154.000 ZM1742.000,1124.000 L1756.000,1124.000 L1756.000,1142.000 L1742.000,1142.000 L1742.000,1124.000 ZM1703.000,1453.000 L1721.000,1453.000 L1721.000,1467.000 L1703.000,1467.000 L1703.000,1453.000 ZM1675.000,1453.000 L1691.000,1453.000 L1691.000,1467.000 L1675.000,1467.000 L1675.000,1453.000 ZM1645.000,1453.000 L1663.000,1453.000 L1663.000,1467.000 L1645.000,1467.000 L1645.000,1453.000 ZM1619.000,1453.000 L1633.000,1453.000 L1633.000,1467.000 L1619.000,1467.000 L1619.000,1453.000 ZM1589.000,1453.000 L1607.000,1453.000 L1607.000,1467.000 L1589.000,1467.000 L1589.000,1453.000 ZM1561.000,1453.000 L1577.000,1453.000 L1577.000,1467.000 L1561.000,1467.000 L1561.000,1453.000 ZM1531.000,1453.000 L1549.000,1453.000 L1549.000,1467.000 L1531.000,1467.000 L1531.000,1453.000 ZM1503.000,1453.000 L1519.000,1453.000 L1519.000,1467.000 L1503.000,1467.000 L1503.000,1453.000 ZM1473.000,1453.000 L1491.000,1453.000 L1491.000,1467.000 L1473.000,1467.000 L1473.000,1453.000 ZM1445.000,1453.000 L1461.000,1453.000 L1461.000,1467.000 L1445.000,1467.000 L1445.000,1453.000 ZM1415.000,1453.000 L1433.000,1453.000 L1433.000,1467.000 L1415.000,1467.000 L1415.000,1453.000 ZM1403.000,1467.000 L1402.000,1467.000 L1402.000,1453.000 L1403.000,1453.000 L1403.000,1467.000 Z" class="cls-1"/>
  <rect x="773" y="656" width="906" height="697" rx="50" ry="50" class="cls-7"/>
  <path d="M841.812,715.406 L1612.062,715.406 L1612.062,1296.125 L841.812,1296.125 L841.812,715.406 Z" class="cls-8"/>
  <rect x="976.281" y="807.656" width="473.529" height="70.157" class="cls-2"/>
  <rect x="977.563" y="912.563" width="100.407" height="22.093" class="cls-2"/>
  <rect x="977.563" y="963.094" width="219.717" height="22.156" class="cls-2"/>
  <path d="M1231.375,963.094 L1451.094,963.094 L1451.094,985.250 L1231.375,985.250 L1231.375,963.094 Z" class="cls-1"/>
  <path d="M977.562,1011.125 L1087.437,1011.125 L1087.437,1033.250 L977.562,1033.250 L977.562,1011.125 Z" class="cls-1"/>
  <path d="M1113.312,1011.125 L1242.719,1011.125 L1242.719,1033.250 L1113.312,1033.250 L1113.312,1011.125 Z" class="cls-1"/>
  <path d="M1266.719,1011.125 L1451.094,1011.125 L1451.094,1033.250 L1266.719,1033.250 L1266.719,1011.125 Z" class="cls-1"/>
  <rect x="1103.84" y="912.563" width="137.63" height="22.093" class="cls-2"/>
  <rect x="1266.72" y="912.563" width="137.62" height="22.093" class="cls-2"/>
  <rect x="1423.31" y="912.563" width="26.5" height="22.093" class="cls-2"/>
  <path d="M1129.994,717.655 L978.420,808.000 L824.429,721.846 L822.010,545.347 L973.583,455.002 L1127.575,541.156 L1129.994,717.655 Z" class="cls-5"/>
  <rect x="779" y="1421" width="554" height="90" rx="10" ry="10" class="cls-6"/>
  <path d="M1296.000,1505.000 C1293.791,1505.000 1292.000,1503.209 1292.000,1501.000 L1292.000,1484.000 C1292.000,1481.791 1293.791,1480.000 1296.000,1480.000 C1298.209,1480.000 1300.000,1481.791 1300.000,1484.000 L1300.000,1501.000 C1300.000,1503.209 1298.209,1505.000 1296.000,1505.000 ZM1276.000,1505.000 C1273.791,1505.000 1272.000,1503.209 1272.000,1501.000 L1272.000,1473.000 C1272.000,1470.791 1273.791,1469.000 1276.000,1469.000 C1278.209,1469.000 1280.000,1470.791 1280.000,1473.000 L1280.000,1501.000 C1280.000,1503.209 1278.209,1505.000 1276.000,1505.000 ZM1255.000,1505.000 C1252.791,1505.000 1251.000,1503.209 1251.000,1501.000 L1251.000,1484.000 C1251.000,1481.791 1252.791,1480.000 1255.000,1480.000 C1257.209,1480.000 1259.000,1481.791 1259.000,1484.000 L1259.000,1501.000 C1259.000,1503.209 1257.209,1505.000 1255.000,1505.000 ZM1235.000,1505.000 C1232.791,1505.000 1231.000,1503.209 1231.000,1501.000 L1231.000,1473.000 C1231.000,1470.791 1232.791,1469.000 1235.000,1469.000 C1237.209,1469.000 1239.000,1470.791 1239.000,1473.000 L1239.000,1501.000 C1239.000,1503.209 1237.209,1505.000 1235.000,1505.000 ZM1216.000,1505.000 C1213.791,1505.000 1212.000,1503.209 1212.000,1501.000 L1212.000,1484.000 C1212.000,1481.791 1213.791,1480.000 1216.000,1480.000 C1218.209,1480.000 1220.000,1481.791 1220.000,1484.000 L1220.000,1501.000 C1220.000,1503.209 1218.209,1505.000 1216.000,1505.000 ZM1196.000,1505.000 C1193.791,1505.000 1192.000,1503.209 1192.000,1501.000 L1192.000,1473.000 C1192.000,1470.791 1193.791,1469.000 1196.000,1469.000 C1198.209,1469.000 1200.000,1470.791 1200.000,1473.000 L1200.000,1501.000 C1200.000,1503.209 1198.209,1505.000 1196.000,1505.000 ZM1177.000,1505.000 C1174.791,1505.000 1173.000,1503.209 1173.000,1501.000 L1173.000,1484.000 C1173.000,1481.791 1174.791,1480.000 1177.000,1480.000 C1179.209,1480.000 1181.000,1481.791 1181.000,1484.000 L1181.000,1501.000 C1181.000,1503.209 1179.209,1505.000 1177.000,1505.000 ZM1157.000,1505.000 C1154.791,1505.000 1153.000,1503.209 1153.000,1501.000 L1153.000,1473.000 C1153.000,1470.791 1154.791,1469.000 1157.000,1469.000 C1159.209,1469.000 1161.000,1470.791 1161.000,1473.000 L1161.000,1501.000 C1161.000,1503.209 1159.209,1505.000 1157.000,1505.000 ZM1140.000,1505.000 C1137.791,1505.000 1136.000,1503.209 1136.000,1501.000 L1136.000,1484.000 C1136.000,1481.791 1137.791,1480.000 1140.000,1480.000 C1142.209,1480.000 1144.000,1481.791 1144.000,1484.000 L1144.000,1501.000 C1144.000,1503.209 1142.209,1505.000 1140.000,1505.000 ZM1120.000,1505.000 C1117.791,1505.000 1116.000,1503.209 1116.000,1501.000 L1116.000,1473.000 C1116.000,1470.791 1117.791,1469.000 1120.000,1469.000 C1122.209,1469.000 1124.000,1470.791 1124.000,1473.000 L1124.000,1501.000 C1124.000,1503.209 1122.209,1505.000 1120.000,1505.000 ZM1101.000,1505.000 C1098.791,1505.000 1097.000,1503.209 1097.000,1501.000 L1097.000,1484.000 C1097.000,1481.791 1098.791,1480.000 1101.000,1480.000 C1103.209,1480.000 1105.000,1481.791 1105.000,1484.000 L1105.000,1501.000 C1105.000,1503.209 1103.209,1505.000 1101.000,1505.000 ZM1081.000,1505.000 C1078.791,1505.000 1077.000,1503.209 1077.000,1501.000 L1077.000,1473.000 C1077.000,1470.791 1078.791,1469.000 1081.000,1469.000 C1083.209,1469.000 1085.000,1470.791 1085.000,1473.000 L1085.000,1501.000 C1085.000,1503.209 1083.209,1505.000 1081.000,1505.000 ZM1062.000,1505.000 C1059.791,1505.000 1058.000,1503.209 1058.000,1501.000 L1058.000,1484.000 C1058.000,1481.791 1059.791,1480.000 1062.000,1480.000 C1064.209,1480.000 1066.000,1481.791 1066.000,1484.000 L1066.000,1501.000 C1066.000,1503.209 1064.209,1505.000 1062.000,1505.000 ZM1042.000,1505.000 C1039.791,1505.000 1038.000,1503.209 1038.000,1501.000 L1038.000,1473.000 C1038.000,1470.791 1039.791,1469.000 1042.000,1469.000 C1044.209,1469.000 1046.000,1470.791 1046.000,1473.000 L1046.000,1501.000 C1046.000,1503.209 1044.209,1505.000 1042.000,1505.000 ZM1024.000,1505.000 C1021.791,1505.000 1020.000,1503.209 1020.000,1501.000 L1020.000,1484.000 C1020.000,1481.791 1021.791,1480.000 1024.000,1480.000 C1026.209,1480.000 1028.000,1481.791 1028.000,1484.000 L1028.000,1501.000 C1028.000,1503.209 1026.209,1505.000 1024.000,1505.000 ZM1004.000,1505.000 C1001.791,1505.000 1000.000,1503.209 1000.000,1501.000 L1000.000,1473.000 C1000.000,1470.791 1001.791,1469.000 1004.000,1469.000 C1006.209,1469.000 1008.000,1470.791 1008.000,1473.000 L1008.000,1501.000 C1008.000,1503.209 1006.209,1505.000 1004.000,1505.000 ZM985.000,1505.000 C982.791,1505.000 981.000,1503.209 981.000,1501.000 L981.000,1484.000 C981.000,1481.791 982.791,1480.000 985.000,1480.000 C987.209,1480.000 989.000,1481.791 989.000,1484.000 L989.000,1501.000 C989.000,1503.209 987.209,1505.000 985.000,1505.000 ZM965.000,1505.000 C962.791,1505.000 961.000,1503.209 961.000,1501.000 L961.000,1473.000 C961.000,1470.791 962.791,1469.000 965.000,1469.000 C967.209,1469.000 969.000,1470.791 969.000,1473.000 L969.000,1501.000 C969.000,1503.209 967.209,1505.000 965.000,1505.000 ZM946.000,1505.000 C943.791,1505.000 942.000,1503.209 942.000,1501.000 L942.000,1484.000 C942.000,1481.791 943.791,1480.000 946.000,1480.000 C948.209,1480.000 950.000,1481.791 950.000,1484.000 L950.000,1501.000 C950.000,1503.209 948.209,1505.000 946.000,1505.000 ZM926.000,1505.000 C923.791,1505.000 922.000,1503.209 922.000,1501.000 L922.000,1473.000 C922.000,1470.791 923.791,1469.000 926.000,1469.000 C928.209,1469.000 930.000,1470.791 930.000,1473.000 L930.000,1501.000 C930.000,1503.209 928.209,1505.000 926.000,1505.000 ZM907.000,1505.000 C904.791,1505.000 903.000,1503.209 903.000,1501.000 L903.000,1484.000 C903.000,1481.791 904.791,1480.000 907.000,1480.000 C909.209,1480.000 911.000,1481.791 911.000,1484.000 L911.000,1501.000 C911.000,1503.209 909.209,1505.000 907.000,1505.000 ZM887.000,1505.000 C884.791,1505.000 883.000,1503.209 883.000,1501.000 L883.000,1473.000 C883.000,1470.791 884.791,1469.000 887.000,1469.000 C889.209,1469.000 891.000,1470.791 891.000,1473.000 L891.000,1501.000 C891.000,1503.209 889.209,1505.000 887.000,1505.000 ZM868.000,1505.000 C865.791,1505.000 864.000,1503.209 864.000,1501.000 L864.000,1484.000 C864.000,1481.791 865.791,1480.000 868.000,1480.000 C870.209,1480.000 872.000,1481.791 872.000,1484.000 L872.000,1501.000 C872.000,1503.209 870.209,1505.000 868.000,1505.000 ZM848.000,1505.000 C845.791,1505.000 844.000,1503.209 844.000,1501.000 L844.000,1473.000 C844.000,1470.791 845.791,1469.000 848.000,1469.000 C850.209,1469.000 852.000,1470.791 852.000,1473.000 L852.000,1501.000 C852.000,1503.209 850.209,1505.000 848.000,1505.000 ZM829.000,1505.000 C826.791,1505.000 825.000,1503.209 825.000,1501.000 L825.000,1484.000 C825.000,1481.791 826.791,1480.000 829.000,1480.000 C831.209,1480.000 833.000,1481.791 833.000,1484.000 L833.000,1501.000 C833.000,1503.209 831.209,1505.000 829.000,1505.000 ZM809.000,1505.000 C806.791,1505.000 805.000,1503.209 805.000,1501.000 L805.000,1473.000 C805.000,1470.791 806.791,1469.000 809.000,1469.000 C811.209,1469.000 813.000,1470.791 813.000,1473.000 L813.000,1501.000 C813.000,1503.209 811.209,1505.000 809.000,1505.000 Z" class="cls-1"/>
  <circle cx="809.5" cy="1449.5" r="7.5" class="cls-9"/>
  <path d="M952.000,614.000 L913.000,631.000 L951.000,648.000 L952.000,663.000 L899.000,640.000 L899.000,623.000 L952.000,601.000 L952.000,614.000 Z" class="cls-1"/>
  <path d="M1001.000,614.000 L1040.000,631.000 L1002.000,648.000 L1001.000,663.000 L1054.000,640.000 L1054.000,623.000 L1001.000,601.000 L1001.000,614.000 Z" class="cls-1"/>
  <rect x="985" y="1077" width="135.91" height="138" rx="4" ry="4" class="cls-2"/>
  <rect x="1148.09" y="1077" width="135.91" height="138" rx="4" ry="4" class="cls-2"/>
  <rect x="1312.09" y="1077" width="135.91" height="138" rx="4" ry="4" class="cls-2"/>
  <path d="M1551.125,178.000 L1866.187,178.000 C1868.397,178.000 1870.187,179.791 1870.187,182.000 L1870.187,575.219 C1870.187,577.428 1868.397,579.219 1866.187,579.219 L1551.125,579.219 C1548.916,579.219 1547.125,577.428 1547.125,575.219 L1547.125,182.000 C1547.125,179.791 1548.916,178.000 1551.125,178.000 Z" class="cls-4"/>
  <path d="M1278.000,565.000 L1263.000,565.000 L1263.000,580.000 C1263.000,583.314 1260.314,586.000 1257.000,586.000 C1253.686,586.000 1251.000,583.314 1251.000,580.000 L1251.000,565.000 L1236.000,565.000 C1232.686,565.000 1230.000,562.314 1230.000,559.000 C1230.000,555.686 1232.686,553.000 1236.000,553.000 L1251.000,553.000 L1251.000,538.000 C1251.000,534.686 1253.686,532.000 1257.000,532.000 C1260.314,532.000 1263.000,534.686 1263.000,538.000 L1263.000,553.000 L1278.000,553.000 C1281.314,553.000 1284.000,555.686 1284.000,559.000 C1284.000,562.314 1281.314,565.000 1278.000,565.000 Z" class="cls-1"/>
  <path d="M1323.000,489.000 L1281.000,489.000 C1277.686,489.000 1275.000,486.314 1275.000,483.000 C1275.000,479.686 1277.686,477.000 1281.000,477.000 L1323.000,477.000 C1326.314,477.000 1329.000,479.686 1329.000,483.000 C1329.000,486.314 1326.314,489.000 1323.000,489.000 ZM1302.000,470.000 C1298.686,470.000 1296.000,467.314 1296.000,464.000 C1296.000,460.686 1298.686,458.000 1302.000,458.000 C1305.314,458.000 1308.000,460.686 1308.000,464.000 C1308.000,467.314 1305.314,470.000 1302.000,470.000 ZM1302.000,496.000 C1305.314,496.000 1308.000,498.686 1308.000,502.000 C1308.000,505.314 1305.314,508.000 1302.000,508.000 C1298.686,508.000 1296.000,505.314 1296.000,502.000 C1296.000,498.686 1298.686,496.000 1302.000,496.000 Z" class="cls-1"/>
  <path d="M1359.000,526.000 L1401.000,526.000 C1404.314,526.000 1407.000,528.686 1407.000,532.000 C1407.000,535.314 1404.314,538.000 1401.000,538.000 L1359.000,538.000 C1355.686,538.000 1353.000,535.314 1353.000,532.000 C1353.000,528.686 1355.686,526.000 1359.000,526.000 Z" class="cls-1"/>
  <path d="M603.500,523.000 L759.500,523.000 C765.851,523.000 771.000,528.149 771.000,534.500 C771.000,540.851 765.851,546.000 759.500,546.000 L603.500,546.000 C597.149,546.000 592.000,540.851 592.000,534.500 C592.000,528.149 597.149,523.000 603.500,523.000 Z" class="cls-10"/>
  <path d="M691.000,576.000 L784.000,576.000 C790.075,576.000 795.000,580.925 795.000,587.000 C795.000,593.075 790.075,598.000 784.000,598.000 L691.000,598.000 C684.925,598.000 680.000,593.075 680.000,587.000 C680.000,580.925 684.925,576.000 691.000,576.000 Z" class="cls-10"/>
  <path d="M718.000,485.000 L759.000,485.000 C764.523,485.000 769.000,489.477 769.000,495.000 C769.000,500.523 764.523,505.000 759.000,505.000 L718.000,505.000 C712.477,505.000 708.000,500.523 708.000,495.000 C708.000,489.477 712.477,485.000 718.000,485.000 Z" class="cls-10"/>
  <path d="M1540.500,1243.000 L1670.500,1243.000 C1677.404,1243.000 1683.000,1248.596 1683.000,1255.500 C1683.000,1262.404 1677.404,1268.000 1670.500,1268.000 L1540.500,1268.000 C1533.596,1268.000 1528.000,1262.404 1528.000,1255.500 C1528.000,1248.596 1533.596,1243.000 1540.500,1243.000 Z" class="cls-11"/>
  <path d="M1593.500,1208.000 L1705.500,1208.000 C1710.194,1208.000 1714.000,1211.806 1714.000,1216.500 C1714.000,1221.194 1710.194,1225.000 1705.500,1225.000 L1593.500,1225.000 C1588.805,1225.000 1585.000,1221.194 1585.000,1216.500 C1585.000,1211.806 1588.805,1208.000 1593.500,1208.000 Z" class="cls-11"/>
  <path d="M1566.000,1166.000 L1643.000,1166.000 C1648.523,1166.000 1653.000,1170.477 1653.000,1176.000 C1653.000,1181.523 1648.523,1186.000 1643.000,1186.000 L1566.000,1186.000 C1560.477,1186.000 1556.000,1181.523 1556.000,1176.000 C1556.000,1170.477 1560.477,1166.000 1566.000,1166.000 Z" class="cls-11"/>
  <path d="M1204.726,514.543 L1215.384,523.875 C1217.895,526.074 1218.155,529.899 1215.964,532.419 C1213.773,534.938 1209.960,535.198 1207.449,532.999 L1195.543,522.574 L1183.017,533.528 C1180.499,535.730 1176.675,535.470 1174.478,532.947 C1172.280,530.423 1172.541,526.592 1175.059,524.390 L1186.345,514.520 L1175.616,505.125 C1173.104,502.926 1172.845,499.101 1175.036,496.581 C1177.227,494.062 1181.040,493.802 1183.551,496.001 L1195.529,506.489 L1206.983,496.472 C1209.501,494.270 1213.325,494.530 1215.522,497.053 C1217.720,499.577 1217.459,503.408 1214.941,505.610 L1204.726,514.543 Z" class="cls-1"/>
  <rect x="1702" y="149" width="25" height="52" class="cls-12"/>
  <path d="M969.000,684.000 L1007.000,573.000 L991.000,572.000 L952.000,683.000 L969.000,684.000 Z" class="cls-1"/>
  <path d="M1597.703,630.687 L1445.391,630.687 C1444.609,630.687 1443.841,630.628 1443.091,630.515 C1436.184,645.483 1419.892,656.000 1400.891,656.000 C1382.919,656.000 1367.376,646.589 1359.900,632.906 L1404.687,632.906 L1404.687,632.537 L1405.971,632.915 L1417.166,616.525 L1405.060,600.798 L1404.687,600.931 L1404.687,600.094 L1357.991,600.094 C1364.444,584.276 1381.215,573.000 1400.891,573.000 C1420.599,573.000 1437.395,584.313 1443.825,600.173 C1444.339,600.121 1444.862,600.094 1445.391,600.094 L1597.703,600.094 C1606.151,600.094 1613.000,606.942 1613.000,615.391 C1613.000,623.839 1606.151,630.687 1597.703,630.687 Z" class="cls-13"/>
  <circle cx="1715" cy="256" r="17" class="cls-12"/>
  <circle cx="1715" cy="486" r="17" class="cls-12"/>
  <rect x="1741" y="377" width="90" height="32" rx="2" ry="2" class="cls-14"/>
  <rect x="1676" y="427" width="76" height="32" rx="2" ry="2" class="cls-14"/>
  <rect x="1714" y="271" width="3" height="17" class="cls-15"/>
  <rect x="1641" y="341" width="61" height="3" class="cls-14"/>
  <rect x="1727" y="341" width="61" height="3" class="cls-14"/>
  <rect x="1641" y="341" width="3" height="37" class="cls-14"/>
  <rect x="1785" y="341" width="3" height="37" class="cls-14"/>
  <rect x="1641" y="442" width="35" height="3" class="cls-14"/>
  <rect x="1752" y="442" width="36" height="3" class="cls-14"/>
  <rect x="1641" y="408" width="3" height="37" class="cls-14"/>
  <rect x="1785" y="408" width="3" height="37" class="cls-14"/>
  <rect x="1714" y="317" width="3" height="13" class="cls-14"/>
  <rect x="1714" y="458" width="3" height="13" class="cls-15"/>
  <path d="M1699.590,341.101 L1714.899,326.727 L1729.273,342.037 L1713.963,356.410 L1699.590,341.101 Z" class="cls-16"/>
  <path d="M1674.000,287.000 L1760.000,287.000 L1754.000,317.000 L1665.000,317.000 L1674.000,287.000 Z" class="cls-16"/>
  <path d="M1604.000,378.000 L1690.000,378.000 L1684.000,408.000 L1595.000,408.000 L1604.000,378.000 Z" class="cls-16"/>
  <g>
    <path d="M1703.000,769.000 L1592.000,662.000 L1617.000,602.000 L1786.000,602.000 L1819.000,661.000 L1703.000,769.000 Z" class="cls-17"/>
    <path d="M1704.687,770.148 L1815.942,645.795 L1785.455,601.029 L1616.056,601.278 L1587.942,646.130 L1704.687,770.148 Z" class="cls-18"/>
    <path d="M1743.000,647.000 L1808.000,643.000 L1784.000,607.000 L1743.000,647.000 Z" class="cls-19"/>
    <path d="M1655.000,644.000 L1594.000,644.000 L1619.000,606.000 L1655.000,644.000 Z" class="cls-19"/>
    <path d="M1704.685,768.868 L1748.055,645.895 L1699.320,604.997 L1654.547,644.752 L1704.685,768.868 Z" class="cls-19"/>
    <path d="M1745.122,644.546 L1782.822,604.411 L1785.624,607.040 L1747.924,647.175 L1745.122,644.546 Z" class="cls-20"/>
    <path d="M1704.687,770.148 L1652.947,645.311 L1697.073,601.159 L1748.694,645.170 L1704.687,770.148 Z" class="cls-20"/>
    <path d="M1593.062,643.562 L1810.815,643.242 L1810.820,647.083 L1593.068,647.403 L1593.062,643.562 Z" class="cls-20"/>
    <path d="M1658.398,644.703 L1620.171,605.130 L1617.347,607.738 L1655.574,647.311 L1658.398,644.703 Z" class="cls-20"/>
  </g>
</svg>
