<svg xmlns="http://www.w3.org/2000/svg" xmlns:xlink="http://www.w3.org/1999/xlink" preserveAspectRatio="xMidYMid" width="2134" height="1996" viewBox="0 0 2134 1996">
  <defs>
    <style>
      .cls-1 {
        stroke: #a6dbee;
        stroke-width: 10px;
        fill: none;
      }

      .cls-2 {
        fill: #e1f5fe;
      }

      .cls-10, .cls-2, .cls-4, .cls-5, .cls-8, .cls-9 {
        fill-rule: evenodd;
      }

      .cls-3 {
        fill: #90c0d8;
      }

      .cls-4 {
        fill: #83ee7e;
      }

      .cls-5 {
        fill: #f0c1a5;
      }

      .cls-6 {
        fill: #f1cbb4;
      }

      .cls-7 {
        fill: #042047;
      }

      .cls-8 {
        fill: #fa5679;
      }

      .cls-9 {
        fill: #d33e5c;
      }

      .cls-10 {
        fill: #4b3223;
      }

      .cls-11 {
        fill: #13a08d;
      }

      .cls-12 {
        fill: #faf692;
      }

      .cls-13 {
        fill: #b1eb5b;
      }

      .cls-14 {
        fill: #e3a7c0;
      }

      .cls-15 {
        fill: #5fd18c;
      }

      .cls-16 {
        fill: #d86060;
      }
    </style>
  </defs>
  <circle cx="1061.5" cy="952.5" r="466.5" class="cls-1"/>
  <path d="M379.000,844.000 L857.505,844.000 C890.643,844.000 917.505,870.863 917.505,904.000 C917.505,937.137 890.643,964.000 857.505,964.000 L379.000,964.000 C345.863,964.000 319.000,937.137 319.000,904.000 C319.000,870.863 345.863,844.000 379.000,844.000 Z" class="cls-2"/>
  <path d="M374.500,845.000 C407.361,845.000 434.000,871.639 434.000,904.500 C434.000,937.361 407.361,964.000 374.500,964.000 C341.639,964.000 315.000,937.361 315.000,904.500 C315.000,871.639 341.639,845.000 374.500,845.000 Z" class="cls-2"/>
  <path d="M190.500,845.000 C223.361,845.000 250.000,871.639 250.000,904.500 C250.000,937.361 223.361,964.000 190.500,964.000 C157.639,964.000 131.000,937.361 131.000,904.500 C131.000,871.639 157.639,845.000 190.500,845.000 Z" class="cls-2"/>
  <path d="M1916.500,845.000 C1949.361,845.000 1976.000,871.639 1976.000,904.500 C1976.000,937.361 1949.361,964.000 1916.500,964.000 C1883.639,964.000 1857.000,937.361 1857.000,904.500 C1857.000,871.639 1883.639,845.000 1916.500,845.000 Z" class="cls-2"/>
  <path d="M1262.495,844.000 L1741.000,844.000 C1774.137,844.000 1801.000,870.863 1801.000,904.000 C1801.000,937.137 1774.137,964.000 1741.000,964.000 L1262.495,964.000 C1229.357,964.000 1202.495,937.137 1202.495,904.000 C1202.495,870.863 1229.357,844.000 1262.495,844.000 Z" class="cls-2"/>
  <path d="M1376.000,779.000 L1685.000,779.000 C1712.614,779.000 1735.000,801.386 1735.000,829.000 C1735.000,856.614 1712.614,879.000 1685.000,879.000 L1376.000,879.000 C1348.386,879.000 1326.000,856.614 1326.000,829.000 C1326.000,801.386 1348.386,779.000 1376.000,779.000 Z" class="cls-2"/>
  <path d="M1405.000,947.000 L1691.000,947.000 C1712.539,947.000 1730.000,964.461 1730.000,986.000 C1730.000,1007.539 1712.539,1025.000 1691.000,1025.000 L1405.000,1025.000 C1383.461,1025.000 1366.000,1007.539 1366.000,986.000 C1366.000,964.461 1383.461,947.000 1405.000,947.000 Z" class="cls-2"/>
  <path d="M479.000,774.000 L765.000,774.000 C802.003,774.000 832.000,803.997 832.000,841.000 C832.000,878.003 802.003,908.000 765.000,908.000 L479.000,908.000 C441.997,908.000 412.000,878.003 412.000,841.000 C412.000,803.997 441.997,774.000 479.000,774.000 Z" class="cls-2"/>
  <path d="M465.500,958.000 L975.500,958.000 C991.792,958.000 1005.000,971.208 1005.000,987.500 C1005.000,1003.792 991.792,1017.000 975.500,1017.000 L465.500,1017.000 C449.208,1017.000 436.000,1003.792 436.000,987.500 C436.000,971.208 449.208,958.000 465.500,958.000 Z" class="cls-2"/>
  <g>
    <circle cx="1412" cy="612" r="123" class="cls-3"/>
    <path d="M1412.000,735.000 C1387.713,735.000 1365.073,727.958 1346.003,715.809 C1350.845,710.083 1371.986,685.407 1377.000,685.000 C1382.672,684.540 1449.179,685.314 1449.179,685.314 C1451.432,685.914 1462.813,700.104 1477.927,715.853 C1458.871,727.975 1436.257,735.000 1412.000,735.000 Z" class="cls-4"/>
    <path d="M1411.500,664.000 C1420.613,664.000 1428.000,671.387 1428.000,680.500 L1428.000,688.500 C1428.000,697.613 1420.613,705.000 1411.500,705.000 C1402.387,705.000 1395.000,697.613 1395.000,688.500 L1395.000,680.500 C1395.000,671.387 1402.387,664.000 1411.500,664.000 Z" class="cls-5"/>
    <circle cx="1411.5" cy="599.5" r="75.5" class="cls-6"/>
    <path d="M1411.500,675.000 C1411.332,675.000 1411.167,674.988 1411.000,674.987 L1411.000,524.013 C1411.167,524.012 1411.332,524.000 1411.500,524.000 C1453.197,524.000 1487.000,557.803 1487.000,599.500 C1487.000,641.197 1453.197,675.000 1411.500,675.000 Z" class="cls-5"/>
    <circle cx="1452.5" cy="605.5" r="5.5" class="cls-7"/>
    <circle cx="1370.5" cy="605.5" r="5.5" class="cls-7"/>
    <path d="M1426.740,638.000 C1426.903,638.649 1427.000,639.316 1427.000,640.000 C1427.000,646.075 1420.284,651.000 1412.000,651.000 C1403.716,651.000 1397.000,646.075 1397.000,640.000 C1397.000,639.316 1397.097,638.649 1397.260,638.000 L1426.740,638.000 Z" class="cls-8"/>
    <path d="M1426.740,638.000 C1426.903,638.649 1427.000,639.316 1427.000,640.000 C1427.000,641.457 1426.605,642.845 1425.903,644.117 C1419.606,641.921 1408.270,639.373 1401.822,638.000 L1426.740,638.000 Z" class="cls-9"/>
    <path d="M1337.000,588.000 C1337.000,588.000 1354.712,597.504 1383.000,579.000 L1377.000,589.000 C1377.000,589.000 1403.258,583.408 1422.000,572.000 C1437.435,562.605 1446.000,547.000 1446.000,547.000 C1446.000,547.000 1471.204,594.597 1487.000,590.000 C1513.476,582.294 1488.000,590.000 1488.000,590.000 C1489.296,589.353 1483.230,523.558 1455.321,518.341 C1451.733,518.461 1438.552,500.134 1411.000,508.000 C1397.611,511.822 1380.250,516.940 1365.226,524.642 C1341.119,537.000 1323.026,556.012 1337.000,587.000 " class="cls-10"/>
  </g>
  <g>
    <circle cx="1067" cy="490.031" r="123" class="cls-11"/>
    <path d="M1067.000,613.062 C1042.713,613.062 1020.072,606.018 1001.001,593.865 C1005.840,588.142 1026.986,563.454 1032.000,563.047 C1037.672,562.587 1104.179,563.361 1104.179,563.361 C1106.432,563.961 1117.814,578.156 1132.928,593.909 C1113.873,606.035 1091.258,613.062 1067.000,613.062 Z" class="cls-4"/>
    <path d="M1066.500,542.031 C1075.613,542.031 1083.000,549.419 1083.000,558.531 L1083.000,566.562 C1083.000,575.675 1075.613,583.062 1066.500,583.062 C1057.387,583.062 1050.000,575.675 1050.000,566.562 L1050.000,558.531 C1050.000,549.419 1057.387,542.031 1066.500,542.031 Z" class="cls-5"/>
    <circle cx="1066.5" cy="477.515" r="75.5" class="cls-6"/>
    <path d="M1066.500,553.031 C1066.332,553.031 1066.167,553.020 1066.000,553.019 L1066.000,402.013 C1066.167,402.012 1066.332,402.000 1066.500,402.000 C1108.197,402.000 1142.000,435.810 1142.000,477.516 C1142.000,519.222 1108.197,553.031 1066.500,553.031 Z" class="cls-5"/>
    <circle cx="1107.5" cy="483.531" r="5.5" class="cls-7"/>
    <circle cx="1025.5" cy="483.531" r="5.5" class="cls-7"/>
    <path d="M1081.740,516.031 C1081.903,516.681 1082.000,517.347 1082.000,518.031 C1082.000,524.106 1075.284,529.031 1067.000,529.031 C1058.716,529.031 1052.000,524.106 1052.000,518.031 C1052.000,517.347 1052.097,516.681 1052.260,516.031 L1081.740,516.031 Z" class="cls-8"/>
    <path d="M1081.740,516.031 C1081.903,516.681 1082.000,517.347 1082.000,518.031 C1082.000,519.490 1081.604,520.880 1080.901,522.154 C1074.596,519.955 1063.243,517.403 1056.800,516.031 L1081.740,516.031 Z" class="cls-9"/>
    <path d="M992.000,466.024 C992.000,466.024 1009.712,475.530 1038.000,457.022 L1032.000,467.024 C1032.000,467.024 1058.258,461.431 1077.000,450.020 C1092.435,440.623 1101.000,425.014 1101.000,425.014 C1101.000,425.014 1126.204,472.623 1142.000,468.024 C1168.476,460.317 1143.000,468.024 1143.000,468.024 C1144.296,467.377 1138.230,401.567 1110.321,396.348 C1106.733,396.468 1093.552,378.137 1066.000,386.005 C1052.611,389.828 1035.250,394.947 1020.226,402.651 C996.119,415.012 978.026,434.028 992.000,465.024 " class="cls-10"/>
  </g>
  <g>
    <circle cx="723" cy="613.032" r="123" class="cls-12"/>
    <path d="M723.000,736.062 C698.713,736.062 676.072,729.018 657.001,716.865 C661.840,711.142 682.986,686.454 688.000,686.047 C693.672,685.587 760.179,686.361 760.179,686.361 C762.432,686.961 773.814,701.156 788.928,716.909 C769.873,729.035 747.258,736.062 723.000,736.062 Z" class="cls-4"/>
    <path d="M722.500,665.031 C731.613,665.031 739.000,672.419 739.000,681.531 L739.000,689.562 C739.000,698.675 731.613,706.062 722.500,706.062 C713.387,706.062 706.000,698.675 706.000,689.562 L706.000,681.531 C706.000,672.419 713.387,665.031 722.500,665.031 Z" class="cls-5"/>
    <circle cx="722.5" cy="600.515" r="75.5" class="cls-6"/>
    <path d="M722.500,676.031 C722.332,676.031 722.167,676.020 722.000,676.019 L722.000,525.013 C722.167,525.012 722.332,525.000 722.500,525.000 C764.197,525.000 798.000,558.810 798.000,600.516 C798.000,642.222 764.197,676.031 722.500,676.031 Z" class="cls-5"/>
    <circle cx="763.5" cy="606.531" r="5.5" class="cls-7"/>
    <circle cx="681.5" cy="606.531" r="5.5" class="cls-7"/>
    <path d="M737.740,639.031 C737.903,639.681 738.000,640.347 738.000,641.031 C738.000,647.106 731.284,652.031 723.000,652.031 C714.716,652.031 708.000,647.106 708.000,641.031 C708.000,640.347 708.097,639.681 708.260,639.031 L737.740,639.031 Z" class="cls-8"/>
    <path d="M737.740,639.031 C737.903,639.681 738.000,640.347 738.000,641.031 C738.000,642.490 737.604,643.880 736.901,645.154 C730.596,642.955 719.243,640.403 712.800,639.031 L737.740,639.031 Z" class="cls-9"/>
    <path d="M648.000,589.024 C648.000,589.024 665.712,598.530 694.000,580.022 L688.000,590.024 C688.000,590.024 714.258,584.431 733.000,573.020 C748.435,563.623 757.000,548.014 757.000,548.014 C757.000,548.014 782.204,595.623 798.000,591.024 C824.476,583.317 799.000,591.024 799.000,591.024 C800.296,590.377 794.230,524.567 766.321,519.348 C762.733,519.468 749.552,501.137 722.000,509.005 C708.611,512.828 691.250,517.947 676.226,525.651 C652.119,538.012 634.026,557.028 648.000,588.024 " class="cls-10"/>
  </g>
  <g>
    <circle cx="1412" cy="1247" r="123" class="cls-13"/>
    <path d="M1412.000,1370.000 C1387.713,1370.000 1365.073,1362.958 1346.003,1350.809 C1350.845,1345.083 1371.986,1320.407 1377.000,1320.000 C1382.672,1319.540 1449.179,1320.314 1449.179,1320.314 C1451.432,1320.914 1462.813,1335.104 1477.927,1350.853 C1458.871,1362.975 1436.257,1370.000 1412.000,1370.000 Z" class="cls-4"/>
    <path d="M1411.500,1299.000 C1420.613,1299.000 1428.000,1306.387 1428.000,1315.500 L1428.000,1323.500 C1428.000,1332.613 1420.613,1340.000 1411.500,1340.000 C1402.387,1340.000 1395.000,1332.613 1395.000,1323.500 L1395.000,1315.500 C1395.000,1306.387 1402.387,1299.000 1411.500,1299.000 Z" class="cls-5"/>
    <circle cx="1411.5" cy="1234.5" r="75.5" class="cls-6"/>
    <path d="M1411.500,1310.000 C1411.332,1310.000 1411.167,1309.988 1411.000,1309.987 L1411.000,1159.013 C1411.167,1159.012 1411.332,1159.000 1411.500,1159.000 C1453.197,1159.000 1487.000,1192.803 1487.000,1234.500 C1487.000,1276.197 1453.197,1310.000 1411.500,1310.000 Z" class="cls-5"/>
    <circle cx="1452.5" cy="1240.5" r="5.5" class="cls-7"/>
    <circle cx="1370.5" cy="1240.5" r="5.5" class="cls-7"/>
    <path d="M1426.740,1273.000 C1426.903,1273.649 1427.000,1274.316 1427.000,1275.000 C1427.000,1281.075 1420.284,1286.000 1412.000,1286.000 C1403.716,1286.000 1397.000,1281.075 1397.000,1275.000 C1397.000,1274.316 1397.097,1273.649 1397.260,1273.000 L1426.740,1273.000 Z" class="cls-8"/>
    <path d="M1426.740,1273.000 C1426.903,1273.649 1427.000,1274.316 1427.000,1275.000 C1427.000,1276.457 1426.605,1277.845 1425.903,1279.117 C1419.606,1276.921 1408.270,1274.373 1401.822,1273.000 L1426.740,1273.000 Z" class="cls-9"/>
    <path d="M1337.000,1223.000 C1337.000,1223.000 1354.712,1232.504 1383.000,1214.000 L1377.000,1224.000 C1377.000,1224.000 1403.258,1218.408 1422.000,1207.000 C1437.435,1197.605 1446.000,1182.000 1446.000,1182.000 C1446.000,1182.000 1471.204,1229.597 1487.000,1225.000 C1513.476,1217.294 1488.000,1225.000 1488.000,1225.000 C1489.296,1224.353 1483.230,1158.558 1455.321,1153.341 C1451.733,1153.461 1438.552,1135.134 1411.000,1143.000 C1397.611,1146.822 1380.250,1151.940 1365.226,1159.642 C1341.119,1172.000 1323.026,1191.012 1337.000,1222.000 " class="cls-10"/>
  </g>
  <g>
    <circle cx="1067" cy="1423.03" r="123" class="cls-14"/>
    <path d="M1067.000,1546.062 C1042.713,1546.062 1020.072,1539.018 1001.001,1526.865 C1005.840,1521.142 1026.986,1496.454 1032.000,1496.047 C1037.672,1495.587 1104.179,1496.361 1104.179,1496.361 C1106.432,1496.961 1117.814,1511.156 1132.928,1526.909 C1113.873,1539.035 1091.258,1546.062 1067.000,1546.062 Z" class="cls-4"/>
    <path d="M1066.500,1475.031 C1075.613,1475.031 1083.000,1482.419 1083.000,1491.531 L1083.000,1499.562 C1083.000,1508.675 1075.613,1516.062 1066.500,1516.062 C1057.387,1516.062 1050.000,1508.675 1050.000,1499.562 L1050.000,1491.531 C1050.000,1482.419 1057.387,1475.031 1066.500,1475.031 Z" class="cls-5"/>
    <circle cx="1066.5" cy="1410.515" r="75.5" class="cls-6"/>
    <path d="M1066.500,1486.031 C1066.332,1486.031 1066.167,1486.020 1066.000,1486.019 L1066.000,1335.013 C1066.167,1335.012 1066.332,1335.000 1066.500,1335.000 C1108.197,1335.000 1142.000,1368.810 1142.000,1410.516 C1142.000,1452.222 1108.197,1486.031 1066.500,1486.031 Z" class="cls-5"/>
    <circle cx="1107.5" cy="1416.53" r="5.5" class="cls-7"/>
    <circle cx="1025.5" cy="1416.53" r="5.5" class="cls-7"/>
    <path d="M1081.740,1449.031 C1081.903,1449.681 1082.000,1450.347 1082.000,1451.031 C1082.000,1457.106 1075.284,1462.031 1067.000,1462.031 C1058.716,1462.031 1052.000,1457.106 1052.000,1451.031 C1052.000,1450.347 1052.097,1449.681 1052.260,1449.031 L1081.740,1449.031 Z" class="cls-8"/>
    <path d="M1081.740,1449.031 C1081.903,1449.681 1082.000,1450.347 1082.000,1451.031 C1082.000,1452.490 1081.604,1453.880 1080.901,1455.154 C1074.596,1452.955 1063.243,1450.403 1056.800,1449.031 L1081.740,1449.031 Z" class="cls-9"/>
    <path d="M992.000,1399.024 C992.000,1399.024 1009.712,1408.530 1038.000,1390.022 L1032.000,1400.024 C1032.000,1400.024 1058.258,1394.431 1077.000,1383.020 C1092.435,1373.623 1101.000,1358.014 1101.000,1358.014 C1101.000,1358.014 1126.204,1405.623 1142.000,1401.024 C1168.476,1393.317 1143.000,1401.024 1143.000,1401.024 C1144.296,1400.377 1138.230,1334.567 1110.321,1329.348 C1106.733,1329.468 1093.552,1311.137 1066.000,1319.005 C1052.611,1322.828 1035.250,1327.947 1020.226,1335.651 C996.119,1348.012 978.026,1367.028 992.000,1398.024 " class="cls-10"/>
  </g>
  <g>
    <circle cx="723" cy="1248.03" r="123" class="cls-15"/>
    <path d="M723.000,1371.062 C698.713,1371.062 676.072,1364.018 657.001,1351.865 C661.840,1346.142 682.986,1321.454 688.000,1321.047 C693.672,1320.587 760.179,1321.361 760.179,1321.361 C762.432,1321.961 773.814,1336.156 788.928,1351.909 C769.873,1364.035 747.258,1371.062 723.000,1371.062 Z" class="cls-4"/>
    <path d="M722.500,1300.031 C731.613,1300.031 739.000,1307.419 739.000,1316.531 L739.000,1324.562 C739.000,1333.675 731.613,1341.062 722.500,1341.062 C713.387,1341.062 706.000,1333.675 706.000,1324.562 L706.000,1316.531 C706.000,1307.419 713.387,1300.031 722.500,1300.031 Z" class="cls-5"/>
    <circle cx="722.5" cy="1235.515" r="75.5" class="cls-6"/>
    <path d="M722.500,1311.031 C722.332,1311.031 722.167,1311.020 722.000,1311.019 L722.000,1160.013 C722.167,1160.012 722.332,1160.000 722.500,1160.000 C764.197,1160.000 798.000,1193.810 798.000,1235.516 C798.000,1277.222 764.197,1311.031 722.500,1311.031 Z" class="cls-5"/>
    <circle cx="763.5" cy="1241.53" r="5.5" class="cls-7"/>
    <circle cx="681.5" cy="1241.53" r="5.5" class="cls-7"/>
    <path d="M737.740,1274.031 C737.903,1274.681 738.000,1275.347 738.000,1276.031 C738.000,1282.106 731.284,1287.031 723.000,1287.031 C714.716,1287.031 708.000,1282.106 708.000,1276.031 C708.000,1275.347 708.097,1274.681 708.260,1274.031 L737.740,1274.031 Z" class="cls-8"/>
    <path d="M737.740,1274.031 C737.903,1274.681 738.000,1275.347 738.000,1276.031 C738.000,1277.490 737.604,1278.880 736.901,1280.154 C730.596,1277.955 719.243,1275.403 712.800,1274.031 L737.740,1274.031 Z" class="cls-9"/>
    <path d="M648.000,1224.024 C648.000,1224.024 665.712,1233.530 694.000,1215.022 L688.000,1225.024 C688.000,1225.024 714.258,1219.431 733.000,1208.020 C748.435,1198.623 757.000,1183.014 757.000,1183.014 C757.000,1183.014 782.204,1230.623 798.000,1226.024 C824.476,1218.317 799.000,1226.024 799.000,1226.024 C800.296,1225.377 794.230,1159.567 766.321,1154.348 C762.733,1154.468 749.552,1136.137 722.000,1144.005 C708.611,1147.828 691.250,1152.947 676.226,1160.651 C652.119,1173.012 634.026,1192.028 648.000,1223.024 " class="cls-10"/>
  </g>
  <g>
    <circle cx="602" cy="925.03" r="123" class="cls-11"/>
    <path d="M602.000,1048.062 C577.713,1048.062 555.072,1041.018 536.001,1028.865 C540.840,1023.142 561.986,998.454 567.000,998.047 C572.672,997.587 639.179,998.361 639.179,998.361 C641.432,998.961 652.814,1013.156 667.928,1028.909 C648.873,1041.035 626.258,1048.062 602.000,1048.062 Z" class="cls-4"/>
    <path d="M601.500,977.031 C610.613,977.031 618.000,984.419 618.000,993.531 L618.000,1001.562 C618.000,1010.675 610.613,1018.062 601.500,1018.062 C592.387,1018.062 585.000,1010.675 585.000,1001.562 L585.000,993.531 C585.000,984.419 592.387,977.031 601.500,977.031 Z" class="cls-5"/>
    <circle cx="601.5" cy="912.515" r="75.5" class="cls-6"/>
    <path d="M601.500,988.031 C601.332,988.031 601.167,988.020 601.000,988.019 L601.000,837.013 C601.167,837.012 601.332,837.000 601.500,837.000 C643.197,837.000 677.000,870.810 677.000,912.516 C677.000,954.222 643.197,988.031 601.500,988.031 Z" class="cls-5"/>
    <circle cx="642.5" cy="918.531" r="5.5" class="cls-7"/>
    <circle cx="560.5" cy="918.531" r="5.5" class="cls-7"/>
    <path d="M616.740,951.031 C616.903,951.681 617.000,952.347 617.000,953.031 C617.000,959.106 610.284,964.031 602.000,964.031 C593.716,964.031 587.000,959.106 587.000,953.031 C587.000,952.347 587.097,951.681 587.260,951.031 L616.740,951.031 Z" class="cls-8"/>
    <path d="M616.740,951.031 C616.903,951.681 617.000,952.347 617.000,953.031 C617.000,954.490 616.604,955.880 615.901,957.154 C609.596,954.955 598.243,952.403 591.800,951.031 L616.740,951.031 Z" class="cls-9"/>
    <path d="M527.000,901.024 C527.000,901.024 544.712,910.530 573.000,892.022 L567.000,902.024 C567.000,902.024 593.258,896.431 612.000,885.020 C627.435,875.623 636.000,860.014 636.000,860.014 C636.000,860.014 661.204,907.623 677.000,903.024 C703.476,895.317 678.000,903.024 678.000,903.024 C679.296,902.377 673.230,836.567 645.321,831.348 C641.733,831.468 628.552,813.137 601.000,821.005 C587.611,824.828 570.250,829.947 555.226,837.651 C531.119,850.012 513.026,869.028 527.000,900.024 " class="cls-10"/>
  </g>
  <g>
    <circle cx="1530" cy="922.03" r="123" class="cls-16"/>
    <path d="M1530.000,1045.062 C1505.713,1045.062 1483.072,1038.018 1464.001,1025.865 C1468.840,1020.142 1489.986,995.454 1495.000,995.047 C1500.672,994.587 1567.179,995.361 1567.179,995.361 C1569.432,995.961 1580.814,1010.156 1595.928,1025.909 C1576.873,1038.035 1554.258,1045.062 1530.000,1045.062 Z" class="cls-4"/>
    <path d="M1529.500,974.031 C1538.613,974.031 1546.000,981.419 1546.000,990.531 L1546.000,998.562 C1546.000,1007.675 1538.613,1015.062 1529.500,1015.062 C1520.387,1015.062 1513.000,1007.675 1513.000,998.562 L1513.000,990.531 C1513.000,981.419 1520.387,974.031 1529.500,974.031 Z" class="cls-5"/>
    <circle cx="1529.5" cy="909.515" r="75.5" class="cls-6"/>
    <path d="M1529.500,985.031 C1529.332,985.031 1529.167,985.020 1529.000,985.019 L1529.000,834.013 C1529.167,834.012 1529.332,834.000 1529.500,834.000 C1571.197,834.000 1605.000,867.810 1605.000,909.516 C1605.000,951.222 1571.197,985.031 1529.500,985.031 Z" class="cls-5"/>
    <circle cx="1570.5" cy="915.531" r="5.5" class="cls-7"/>
    <circle cx="1488.5" cy="915.531" r="5.5" class="cls-7"/>
    <path d="M1544.740,948.031 C1544.903,948.681 1545.000,949.347 1545.000,950.031 C1545.000,956.106 1538.284,961.031 1530.000,961.031 C1521.716,961.031 1515.000,956.106 1515.000,950.031 C1515.000,949.347 1515.097,948.681 1515.260,948.031 L1544.740,948.031 Z" class="cls-8"/>
    <path d="M1544.740,948.031 C1544.903,948.681 1545.000,949.347 1545.000,950.031 C1545.000,951.490 1544.604,952.880 1543.901,954.154 C1537.596,951.955 1526.243,949.403 1519.800,948.031 L1544.740,948.031 Z" class="cls-9"/>
    <path d="M1455.000,898.024 C1455.000,898.024 1472.712,907.530 1501.000,889.022 L1495.000,899.024 C1495.000,899.024 1521.258,893.431 1540.000,882.020 C1555.435,872.623 1564.000,857.014 1564.000,857.014 C1564.000,857.014 1589.204,904.623 1605.000,900.024 C1631.476,892.317 1606.000,900.024 1606.000,900.024 C1607.296,899.377 1601.230,833.567 1573.321,828.348 C1569.733,828.468 1556.552,810.137 1529.000,818.005 C1515.611,821.828 1498.250,826.947 1483.226,834.651 C1459.119,847.012 1441.026,866.028 1455.000,897.024 " class="cls-10"/>
  </g>
</svg>
