<svg xmlns="http://www.w3.org/2000/svg" xmlns:xlink="http://www.w3.org/1999/xlink" preserveAspectRatio="xMidYMid" width="1058" height="1167" viewBox="0 0 1058 1167">
  <defs>
    <style>
      .cls-1 {
        stroke: #40e74c;
        stroke-width: 21px;
      }

      .cls-1, .cls-3 {
        fill: none;
      }

      .cls-1, .cls-2, .cls-3 {
        fill-rule: evenodd;
      }

      .cls-2, .cls-4 {
        fill: #40e74c;
      }

      .cls-3 {
        stroke: #005c7f;
        stroke-width: 3px;
      }
    </style>
  </defs>
  <path d="M504.829,392.670 C605.384,392.670 686.900,474.473 686.900,575.382 C686.900,676.291 605.384,758.094 504.829,758.094 C404.274,758.094 322.758,676.291 322.758,575.382 C322.758,474.473 404.274,392.670 504.829,392.670 Z" class="cls-1"/>
  <path d="M607.013,515.128 L514.345,624.991 L514.475,625.096 L486.736,659.005 L486.095,658.484 L485.784,658.852 L461.211,638.272 L413.007,599.116 L440.746,565.208 L480.313,597.347 L573.405,486.980 L607.013,515.128 Z" class="cls-2"/>
  <path d="M-1216.283,503.399 L-1186.605,503.399 L-1186.605,994.294 L-1216.283,994.294 L-1216.283,503.399 Z" class="cls-3"/>
  <circle cx="592.578" cy="199.438" r="56.297" class="cls-4"/>
  <path d="M716.331,921.120 C747.393,921.120 772.575,946.389 772.575,977.560 C772.575,1008.731 747.393,1034.000 716.331,1034.000 C685.268,1034.000 660.086,1008.731 660.086,977.560 C660.086,946.389 685.268,921.120 716.331,921.120 Z" class="cls-2"/>
  <path d="M232.227,886.161 C263.280,886.161 288.454,911.430 288.454,942.601 C288.454,973.772 263.280,999.041 232.227,999.041 C201.174,999.041 176.000,973.772 176.000,942.601 C176.000,911.430 201.174,886.161 232.227,886.161 Z" class="cls-2"/>
  <path d="M245.360,323.369 C276.414,323.369 301.587,348.645 301.587,379.826 C301.587,411.006 276.414,436.283 245.360,436.283 C214.307,436.283 189.133,411.006 189.133,379.826 C189.133,348.645 214.307,323.369 245.360,323.369 Z" class="cls-2"/>
  <circle cx="907.75" cy="571.563" r="56.25" class="cls-4"/>
  <path d="M261.681,407.921 L273.869,391.241 L373.286,464.084 L361.242,480.769 L261.681,407.921 Z" class="cls-2"/>
  <path d="M267.669,914.572 L250.066,902.522 L387.183,702.305 L403.860,714.355 L267.669,914.572 Z" class="cls-2"/>
  <path d="M581.648,728.603 L599.720,718.658 L716.517,932.393 L698.445,942.338 L581.648,728.603 Z" class="cls-2"/>
  <path d="M674.388,595.708 L674.388,572.535 L858.630,571.948 L858.630,592.632 L674.388,595.708 Z" class="cls-2"/>
  <path d="M552.697,408.504 L532.486,404.447 L566.918,238.840 L587.300,242.548 L552.697,408.504 Z" class="cls-2"/>
</svg>
