<svg xmlns="http://www.w3.org/2000/svg" xmlns:xlink="http://www.w3.org/1999/xlink" preserveAspectRatio="xMidYMid" width="1058" height="1167" viewBox="0 0 1058 1167">
  <defs>
    <style>
      .cls-1, .cls-11, .cls-12 {
        fill: #005c7f;
      }

      .cls-1 {
        opacity: 0.63;
      }

      .cls-1, .cls-11, .cls-12, .cls-2, .cls-5, .cls-6 {
        fill-rule: evenodd;
      }

      .cls-11, .cls-2, .cls-4, .cls-5 {
        stroke: #005c7f;
      }

      .cls-2, .cls-4 {
        stroke-width: 21px;
      }

      .cls-2, .cls-4, .cls-5 {
        fill: none;
      }

      .cls-3 {
        fill: #f9b9bc;
      }

      .cls-11, .cls-5 {
        stroke-width: 3px;
      }

      .cls-6 {
        fill: #d8efda;
      }

      .cls-7 {
        fill: #dbd8ef;
      }

      .cls-8 {
        fill: #e6e5b4;
      }

      .cls-9 {
        fill: #efd8da;
      }

      .cls-10 {
        fill: #d8efec;
      }
    </style>
  </defs>
  <path d="M96.295,429.042 L118.542,429.042 L118.542,905.085 L96.295,905.085 L96.295,429.042 Z" class="cls-1"/>
  <path d="M206.366,1027.754 L208.695,1005.562 L627.000,1049.000 L624.000,1071.000 L206.366,1027.754 Z" class="cls-1"/>
  <path d="M811.339,975.557 L790.233,968.500 L894.053,656.097 L915.158,663.153 L811.339,975.557 Z" class="cls-1"/>
  <path d="M927.202,473.120 L911.672,489.097 L615.044,199.008 L630.575,183.031 L927.202,473.120 Z" class="cls-1"/>
  <path d="M188.721,268.574 L181.845,247.352 L470.000,153.000 L477.000,174.000 L188.721,268.574 Z" class="cls-1"/>
  <path d="M455.976,376.931 C564.529,376.931 652.529,465.187 652.529,574.057 C652.529,682.927 564.529,771.184 455.976,771.184 C347.423,771.184 259.423,682.927 259.423,574.057 C259.423,465.187 347.423,376.931 455.976,376.931 Z" class="cls-2"/>
  <circle cx="455.985" cy="574.047" r="137.203" class="cls-3"/>
  <circle cx="724.313" cy="1048.407" r="106.157" class="cls-4"/>
  <path d="M-1216.283,503.399 L-1186.605,503.399 L-1186.605,994.294 L-1216.283,994.294 L-1216.283,503.399 Z" class="cls-5"/>
  <circle cx="116.172" cy="996.315" r="106.141" class="cls-4"/>
  <circle cx="561.219" cy="118.594" r="106.156" class="cls-4"/>
  <path d="M559.785,49.754 C598.713,49.754 630.270,81.389 630.270,120.412 C630.270,159.435 598.713,191.070 559.785,191.070 C520.856,191.070 489.299,159.435 489.299,120.412 C489.299,81.389 520.856,49.754 559.785,49.754 Z" class="cls-6"/>
  <circle cx="722.953" cy="1050.094" r="70.422" class="cls-7"/>
  <circle cx="114.797" cy="998.002" r="70.422" class="cls-8"/>
  <circle cx="114.797" cy="336.094" r="70.422" class="cls-9"/>
  <circle cx="937.986" cy="574.063" r="70.423" class="cls-10"/>
  <path d="M193.536,393.410 L206.693,375.415 L314.000,454.000 L301.000,472.000 L193.536,393.410 Z" class="cls-11"/>
  <path d="M200.000,940.000 L181.000,927.000 L329.000,711.000 L347.000,724.000 L200.000,940.000 Z" class="cls-11"/>
  <path d="M538.899,739.372 L558.405,728.642 L684.472,959.226 L664.966,969.955 L538.899,739.372 Z" class="cls-11"/>
  <path d="M639.000,596.000 L639.000,571.000 L837.864,570.367 L837.864,592.681 L639.000,596.000 Z" class="cls-12"/>
  <path d="M507.650,394.039 L485.835,389.663 L523.000,211.000 L545.000,215.000 L507.650,394.039 Z" class="cls-11"/>
  <circle cx="116.172" cy="334.344" r="106.141" class="cls-4"/>
  <circle cx="939.344" cy="572.36" r="106.156" class="cls-4"/>
</svg>
