<svg xmlns="http://www.w3.org/2000/svg" xmlns:xlink="http://www.w3.org/1999/xlink" preserveAspectRatio="xMidYMid" width="263" height="204" viewBox="0 0 263 204">
  <defs>
    <style>
      .cls-1, .cls-2 {
        fill: #75c1ec;
      }

      .cls-1, .cls-3, .cls-4 {
        fill-rule: evenodd;
      }

      .cls-3, .cls-4, .cls-5 {
        stroke: #3c9cb7;
        fill: none;
      }

      .cls-3 {
        stroke-width: 6px;
      }

      .cls-4, .cls-5 {
        stroke-width: 5px;
      }
    </style>
  </defs>
  <path d="M499.267,-187.956 C493.390,-188.018 487.450,-186.191 482.446,-182.307 C470.672,-173.170 468.537,-156.220 477.678,-144.450 C486.818,-132.680 503.773,-130.545 515.548,-139.683 C524.903,-146.944 528.146,-159.130 524.510,-169.738 L529.162,-173.350 C534.435,-160.303 530.712,-144.840 519.049,-135.783 C504.973,-124.853 484.703,-127.406 473.775,-141.485 C462.847,-155.565 465.399,-175.839 479.475,-186.769 C487.185,-192.756 496.749,-194.671 505.622,-192.890 L499.267,-187.956 Z" class="cls-1"/>
  <circle cx="527.797" cy="-171.938" r="1.516" class="cls-2"/>
  <path d="M520.311,-164.549 L525.722,-174.358 C526.077,-175.003 526.889,-175.237 527.533,-174.881 C528.178,-174.526 528.412,-173.714 528.057,-173.069 L522.646,-163.261 C522.290,-162.616 521.479,-162.382 520.835,-162.737 C520.190,-163.093 519.956,-163.904 520.311,-164.549 Z" class="cls-1"/>
  <path d="M537.404,-169.953 L527.536,-174.926 C526.888,-175.253 526.094,-174.999 525.764,-174.358 C525.435,-173.717 525.693,-172.933 526.342,-172.606 L536.210,-167.633 C536.858,-167.306 537.652,-167.560 537.982,-168.201 C538.311,-168.842 538.053,-169.626 537.404,-169.953 Z" class="cls-1"/>
  <path d="M502.500,-258.000 C504.433,-258.000 506.000,-256.433 506.000,-254.500 L506.000,-206.500 C506.000,-204.567 504.433,-203.000 502.500,-203.000 C500.567,-203.000 499.000,-204.567 499.000,-206.500 L499.000,-254.500 C499.000,-256.433 500.567,-258.000 502.500,-258.000 Z" class="cls-1"/>
  <path d="M502.500,-119.000 C504.433,-119.000 506.000,-117.433 506.000,-115.500 L506.000,-67.500 C506.000,-65.567 504.433,-64.000 502.500,-64.000 C500.567,-64.000 499.000,-65.567 499.000,-67.500 L499.000,-115.500 C499.000,-117.433 500.567,-119.000 502.500,-119.000 Z" class="cls-1"/>
  <path d="M179.224,-205.779 L167.869,-204.733 C166.267,-192.517 161.783,-181.212 155.113,-171.529 L159.745,-166.743 C162.200,-164.207 162.146,-160.149 159.623,-157.681 L144.551,-142.932 C142.029,-140.463 137.994,-140.518 135.539,-143.055 L130.185,-148.586 C125.641,-145.982 120.802,-143.841 115.735,-142.209 L116.683,-131.869 C117.006,-128.355 114.423,-125.248 110.914,-124.929 L89.952,-123.020 C86.444,-122.700 83.338,-125.290 83.016,-128.804 L82.054,-139.289 C70.342,-140.902 59.477,-145.176 50.099,-151.499 L42.494,-143.665 C40.037,-141.134 35.998,-141.079 33.474,-143.543 L18.390,-158.262 C15.865,-160.725 15.810,-164.774 18.267,-167.305 L26.913,-176.210 C23.974,-181.221 21.591,-186.598 19.846,-192.254 L8.869,-191.248 C5.355,-190.926 2.248,-193.507 1.929,-197.012 L0.020,-217.957 C-0.300,-221.462 2.290,-224.564 5.804,-224.886 L17.296,-225.940 C19.007,-237.525 23.316,-248.262 29.620,-257.533 L18.273,-269.244 C15.835,-271.761 15.889,-275.787 18.394,-278.236 L33.365,-292.872 C35.870,-295.321 39.878,-295.267 42.317,-292.750 L54.192,-280.493 C58.994,-283.305 64.132,-285.603 69.528,-287.319 L68.436,-299.169 C68.113,-302.671 70.698,-305.767 74.211,-306.085 L95.197,-307.987 C98.709,-308.306 101.818,-305.725 102.140,-302.224 L103.259,-290.084 C111.339,-288.933 119.019,-286.536 126.075,-283.051 L135.792,-293.051 C138.233,-295.563 142.244,-295.617 144.751,-293.173 L159.734,-278.567 C162.241,-276.123 162.296,-272.105 159.855,-269.594 L152.257,-261.775 C157.698,-254.852 161.956,-246.958 164.756,-238.403 L176.169,-239.454 C179.671,-239.777 182.767,-237.193 183.085,-233.684 L184.987,-212.716 C185.306,-209.207 182.725,-206.101 179.224,-205.779 ZM93.125,-257.875 C68.980,-257.875 49.406,-238.266 49.406,-214.078 C49.406,-189.890 68.980,-170.281 93.125,-170.281 C117.270,-170.281 136.844,-189.890 136.844,-214.078 C136.844,-238.266 117.270,-257.875 93.125,-257.875 Z" class="cls-1"/>
  <path d="M260.018,-141.501 L254.172,-140.962 C253.349,-134.693 251.063,-128.886 247.638,-123.917 L250.017,-121.459 C251.278,-120.157 251.250,-118.074 249.955,-116.806 L242.216,-109.233 C240.921,-107.966 238.850,-107.994 237.589,-109.297 L234.837,-112.140 C232.506,-110.805 230.019,-109.718 227.420,-108.881 L227.908,-103.554 C228.074,-101.750 226.748,-100.154 224.946,-99.990 L214.184,-99.010 C212.382,-98.846 210.788,-100.176 210.623,-101.980 L210.127,-107.385 C204.119,-108.215 198.542,-110.398 193.731,-113.642 L189.817,-109.610 C188.556,-108.311 186.483,-108.282 185.186,-109.547 L177.442,-117.104 C176.146,-118.369 176.117,-120.448 177.379,-121.747 L181.828,-126.330 C180.322,-128.898 179.118,-131.661 178.223,-134.560 L172.554,-134.040 C170.750,-133.875 169.154,-135.200 168.990,-137.000 L168.010,-147.753 C167.846,-149.553 169.176,-151.146 170.980,-151.311 L176.898,-151.854 C177.776,-157.798 179.982,-163.308 183.215,-168.065 L177.382,-174.086 C176.130,-175.378 176.158,-177.445 177.444,-178.702 L185.130,-186.217 C186.417,-187.474 188.474,-187.446 189.726,-186.154 L195.830,-179.855 C198.292,-181.298 200.933,-182.460 203.700,-183.341 L203.137,-189.450 C202.971,-191.248 204.298,-192.838 206.102,-193.001 L216.877,-193.977 C218.680,-194.141 220.276,-192.816 220.442,-191.018 L221.016,-184.783 C225.165,-184.192 229.107,-182.963 232.730,-181.174 L237.719,-186.309 C238.972,-187.598 241.032,-187.626 242.319,-186.371 L250.012,-178.872 C251.299,-177.617 251.327,-175.555 250.074,-174.265 L246.175,-170.252 C248.968,-166.699 251.136,-162.640 252.574,-158.250 L258.450,-158.791 C260.248,-158.956 261.838,-157.630 262.001,-155.828 L262.977,-145.063 C263.141,-143.261 261.816,-141.666 260.018,-141.501 ZM215.813,-168.250 C203.421,-168.250 193.375,-158.183 193.375,-145.766 C193.375,-133.348 203.421,-123.281 215.813,-123.281 C228.204,-123.281 238.250,-133.348 238.250,-145.766 C238.250,-158.183 228.204,-168.250 215.813,-168.250 Z" class="cls-1"/>
  <path d="M170.067,108.288 L155.541,108.288 C155.408,108.288 155.298,108.289 155.175,108.290 C153.778,113.431 151.776,118.318 149.295,122.907 C149.292,123.036 149.199,123.244 148.964,123.536 C148.898,123.654 148.840,123.778 148.773,123.896 C148.861,124.064 148.990,124.245 149.189,124.441 L158.657,133.761 C160.420,135.496 160.276,138.501 158.335,140.471 L140.758,158.312 C138.817,160.283 135.814,160.474 134.050,158.738 L124.319,149.159 C119.791,151.906 114.937,154.169 109.805,155.824 L109.805,170.106 C109.805,172.575 107.587,174.577 104.851,174.577 L80.081,174.577 C77.345,174.577 75.127,172.575 75.127,170.106 L75.127,157.830 C67.810,156.380 60.912,153.770 54.626,150.205 L45.252,159.439 C43.493,161.171 40.497,160.981 38.561,159.014 L21.030,141.207 C19.093,139.240 18.949,136.241 20.708,134.508 L29.538,125.812 C26.271,120.410 23.723,114.525 22.029,108.288 L9.470,108.288 C7.001,108.288 5.000,106.050 5.000,103.289 L5.000,78.297 C5.000,75.537 7.001,73.299 9.470,73.299 L21.720,73.299 C23.323,66.928 25.813,60.910 29.048,55.382 L19.329,45.815 C17.566,44.079 17.710,41.074 19.651,39.104 L37.227,21.263 C39.169,19.292 42.172,19.102 43.936,20.837 L53.849,30.595 C60.341,26.798 67.505,24.025 75.127,22.514 L75.127,9.471 C75.127,7.002 77.345,5.000 80.081,5.000 L104.851,5.000 C107.587,5.000 109.805,7.002 109.805,9.471 L109.805,24.000 C109.805,24.189 109.806,24.350 109.808,24.521 C115.241,26.274 120.370,28.695 125.121,31.665 L135.137,21.799 C136.896,20.066 139.892,20.256 141.828,22.223 L159.360,40.031 C161.296,41.997 161.440,44.996 159.681,46.729 L149.331,56.924 C149.266,56.988 149.214,57.041 149.152,57.102 C151.918,62.152 154.073,67.583 155.511,73.301 C155.522,73.301 155.530,73.299 155.541,73.299 L170.067,73.299 C172.536,73.299 174.537,75.537 174.537,78.297 L174.537,103.289 C174.537,106.050 172.536,108.288 170.067,108.288 Z" class="cls-3"/>
  <path d="M250.636,161.938 L242.953,161.938 C242.885,161.938 242.829,161.939 242.765,161.939 C242.023,164.664 240.961,167.253 239.644,169.684 C239.639,169.743 239.587,169.838 239.501,169.954 C239.458,170.032 239.420,170.114 239.376,170.192 C239.422,170.282 239.487,170.377 239.593,170.482 L244.601,175.411 C245.534,176.329 245.457,177.919 244.430,178.961 L235.134,188.397 C234.107,189.440 232.518,189.540 231.586,188.622 L226.431,183.548 C224.038,184.996 221.474,186.189 218.761,187.061 L218.761,194.635 C218.761,195.941 217.588,197.000 216.141,197.000 L203.040,197.000 C201.593,197.000 200.419,195.941 200.419,194.635 L200.419,188.107 C196.561,187.339 192.934,185.946 189.618,184.068 L184.618,188.993 C183.688,189.909 182.103,189.809 181.079,188.769 L171.806,179.350 C170.782,178.309 170.706,176.723 171.636,175.807 L176.331,171.182 C174.607,168.332 173.261,165.228 172.367,161.938 L165.692,161.938 C164.386,161.938 163.328,160.754 163.328,159.294 L163.328,146.075 C163.328,144.615 164.386,143.432 165.692,143.432 L172.220,143.432 C173.067,140.075 174.381,136.905 176.084,133.991 L170.907,128.895 C169.974,127.976 170.050,126.387 171.077,125.345 L180.374,115.908 C181.400,114.866 182.989,114.765 183.922,115.683 L189.210,120.888 C192.632,118.887 196.401,117.411 200.419,116.612 L200.419,109.671 C200.419,108.365 201.593,107.307 203.040,107.307 L216.141,107.307 C217.588,107.307 218.761,108.365 218.761,109.671 L218.761,117.356 C218.761,117.466 218.763,117.561 218.764,117.659 C221.633,118.581 224.342,119.856 226.852,121.421 L232.161,116.192 C233.091,115.276 234.675,115.376 235.700,116.416 L244.972,125.835 C245.997,126.875 246.073,128.462 245.142,129.378 L239.668,134.770 C239.636,134.801 239.611,134.827 239.581,134.857 C241.049,137.529 242.193,140.405 242.956,143.432 L250.636,143.432 C251.942,143.432 253.000,144.615 253.000,146.075 L253.000,159.294 C253.000,160.754 251.942,161.938 250.636,161.938 Z" class="cls-4"/>
  <circle cx="89.047" cy="90.891" r="50.047" class="cls-5"/>
  <circle cx="207.531" cy="152.438" r="22.5" class="cls-5"/>
</svg>
