<svg xmlns="http://www.w3.org/2000/svg" xmlns:xlink="http://www.w3.org/1999/xlink" preserveAspectRatio="xMidYMid" width="427" height="411" viewBox="0 0 427 411">
  <defs>
    <style>
      .cls-1 {
        stroke: #171515;
        stroke-width: 10px;
        fill: none;
      }

      .cls-1, .cls-2 {
        fill-rule: evenodd;
      }

      .cls-2, .cls-3 {
        fill: #171515;
      }
    </style>
  </defs>
  <path d="M177.000,298.000 C150.806,306.900 28.968,245.262 104.000,138.000 C104.000,138.000 93.069,109.453 106.000,84.000 C106.000,84.000 138.033,81.996 164.000,105.000 C164.000,105.000 220.563,88.678 269.000,104.000 C269.000,104.000 306.175,79.039 327.000,83.000 C327.000,83.000 341.379,111.321 330.000,139.000 C330.000,139.000 404.146,274.620 257.000,298.000 " class="cls-1"/>
  <path d="M269.000,405.000 L272.000,333.000 C272.000,333.000 268.511,302.371 258.000,297.000 " class="cls-1"/>
  <path d="M272.631,406.988 C271.820,403.316 271.000,399.000 271.000,399.000 L269.488,397.488 C351.761,374.030 412.000,298.301 412.000,208.500 C412.000,99.976 324.024,12.000 215.500,12.000 C106.976,12.000 19.000,99.976 19.000,208.500 C19.000,299.563 80.949,376.147 165.000,398.437 L165.000,408.769 C75.367,386.238 9.000,305.124 9.000,208.500 C9.000,94.453 101.453,2.000 215.500,2.000 C329.547,2.000 422.000,94.453 422.000,208.500 C422.000,302.726 358.888,382.205 272.631,406.988 Z" class="cls-2"/>
  <ellipse cx="83" cy="295" rx="3" ry="2" class="cls-3"/>
  <path d="M165.000,400.000 L165.000,359.000 C165.000,359.000 126.915,365.655 111.000,349.000 C95.085,332.345 90.590,310.983 84.000,308.000 C77.649,305.125 58.200,299.175 60.566,292.267 C60.728,291.796 68.204,277.099 93.000,296.000 C94.532,298.718 113.012,321.782 118.000,324.000 C122.988,326.218 164.000,325.000 164.000,325.000 C164.000,325.000 171.958,300.648 178.000,298.000 " class="cls-1"/>
  <circle cx="91.5" cy="302.5" r="2.75" class="cls-3"/>
  <circle cx="100" cy="315" r="3.156" class="cls-3"/>
  <circle cx="110" cy="327" r="3.375" class="cls-3"/>
  <circle cx="125" cy="335" r="3.969" class="cls-3"/>
  <ellipse cx="142" cy="337" rx="4" ry="3" class="cls-3"/>
  <ellipse cx="157.5" cy="336" rx="4.5" ry="3" class="cls-3"/>
</svg>
