<?xml version="1.0" encoding="utf-8"?>
<!-- Generator: Adobe Illustrator 16.0.0, SVG Export Plug-In . SVG Version: 6.00 Build 0)  -->
<!DOCTYPE svg PUBLIC "-//W3C//DTD SVG 1.1//EN" "http://www.w3.org/Graphics/SVG/1.1/DTD/svg11.dtd">
<svg version="1.1" id="Layer_1" xmlns="http://www.w3.org/2000/svg" xmlns:xlink="http://www.w3.org/1999/xlink" x="0px" y="0px"
	 width="306px" height="301px" viewBox="0 0 306 301" enable-background="new 0 0 306 301" xml:space="preserve">
<line fill="#11151B" stroke="#0B6B37" stroke-miterlimit="10" x1="144.935" y1="52.378" x2="120.521" y2="165.291"/>
<g>
	<path fill="none" stroke="#000000" stroke-miterlimit="10" d="M127.69,116.258"/>
	
		<polyline fill="none" stroke="#0D8040" stroke-width="10" stroke-linecap="round" stroke-linejoin="round" stroke-miterlimit="10" points="
		154,291.5 113.892,195.953 117.577,178.908 147.022,42.721 154,10.453 	"/>
	
		<polyline fill="none" stroke="#0D8040" stroke-width="10" stroke-linecap="round" stroke-linejoin="round" stroke-miterlimit="10" points="
		153.891,8.453 193.999,104 153.891,289.5 	"/>
	<g>
		<path fill="none" stroke="#02552E" stroke-width="10" stroke-linecap="round" stroke-linejoin="round" stroke-miterlimit="10" d="
			M156.426,9.988c-1.944-1.944-5.126-1.944-7.07,0L14.297,145.047c-1.944,1.944-1.944,5.126,0,7.07l135.059,135.059
			c1.944,1.944,5.126,1.944,7.07,0l135.059-135.059c1.944-1.944,1.944-5.126,0-7.07L156.426,9.988z"/>
	</g>
	
		<polyline fill="none" stroke="#0D8040" stroke-width="10" stroke-linecap="round" stroke-linejoin="round" stroke-miterlimit="10" points="
		154,289.5 113.892,193.953 117.577,176.908 147.022,40.721 149.853,27.635 	"/>
	
		<polyline fill="none" stroke="#18552A" stroke-width="10" stroke-linecap="round" stroke-linejoin="round" stroke-miterlimit="10" points="
		291.718,149 113.052,195.582 14.332,152.301 	"/>
	<path fill="none" stroke="#0D8040" stroke-width="10" stroke-linecap="round" stroke-linejoin="round" stroke-miterlimit="10" d="
		M157.865,271.116l34.437-159.267l1.113-5.147l0.584-2.702L153.891,8.453C155.797,10.359,193.999,105,193.999,105l-36.454,167.598"
		/>
	
		<polyline fill="none" stroke="#18552A" stroke-width="10" stroke-linecap="round" stroke-linejoin="round" stroke-miterlimit="10" points="
		14.333,148.582 192.999,102 291.719,145.281 	"/>
	<path fill="none" stroke="#000000" stroke-width="10" stroke-miterlimit="10" d="M114.5,188.439"/>
	<path fill="none" stroke="#000000" stroke-width="10" stroke-miterlimit="10" d="M154.354,281.338"/>
</g>
<line fill="none" stroke="#0D8040" stroke-width="10" stroke-linecap="round" stroke-linejoin="round" stroke-miterlimit="10" x1="142.529" y1="63.5" x2="124.42" y2="147.257"/>
<path fill="none" stroke="#0B6B37" stroke-miterlimit="10" d="M152.891,8.453"/>
<line fill="none" stroke="#0B6B37" stroke-miterlimit="10" x1="154.354" y1="11.556" x2="154.354" y2="11.556"/>
<path fill="none" stroke="#0B6B37" stroke-width="10" stroke-miterlimit="10" d="M185.513,85.784"/>
<path fill="none" stroke="#0D8040" stroke-width="10" stroke-linecap="round" stroke-linejoin="round" stroke-miterlimit="10" d="
	M222.542,116.952"/>
</svg>
