<svg xmlns="http://www.w3.org/2000/svg" xmlns:xlink="http://www.w3.org/1999/xlink" preserveAspectRatio="xMidYMid" width="928" height="1033" viewBox="0 0 928 1033">
  <defs>
    <style>
      .cls-1, .cls-3, .cls-4 {
        stroke: #4ad9fc;
        fill: none;
      }

      .cls-1, .cls-3 {
        stroke-width: 21px;
      }

      .cls-1, .cls-2, .cls-4 {
        fill-rule: evenodd;
      }

      .cls-2 {
        fill: #4ad9fc;
      }

      .cls-4 {
        stroke-width: 13px;
      }
    </style>
  </defs>
  <path d="M346.894,371.065 L101.090,371.065 C84.521,371.065 71.090,357.634 71.090,341.065 L71.090,156.000 C71.090,139.431 84.521,126.000 101.090,126.000 L154.886,126.000 L154.886,240.360 C154.886,247.816 160.931,253.860 168.386,253.860 L170.770,253.860 C178.226,253.860 184.270,247.816 184.270,240.360 L184.270,126.000 L266.979,126.000 L266.979,240.360 C266.979,247.816 273.023,253.860 280.479,253.860 L282.862,253.860 C290.318,253.860 296.362,247.816 296.362,240.360 L296.362,126.000 L346.894,126.000 C363.463,126.000 376.894,139.431 376.894,156.000 L376.894,341.065 C376.894,357.634 363.463,371.065 346.894,371.065 Z" class="cls-1"/>
  <path d="M382.335,710.842 L233.245,707.641 L233.242,708.474 L80.884,707.290 C199.044,592.842 154.886,350.939 154.886,350.939 L221.269,349.950 L221.271,349.755 L227.801,349.853 L234.330,349.755 L234.330,349.950 L300.715,350.939 C300.715,350.939 264.175,596.394 382.335,710.842 Z" class="cls-1"/>
  <path d="M93.000,691.856 L363.289,691.856 C378.753,691.856 391.289,704.392 391.289,719.856 L391.289,751.000 C391.289,766.464 378.753,779.000 363.289,779.000 L93.000,779.000 C77.536,779.000 65.000,766.464 65.000,751.000 L65.000,719.856 C65.000,704.392 77.536,691.856 93.000,691.856 Z" class="cls-2"/>
  <rect x="33" y="758.906" width="392.875" height="169.094" rx="30" ry="30" class="cls-3"/>
  <path d="M550.592,682.000 L832.000,682.000 C847.464,682.000 860.000,694.536 860.000,710.000 L860.000,744.183 C860.000,759.647 847.464,772.183 832.000,772.183 L550.592,772.183 C535.128,772.183 522.592,759.647 522.592,744.183 L522.592,710.000 C522.592,694.536 535.128,682.000 550.592,682.000 Z" class="cls-4"/>
  <rect x="489.813" y="753" width="406.187" height="175" rx="30" ry="30" class="cls-3"/>
  <path d="M539.303,701.633 C539.303,701.633 488.075,655.725 630.447,440.686 L582.062,440.686 L573.060,432.111 L457.162,467.639 C457.162,467.639 419.594,381.025 426.781,370.856 C433.967,360.686 517.476,326.581 523.550,303.475 C529.624,280.369 527.857,252.916 579.811,234.869 C631.765,216.822 643.949,205.467 643.949,205.467 L651.826,130.736 C651.826,130.736 724.397,173.430 728.341,196.891 C728.341,196.891 949.442,269.172 838.613,702.858 L539.303,701.633 Z" class="cls-1"/>
  <path d="M728.000,200.000 L752.000,163.000 C757.151,161.482 954.942,251.754 903.331,520.019 C900.000,521.000 851.000,515.000 851.000,515.000 C851.000,515.000 893.934,326.949 728.000,200.000 Z" class="cls-2"/>
</svg>
