<svg xmlns="http://www.w3.org/2000/svg" xmlns:xlink="http://www.w3.org/1999/xlink" preserveAspectRatio="xMidYMid" width="1058" height="1167" viewBox="0 0 1058 1167">
  <defs>
    <style>
      .cls-1, .cls-2 {
        fill: #40e74c;
      }

      .cls-1 {
        fill-rule: evenodd;
      }
    </style>
  </defs>
  <path d="M340.500,449.000 L851.500,449.000 C863.374,449.000 873.000,458.626 873.000,470.500 C873.000,482.374 863.374,492.000 851.500,492.000 L340.500,492.000 C328.626,492.000 319.000,482.374 319.000,470.500 C319.000,458.626 328.626,449.000 340.500,449.000 Z" class="cls-1"/>
  <path d="M237.000,451.000 C249.150,451.000 259.000,460.850 259.000,473.000 C259.000,485.150 249.150,495.000 237.000,495.000 C224.850,495.000 215.000,485.150 215.000,473.000 C215.000,460.850 224.850,451.000 237.000,451.000 Z" class="cls-1"/>
  <path d="M340.500,584.000 L851.500,584.000 C863.374,584.000 873.000,593.626 873.000,605.500 C873.000,617.374 863.374,627.000 851.500,627.000 L340.500,627.000 C328.626,627.000 319.000,617.374 319.000,605.500 C319.000,593.626 328.626,584.000 340.500,584.000 Z" class="cls-1"/>
  <path d="M237.000,586.000 C249.150,586.000 259.000,595.850 259.000,608.000 C259.000,620.150 249.150,630.000 237.000,630.000 C224.850,630.000 215.000,620.150 215.000,608.000 C215.000,595.850 224.850,586.000 237.000,586.000 Z" class="cls-1"/>
  <path d="M340.500,715.000 L851.500,715.000 C863.374,715.000 873.000,724.626 873.000,736.500 C873.000,748.374 863.374,758.000 851.500,758.000 L340.500,758.000 C328.626,758.000 319.000,748.374 319.000,736.500 C319.000,724.626 328.626,715.000 340.500,715.000 Z" class="cls-1"/>
  <path d="M237.000,717.000 C249.150,717.000 259.000,726.850 259.000,739.000 C259.000,751.150 249.150,761.000 237.000,761.000 C224.850,761.000 215.000,751.150 215.000,739.000 C215.000,726.850 224.850,717.000 237.000,717.000 Z" class="cls-1"/>
  <path d="M340.500,846.000 L851.500,846.000 C863.374,846.000 873.000,855.626 873.000,867.500 C873.000,879.374 863.374,889.000 851.500,889.000 L340.500,889.000 C328.626,889.000 319.000,879.374 319.000,867.500 C319.000,855.626 328.626,846.000 340.500,846.000 Z" class="cls-1"/>
  <path d="M237.000,846.000 C249.150,846.000 259.000,855.850 259.000,868.000 C259.000,880.150 249.150,890.000 237.000,890.000 C224.850,890.000 215.000,880.150 215.000,868.000 C215.000,855.850 224.850,846.000 237.000,846.000 Z" class="cls-1"/>
  <path d="M667.013,212.128 L574.345,321.991 L574.475,322.096 L546.736,356.005 L546.095,355.484 L545.784,355.852 L521.211,335.272 L473.007,296.116 L500.746,262.208 L540.313,294.347 L633.405,183.980 L667.013,212.128 Z" class="cls-1"/>
  <rect x="-104" y="184" width="9" height="5" class="cls-2"/>
</svg>
