<svg xmlns="http://www.w3.org/2000/svg" xmlns:xlink="http://www.w3.org/1999/xlink" preserveAspectRatio="xMidYMid" width="1058" height="1167" viewBox="0 0 1058 1167">
  <defs>
    <style>
      .cls-1 {
        fill: #e1f5fe;
        opacity: 0.7;
      }

      .cls-1, .cls-2, .cls-5, .cls-6 {
        fill-rule: evenodd;
      }

      .cls-2 {
        fill: #005c7f;
      }

      .cls-3, .cls-5 {
        fill: #fff;
      }

      .cls-3 {
        stroke: #005c7f;
        stroke-width: 21px;
      }

      .cls-4 {
        fill: #f9b9bc;
      }

      .cls-6, .cls-7 {
        fill: #d8efda;
      }
    </style>
  </defs>
  <path d="M225.690,236.976 L819.937,236.976 C822.146,236.976 823.937,238.767 823.937,240.976 L823.937,907.994 C823.937,910.203 822.146,911.994 819.937,911.994 L225.690,911.994 C223.481,911.994 221.690,910.203 221.690,907.994 L221.690,240.976 C221.690,238.767 223.481,236.976 225.690,236.976 Z" class="cls-1"/>
  <path d="M335.318,450.787 L338.662,450.787 C346.394,450.787 352.662,457.055 352.662,464.787 L352.662,468.132 C352.662,475.864 346.394,482.132 338.662,482.132 L335.318,482.132 C327.586,482.132 321.318,475.864 321.318,468.132 L321.318,464.787 C321.318,457.055 327.586,450.787 335.318,450.787 Z" class="cls-2"/>
  <path d="M335.318,536.984 L338.662,536.984 C346.394,536.984 352.662,543.252 352.662,550.984 L352.662,554.328 C352.662,562.060 346.394,568.328 338.662,568.328 L335.318,568.328 C327.586,568.328 321.318,562.060 321.318,554.328 L321.318,550.984 C321.318,543.252 327.586,536.984 335.318,536.984 Z" class="cls-2"/>
  <path d="M335.318,618.702 L338.662,618.702 C346.394,618.702 352.662,624.970 352.662,632.702 L352.662,636.047 C352.662,643.779 346.394,650.047 338.662,650.047 L335.318,650.047 C327.586,650.047 321.318,643.779 321.318,636.047 L321.318,632.702 C321.318,624.970 327.586,618.702 335.318,618.702 Z" class="cls-2"/>
  <path d="M335.318,702.660 L338.662,702.660 C346.394,702.660 352.662,708.928 352.662,716.660 L352.662,720.004 C352.662,727.736 346.394,734.004 338.662,734.004 L335.318,734.004 C327.586,734.004 321.318,727.736 321.318,720.004 L321.318,716.660 C321.318,708.928 327.586,702.660 335.318,702.660 Z" class="cls-2"/>
  <path d="M425.872,450.787 L717.145,450.787 C725.429,450.787 732.145,457.503 732.145,465.787 L732.145,469.370 C732.145,477.655 725.429,484.370 717.145,484.370 L425.872,484.370 C417.588,484.370 410.872,477.655 410.872,469.370 L410.872,465.787 C410.872,457.503 417.588,450.787 425.872,450.787 Z" class="cls-2"/>
  <path d="M425.872,534.745 L717.145,534.745 C725.429,534.745 732.145,541.461 732.145,549.745 L732.145,553.328 C732.145,561.612 725.429,568.328 717.145,568.328 L425.872,568.328 C417.588,568.328 410.872,561.612 410.872,553.328 L410.872,549.745 C410.872,541.461 417.588,534.745 425.872,534.745 Z" class="cls-2"/>
  <path d="M425.872,618.702 L717.145,618.702 C725.429,618.702 732.145,625.418 732.145,633.702 L732.145,637.285 C732.145,645.570 725.429,652.285 717.145,652.285 L425.872,652.285 C417.588,652.285 410.872,645.570 410.872,637.285 L410.872,633.702 C410.872,625.418 417.588,618.702 425.872,618.702 Z" class="cls-2"/>
  <path d="M425.872,702.660 L717.145,702.660 C725.429,702.660 732.145,709.376 732.145,717.660 L732.145,721.243 C732.145,729.527 725.429,736.243 717.145,736.243 L425.872,736.243 C417.588,736.243 410.872,729.527 410.872,721.243 L410.872,717.660 C410.872,709.376 417.588,702.660 425.872,702.660 Z" class="cls-2"/>
  <circle cx="531.204" cy="224.109" r="136.016" class="cls-3"/>
  <circle cx="531.218" cy="225.219" r="101.312" class="cls-4"/>
  <path d="M600.414,188.613 L543.706,256.083 L543.786,256.147 L526.811,276.972 L526.418,276.652 L526.228,276.878 L511.190,264.238 L481.692,240.193 L498.667,219.368 L522.880,239.106 L579.848,171.326 L600.414,188.613 Z" class="cls-5"/>
  <path d="M853.266,959.010 L704.159,959.010 L704.159,932.144 L837.519,932.144 C848.565,932.144 857.519,923.189 857.519,912.144 L857.519,671.316 L883.266,671.316 L883.266,929.010 C883.266,945.579 869.835,959.010 853.266,959.010 ZM857.519,232.348 C857.519,221.302 848.565,212.348 837.519,212.348 L704.159,212.348 L704.159,185.482 L853.266,185.482 C869.835,185.482 883.266,198.913 883.266,215.482 L883.266,466.459 L857.519,466.459 L857.519,232.348 ZM170.197,929.010 L170.197,671.316 L197.063,671.316 L197.063,912.144 C197.063,923.189 206.017,932.144 217.063,932.144 L358.259,932.144 L358.259,959.010 L200.197,959.010 C183.629,959.010 170.197,945.579 170.197,929.010 ZM197.063,232.348 L197.063,466.459 L170.197,466.459 L170.197,215.482 C170.197,198.913 183.629,185.482 200.197,185.482 L358.259,185.482 L358.259,212.348 L217.063,212.348 C206.017,212.348 197.063,221.302 197.063,232.348 Z" class="cls-2"/>
  <path d="M962.894,1073.192 L836.250,1073.192 L836.250,1053.042 L948.864,1053.042 C957.148,1053.042 963.864,1046.327 963.864,1038.042 L963.864,878.411 L982.894,878.411 L982.894,1053.192 C982.894,1064.238 973.940,1073.192 962.894,1073.192 ZM963.864,126.599 C963.864,118.315 957.148,111.599 948.864,111.599 L836.250,111.599 L836.250,94.808 L962.894,94.808 C973.940,94.808 982.894,103.762 982.894,114.808 L982.894,290.708 L963.864,290.708 L963.864,126.599 ZM78.405,1053.192 L78.405,878.411 L96.315,878.411 L96.315,1038.042 C96.315,1046.327 103.031,1053.042 111.316,1053.042 L248.556,1053.042 L248.556,1073.192 L98.405,1073.192 C87.359,1073.192 78.405,1064.238 78.405,1053.192 ZM96.315,126.599 L96.315,290.708 L78.405,290.708 L78.405,114.808 C78.405,103.762 87.359,94.808 98.405,94.808 L248.556,94.808 L248.556,111.599 L111.316,111.599 C103.031,111.599 96.315,118.315 96.315,126.599 Z" class="cls-6"/>
  <circle cx="973" cy="112" r="33" class="cls-7"/>
  <circle cx="89" cy="112" r="33" class="cls-7"/>
  <circle cx="973" cy="1056" r="33" class="cls-7"/>
  <circle cx="89" cy="1056" r="33" class="cls-7"/>
</svg>
