<svg xmlns="http://www.w3.org/2000/svg" xmlns:xlink="http://www.w3.org/1999/xlink" preserveAspectRatio="xMidYMid" width="1177" height="1123" viewBox="0 0 1177 1123">
  <defs>
    <style>
      .cls-1, .cls-4 {
        fill: #aadeed;
      }

      .cls-1, .cls-10, .cls-12, .cls-2, .cls-3, .cls-4, .cls-5, .cls-6, .cls-7, .cls-8, .cls-9 {
        fill-rule: evenodd;
      }

      .cls-2 {
        fill: #67b5e4;
      }

      .cls-3 {
        fill: #fff;
      }

      .cls-4 {
        stroke: #34aace;
        stroke-width: 21px;
      }

      .cls-5 {
        fill: #34aace;
      }

      .cls-6 {
        fill: #1d95ba;
      }

      .cls-7 {
        fill: #b3e5fc;
      }

      .cls-8 {
        fill: #80d4f9;
      }

      .cls-9 {
        fill: #404141;
      }

      .cls-10 {
        fill: #262727;
      }

      .cls-11 {
        fill: #f296b2;
      }

      .cls-12 {
        fill: #ff3070;
      }
    </style>
  </defs>
  <path d="M237.000,576.000 L271.000,576.000 C274.314,576.000 277.000,578.686 277.000,582.000 C277.000,585.314 274.314,588.000 271.000,588.000 L237.000,588.000 C233.686,588.000 231.000,585.314 231.000,582.000 C231.000,578.686 233.686,576.000 237.000,576.000 Z" class="cls-1"/>
  <path d="M253.000,588.000 L237.000,588.000 C233.686,588.000 231.000,585.314 231.000,582.000 C231.000,578.686 233.686,576.000 237.000,576.000 L253.000,576.000 L253.000,588.000 Z" class="cls-2"/>
  <path d="M226.000,619.000 L192.000,619.000 C188.686,619.000 186.000,616.314 186.000,613.000 C186.000,609.686 188.686,607.000 192.000,607.000 L226.000,607.000 C229.314,607.000 232.000,609.686 232.000,613.000 C232.000,616.314 229.314,619.000 226.000,619.000 ZM208.500,602.000 C204.910,602.000 202.000,599.090 202.000,595.500 C202.000,591.910 204.910,589.000 208.500,589.000 C212.090,589.000 215.000,591.910 215.000,595.500 C215.000,599.090 212.090,602.000 208.500,602.000 ZM208.500,627.000 C212.090,627.000 215.000,629.910 215.000,633.500 C215.000,637.090 212.090,640.000 208.500,640.000 C204.910,640.000 202.000,637.090 202.000,633.500 C202.000,629.910 204.910,627.000 208.500,627.000 Z" class="cls-1"/>
  <path d="M202.000,633.500 C202.000,629.910 204.910,627.000 208.500,627.000 C208.671,627.000 208.832,627.037 209.000,627.050 L209.000,639.950 C208.832,639.963 208.671,640.000 208.500,640.000 C204.910,640.000 202.000,637.090 202.000,633.500 ZM192.000,619.000 C188.686,619.000 186.000,616.314 186.000,613.000 C186.000,609.686 188.686,607.000 192.000,607.000 L209.000,607.000 L209.000,619.000 L192.000,619.000 ZM209.000,601.950 C208.832,601.963 208.671,602.000 208.500,602.000 C204.910,602.000 202.000,599.090 202.000,595.500 C202.000,591.910 204.910,589.000 208.500,589.000 C208.671,589.000 208.832,589.037 209.000,589.050 L209.000,601.950 Z" class="cls-2"/>
  <path d="M182.000,565.000 L171.000,565.000 L171.000,576.000 C171.000,579.314 168.314,582.000 165.000,582.000 C161.686,582.000 159.000,579.314 159.000,576.000 L159.000,565.000 L148.000,565.000 C144.686,565.000 142.000,562.314 142.000,559.000 C142.000,555.686 144.686,553.000 148.000,553.000 L159.000,553.000 L159.000,542.000 C159.000,538.686 161.686,536.000 165.000,536.000 C168.314,536.000 171.000,538.686 171.000,542.000 L171.000,553.000 L182.000,553.000 C185.314,553.000 188.000,555.686 188.000,559.000 C188.000,562.314 185.314,565.000 182.000,565.000 Z" class="cls-1"/>
  <path d="M159.000,576.000 L159.000,565.000 L148.000,565.000 C144.686,565.000 142.000,562.314 142.000,559.000 C142.000,555.686 144.686,553.000 148.000,553.000 L159.000,553.000 L159.000,542.000 C159.000,538.686 161.686,536.000 165.000,536.000 L165.000,582.000 C161.686,582.000 159.000,579.314 159.000,576.000 Z" class="cls-2"/>
  <path d="M197.382,673.183 L189.691,681.477 L197.024,689.261 C199.296,691.673 199.182,695.470 196.770,697.742 C194.358,700.015 190.560,699.901 188.288,697.489 L181.513,690.296 L174.276,698.101 C172.024,700.529 168.260,700.644 165.870,698.356 C163.479,696.069 163.366,692.246 165.618,689.817 L173.280,681.555 L164.976,672.739 C162.704,670.327 162.818,666.530 165.230,664.258 C167.642,661.985 171.440,662.099 173.712,664.511 L181.458,672.735 L188.724,664.899 C190.976,662.471 194.740,662.356 197.130,664.644 C199.521,666.931 199.634,670.754 197.382,673.183 Z" class="cls-1"/>
  <path d="M181.000,690.850 L174.276,698.101 C172.024,700.529 168.260,700.644 165.870,698.356 C163.479,696.069 163.366,692.246 165.618,689.817 L173.280,681.555 L164.976,672.739 C162.704,670.327 162.818,666.530 165.230,664.258 C167.642,661.985 171.440,662.099 173.712,664.511 L181.000,672.249 L181.000,690.850 Z" class="cls-2"/>
  <path d="M910.990,722.471 L908.487,754.261 C908.229,757.535 905.404,759.972 902.178,759.706 C898.951,759.439 896.544,756.570 896.802,753.296 L898.458,732.260 L837.928,779.566 C834.981,781.870 830.731,781.338 828.437,778.379 C826.142,775.420 826.671,771.154 829.619,768.851 L890.797,721.038 L873.588,711.167 C870.734,709.530 869.743,705.880 871.373,703.015 C873.004,700.150 876.640,699.154 879.494,700.791 L903.734,714.696 C904.599,714.976 905.410,715.437 906.117,716.063 L906.356,716.200 C909.196,716.813 911.227,719.458 910.990,722.471 Z" class="cls-1"/>
  <path d="M879.494,700.791 L903.734,714.696 C904.599,714.976 905.410,715.437 906.117,716.063 L906.356,716.200 C907.008,716.341 907.609,716.599 908.158,716.933 L828.189,777.984 C826.221,775.051 826.796,771.057 829.619,768.851 L890.797,721.038 L873.588,711.167 C870.734,709.530 869.743,705.880 871.373,703.015 C873.004,700.150 876.640,699.154 879.494,700.791 Z" class="cls-2"/>
  <path d="M330.563,787.379 C328.269,790.338 324.019,790.870 321.072,788.566 L260.542,741.260 L262.198,762.296 C262.456,765.570 260.049,768.439 256.822,768.706 C253.596,768.972 250.771,766.535 250.513,763.261 L248.010,731.471 C247.773,728.458 249.804,725.813 252.644,725.200 L252.883,725.063 C253.590,724.437 254.401,723.976 255.266,723.696 L279.506,709.791 C282.360,708.154 285.996,709.150 287.627,712.015 C289.257,714.880 288.266,718.530 285.412,720.167 L268.203,730.038 L329.381,777.851 C332.329,780.154 332.858,784.420 330.563,787.379 Z" class="cls-1"/>
  <path d="M330.811,786.984 L250.842,725.933 C251.391,725.599 251.992,725.341 252.644,725.200 L252.883,725.063 C253.590,724.437 254.401,723.976 255.266,723.696 L279.506,709.791 C282.360,708.154 285.996,709.150 287.627,712.015 C289.257,714.880 288.266,718.530 285.412,720.167 L268.203,730.038 L329.381,777.851 C332.204,780.057 332.779,784.051 330.811,786.984 Z" class="cls-2"/>
  <path d="M581.000,742.000 L824.000,594.000 L580.000,441.000 L340.000,593.000 L581.000,742.000 Z" class="cls-3"/>
  <path d="M1001.941,681.952 L957.142,634.747 L952.059,639.573 L996.858,686.779 L1001.941,681.952 Z" class="cls-1"/>
  <path d="M1004.547,708.875 C1001.400,708.875 998.497,707.859 996.124,706.154 L952.532,739.338 C952.769,740.376 952.906,741.452 952.906,742.563 C952.906,750.536 946.435,757.000 938.453,757.000 C930.471,757.000 924.000,750.536 924.000,742.563 C924.000,734.589 930.471,728.125 938.453,728.125 C942.768,728.125 946.629,730.024 949.278,733.018 L991.591,700.807 C990.642,698.884 990.094,696.727 990.094,694.437 C990.094,686.464 996.565,680.000 1004.547,680.000 C1012.529,680.000 1019.000,686.464 1019.000,694.437 C1019.000,702.411 1012.529,708.875 1004.547,708.875 ZM1002.547,579.875 C1000.622,579.875 998.789,579.492 997.109,578.809 L957.121,620.816 C958.921,623.224 960.000,626.201 960.000,629.438 C960.000,637.411 953.529,643.875 945.547,643.875 C937.565,643.875 931.094,637.411 931.094,629.438 C931.094,621.464 937.565,615.000 945.547,615.000 C947.737,615.000 949.805,615.501 951.665,616.371 L991.401,574.629 C989.335,572.132 988.094,568.930 988.094,565.437 C988.094,557.464 994.565,551.000 1002.547,551.000 C1010.529,551.000 1017.000,557.464 1017.000,565.437 C1017.000,573.411 1010.529,579.875 1002.547,579.875 Z" class="cls-1"/>
  <path d="M938.453,728.125 C942.768,728.125 946.629,730.024 949.278,733.018 L991.591,700.807 C990.642,698.884 990.094,696.727 990.094,694.437 C990.094,689.060 993.043,684.378 997.408,681.894 L1007.000,693.000 L927.477,751.940 C925.314,749.417 924.000,746.145 924.000,742.562 C924.000,734.589 930.471,728.125 938.453,728.125 ZM1011.796,554.348 L950.000,627.000 L958.170,636.460 C955.700,640.881 950.976,643.875 945.547,643.875 C937.565,643.875 931.094,637.411 931.094,629.438 C931.094,621.464 937.565,615.000 945.547,615.000 C947.737,615.000 949.805,615.501 951.665,616.371 L991.401,574.629 C989.335,572.132 988.094,568.930 988.094,565.438 C988.094,557.464 994.565,551.000 1002.547,551.000 C1006.066,551.000 1009.290,552.259 1011.796,554.348 Z" class="cls-2"/>
  <path d="M584.880,706.177 L585.475,943.000 L401.438,840.260 L405.012,672.511 L584.880,706.177 Z" class="cls-4"/>
  <path d="M584.284,706.177 L584.649,943.000 L767.726,840.260 L764.152,672.511 L584.284,706.177 Z" class="cls-4"/>
  <path d="M586.071,706.757 L767.130,603.437 L843.961,650.454 L664.689,747.969 L586.071,706.757 Z" class="cls-5"/>
  <path d="M584.880,705.016 L403.820,601.696 L326.989,648.712 L506.262,746.228 L584.880,705.016 Z" class="cls-5"/>
  <g>
    <path d="M673.464,134.058 C677.125,135.445 678.970,139.540 677.584,143.204 L667.408,170.126 C666.023,173.790 661.932,175.637 658.271,174.250 C654.611,172.863 652.766,168.768 654.151,165.104 L664.327,138.183 C665.713,134.518 669.803,132.671 673.464,134.058 Z" class="cls-3"/>
    <path d="M588.589,111.995 C592.503,111.935 595.724,115.062 595.785,118.980 L596.229,147.760 C596.289,151.678 593.166,154.903 589.252,154.964 C585.338,155.024 582.117,151.897 582.056,147.979 L581.612,119.199 C581.552,115.281 584.675,112.056 588.589,111.995 Z" class="cls-3"/>
    <path d="M752.627,177.864 C755.644,180.360 756.069,184.832 753.576,187.852 L735.259,210.040 C732.766,213.061 728.299,213.486 725.281,210.990 C722.264,208.494 721.839,204.022 724.333,201.002 L742.649,178.813 C745.143,175.793 749.610,175.368 752.627,177.864 Z" class="cls-3"/>
    <path d="M806.510,247.696 C808.341,251.157 807.028,255.467 803.577,257.322 L778.225,270.950 C774.774,272.805 770.492,271.503 768.661,268.041 C766.829,264.580 768.143,260.270 771.594,258.415 L796.945,244.787 C800.396,242.932 804.679,244.234 806.510,247.696 Z" class="cls-3"/>
    <path d="M843.005,332.044 C843.179,335.975 840.134,339.321 836.203,339.518 L807.327,340.961 C803.396,341.158 800.068,338.130 799.894,334.199 C799.719,330.268 802.765,326.922 806.695,326.726 L835.572,325.282 C839.503,325.086 842.830,328.113 843.005,332.044 Z" class="cls-3"/>
    <path d="M841.179,420.528 C840.286,424.390 836.462,426.824 832.638,425.965 L804.542,419.653 C800.718,418.794 798.341,414.967 799.233,411.106 C800.126,407.244 803.949,404.811 807.774,405.670 L835.870,411.981 C839.694,412.840 842.071,416.667 841.179,420.528 Z" class="cls-3"/>
    <path d="M815.973,504.076 C814.134,507.597 809.802,508.992 806.299,507.192 L780.563,493.967 C777.059,492.167 775.711,487.853 777.550,484.332 C779.390,480.811 783.721,479.416 787.224,481.216 L812.961,494.440 C816.464,496.240 817.813,500.554 815.973,504.076 Z" class="cls-3"/>
    <path d="M361.660,252.698 C359.825,256.158 361.141,260.466 364.600,262.321 L390.007,275.942 C393.466,277.797 397.757,276.495 399.592,273.035 C401.428,269.575 400.112,265.267 396.653,263.413 L371.246,249.791 C367.787,247.937 363.496,249.238 361.660,252.698 Z" class="cls-3"/>
    <path d="M333.995,332.146 C333.821,336.075 336.873,339.420 340.812,339.616 L369.752,341.059 C373.691,341.255 377.026,338.229 377.201,334.300 C377.375,330.370 374.323,327.026 370.384,326.829 L341.445,325.386 C337.505,325.190 334.170,328.216 333.995,332.146 Z" class="cls-3"/>
    <path d="M335.825,420.592 C336.720,424.451 340.552,426.884 344.385,426.025 L372.542,419.717 C376.375,418.858 378.757,415.033 377.863,411.173 C376.968,407.313 373.136,404.880 369.303,405.739 L341.146,412.048 C337.313,412.907 334.931,416.732 335.825,420.592 Z" class="cls-3"/>
    <path d="M361.086,504.103 C362.929,507.622 367.270,509.017 370.781,507.217 L396.574,493.999 C400.085,492.199 401.437,487.887 399.593,484.367 C397.750,480.848 393.409,479.453 389.898,481.253 L364.105,494.471 C360.594,496.271 359.242,500.583 361.086,504.103 Z" class="cls-3"/>
    <path d="M419.582,178.008 C416.573,180.512 416.149,184.998 418.636,188.028 L436.903,210.286 C439.389,213.315 443.844,213.742 446.853,211.238 C449.862,208.734 450.286,204.248 447.799,201.218 L429.533,178.961 C427.046,175.931 422.591,175.504 419.582,178.008 Z" class="cls-3"/>
    <path d="M496.920,133.866 C493.267,135.247 491.426,139.326 492.808,142.976 L502.964,169.789 C504.346,173.439 508.428,175.278 512.081,173.897 C515.734,172.516 517.575,168.438 516.193,164.788 L506.038,137.974 C504.655,134.324 500.573,132.485 496.920,133.866 Z" class="cls-3"/>
  </g>
  <path d="M586.071,500.117 L767.130,603.437 L843.961,556.421 L664.689,458.905 L586.071,500.117 Z" class="cls-5"/>
  <path d="M327.868,561.066 L508.121,456.415 L585.315,502.864 L406.804,601.697 L327.868,561.066 Z" class="cls-5"/>
  <path d="M328.412,561.345 L329.126,560.336 L508.121,456.415 L535.637,472.972 L518.110,538.637 L328.592,561.438 L328.412,561.345 Z" class="cls-6"/>
  <path d="M654.026,533.657 L636.523,467.888 L664.001,451.304 L842.750,555.390 L843.463,556.401 L843.283,556.494 L654.026,533.657 Z" class="cls-6"/>
  <path d="M693.518,472.836 C674.823,506.709 653.196,552.787 653.196,552.787 L509.837,560.667 C510.293,532.862 488.613,496.357 470.252,470.518 C440.254,441.186 421.625,400.265 421.625,354.984 C421.625,265.765 493.917,193.438 583.094,193.438 C672.270,193.438 744.563,265.765 744.563,354.984 C744.563,401.470 724.930,443.362 693.518,472.836 Z" class="cls-7"/>
  <path d="M586.000,556.480 L509.837,560.667 C510.293,532.862 488.613,496.357 470.252,470.518 C440.254,441.186 421.625,400.265 421.625,354.984 C421.625,265.765 493.917,193.438 583.094,193.438 C584.065,193.438 585.032,193.457 586.000,193.474 L586.000,556.480 Z" class="cls-8"/>
  <path d="M649.598,567.112 L515.740,567.112 C509.443,567.112 504.338,562.007 504.338,555.710 C504.338,549.413 509.443,544.308 515.740,544.308 L649.598,544.308 C655.895,544.308 661.000,549.413 661.000,555.710 C661.000,562.007 655.895,567.112 649.598,567.112 ZM515.751,574.720 L649.587,574.720 C655.890,574.720 661.000,579.830 661.000,586.134 C661.000,592.437 655.890,597.547 649.587,597.547 L515.751,597.547 C509.448,597.547 504.338,592.437 504.338,586.134 C504.338,579.830 509.448,574.720 515.751,574.720 ZM543.364,617.428 L622.673,617.428 C627.362,617.428 631.163,621.229 631.163,625.918 C631.163,630.607 627.362,634.409 622.673,634.409 L543.364,634.409 C538.675,634.409 534.874,630.607 534.874,625.918 C534.874,621.229 538.675,617.428 543.364,617.428 Z" class="cls-9"/>
  <path d="M515.751,574.720 L584.835,574.720 C584.835,582.197 584.835,589.968 584.835,597.547 L515.751,597.547 C509.448,597.547 504.338,592.437 504.338,586.134 C504.338,579.830 509.448,574.720 515.751,574.720 ZM534.874,625.918 C534.874,621.229 538.675,617.428 543.364,617.428 L584.835,617.428 C584.835,623.777 584.835,629.567 584.835,634.409 L543.364,634.409 C538.675,634.409 534.874,630.607 534.874,625.918 ZM584.835,567.112 L515.740,567.112 C509.443,567.112 504.338,562.007 504.338,555.710 C504.338,549.413 509.443,544.308 515.740,544.308 L584.835,544.308 C584.835,550.720 584.835,558.593 584.835,567.112 Z" class="cls-10"/>
  <path d="M564.388,549.278 L530.894,421.000 L512.000,422.722 L548.929,551.000 L564.388,549.278 Z" class="cls-10"/>
  <path d="M605.612,549.278 L639.106,421.000 L658.000,422.722 L621.071,551.000 L605.612,549.278 Z" class="cls-9"/>
  <path d="M511.000,423.000 C511.000,423.000 529.390,401.744 546.000,410.000 C562.610,418.256 580.919,411.577 584.000,408.000 C584.000,408.000 590.820,409.163 587.000,413.000 C583.180,416.837 560.669,423.291 551.000,419.000 C541.331,414.709 530.600,419.942 531.000,423.000 " class="cls-10"/>
  <path d="M659.000,423.000 C659.000,423.000 640.647,401.744 624.071,410.000 C607.494,418.256 589.223,411.577 586.148,408.000 C586.148,408.000 579.342,409.163 583.154,413.000 C586.966,416.837 609.431,423.291 619.081,419.000 C628.731,414.709 639.440,419.942 639.041,423.000 " class="cls-9"/>
  <circle cx="585.578" cy="269" r="27.422" class="cls-11"/>
  <path d="M585.562,296.437 C570.425,296.429 558.156,284.148 558.156,269.000 C558.156,253.852 570.425,241.571 585.562,241.563 L585.562,296.437 Z" class="cls-12"/>
  <path d="M516.781,387.156 L516.781,370.906 L531.000,370.906 L531.000,387.156 L516.781,387.156 ZM486.281,370.906 L500.500,370.906 L500.500,387.156 L486.281,387.156 L486.281,370.906 ZM455.781,370.906 L470.000,370.906 L470.000,387.156 L455.781,387.156 L455.781,370.906 ZM425.281,370.906 L439.531,370.906 L439.531,387.156 L425.281,387.156 L425.281,370.906 ZM394.812,370.906 L409.031,370.906 L409.031,387.156 L394.812,387.156 L394.812,370.906 ZM364.312,370.906 L378.531,370.906 L378.531,387.156 L364.312,387.156 L364.312,370.906 ZM333.813,370.906 L348.031,370.906 L348.031,387.156 L333.813,387.156 L333.813,370.906 ZM317.563,387.156 L303.313,387.156 L303.313,370.906 L317.563,370.906 L317.563,387.156 ZM272.844,370.906 L287.062,370.906 L287.062,387.156 L272.844,387.156 L272.844,370.906 ZM242.344,370.906 L256.563,370.906 L256.563,387.156 L242.344,387.156 L242.344,370.906 ZM211.844,370.906 L226.063,370.906 L226.063,387.156 L211.844,387.156 L211.844,370.906 ZM180.000,370.906 L195.594,370.906 L195.594,387.156 L180.000,387.156 L180.000,370.906 Z" class="cls-3"/>
  <path d="M972.406,530.156 L972.406,513.906 L988.000,513.906 L988.000,530.156 L972.406,530.156 ZM941.937,513.906 L956.156,513.906 L956.156,530.156 L941.937,530.156 L941.937,513.906 ZM911.437,513.906 L925.656,513.906 L925.656,530.156 L911.437,530.156 L911.437,513.906 ZM880.938,513.906 L895.156,513.906 L895.156,530.156 L880.938,530.156 L880.938,513.906 ZM850.437,513.906 L864.687,513.906 L864.687,530.156 L850.437,530.156 L850.437,513.906 ZM834.187,530.156 L819.969,530.156 L819.969,513.906 L834.187,513.906 L834.187,530.156 ZM789.469,513.906 L803.688,513.906 L803.688,530.156 L789.469,530.156 L789.469,513.906 ZM758.969,513.906 L773.188,513.906 L773.188,530.156 L758.969,530.156 L758.969,513.906 ZM728.469,513.906 L742.719,513.906 L742.719,530.156 L728.469,530.156 L728.469,513.906 ZM698.000,513.906 L712.219,513.906 L712.219,530.156 L698.000,530.156 L698.000,513.906 ZM667.500,513.906 L681.719,513.906 L681.719,530.156 L667.500,530.156 L667.500,513.906 ZM637.000,513.906 L651.219,513.906 L651.219,530.156 L637.000,530.156 L637.000,513.906 Z" class="cls-3"/>
</svg>
