<svg xmlns="http://www.w3.org/2000/svg" xmlns:xlink="http://www.w3.org/1999/xlink" preserveAspectRatio="xMidYMid" width="1447" height="1335" viewBox="0 0 1447 1335">
  <defs>
    <style>
      .cls-1, .cls-3, .cls-5 {
        fill: #aadeed;
      }

      .cls-1, .cls-10, .cls-11, .cls-12, .cls-13, .cls-14, .cls-2, .cls-4, .cls-5, .cls-6, .cls-7, .cls-8, .cls-9 {
        fill-rule: evenodd;
      }

      .cls-2 {
        fill: #90becf;
      }

      .cls-4 {
        fill: #e1f5fe;
      }

      .cls-5 {
        stroke: #2679ab;
        stroke-width: 21px;
      }

      .cls-6 {
        fill: #2679ab;
      }

      .cls-7 {
        fill: #fff;
      }

      .cls-8 {
        fill: #0e5682;
      }

      .cls-9 {
        fill: #fbd359;
      }

      .cls-10 {
        fill: #f2c53c;
      }

      .cls-11 {
        fill: #171c1f;
      }

      .cls-12 {
        fill: #0d1113;
      }

      .cls-13 {
        fill: #185376;
      }

      .cls-14 {
        fill: #80bdcf;
      }
    </style>
  </defs>
  <path d="M372.000,655.000 L406.000,655.000 C409.314,655.000 412.000,657.686 412.000,661.000 C412.000,664.314 409.314,667.000 406.000,667.000 L372.000,667.000 C368.686,667.000 366.000,664.314 366.000,661.000 C366.000,657.686 368.686,655.000 372.000,655.000 Z" class="cls-1"/>
  <path d="M361.000,698.000 L327.000,698.000 C323.686,698.000 321.000,695.314 321.000,692.000 C321.000,688.686 323.686,686.000 327.000,686.000 L361.000,686.000 C364.314,686.000 367.000,688.686 367.000,692.000 C367.000,695.314 364.314,698.000 361.000,698.000 ZM343.500,681.000 C339.910,681.000 337.000,678.090 337.000,674.500 C337.000,670.910 339.910,668.000 343.500,668.000 C347.090,668.000 350.000,670.910 350.000,674.500 C350.000,678.090 347.090,681.000 343.500,681.000 ZM343.500,706.000 C347.090,706.000 350.000,708.910 350.000,712.500 C350.000,716.090 347.090,719.000 343.500,719.000 C339.910,719.000 337.000,716.090 337.000,712.500 C337.000,708.910 339.910,706.000 343.500,706.000 Z" class="cls-1"/>
  <path d="M317.000,644.000 L306.000,644.000 L306.000,655.000 C306.000,658.314 303.314,661.000 300.000,661.000 C296.686,661.000 294.000,658.314 294.000,655.000 L294.000,644.000 L283.000,644.000 C279.686,644.000 277.000,641.314 277.000,638.000 C277.000,634.686 279.686,632.000 283.000,632.000 L294.000,632.000 L294.000,621.000 C294.000,617.686 296.686,615.000 300.000,615.000 C303.314,615.000 306.000,617.686 306.000,621.000 L306.000,632.000 L317.000,632.000 C320.314,632.000 323.000,634.686 323.000,638.000 C323.000,641.314 320.314,644.000 317.000,644.000 Z" class="cls-1"/>
  <path d="M332.382,752.183 L324.691,760.477 L332.024,768.261 C334.296,770.673 334.182,774.470 331.770,776.742 C329.358,779.015 325.560,778.901 323.288,776.489 L316.513,769.296 L309.276,777.101 C307.024,779.529 303.260,779.644 300.870,777.356 C298.479,775.069 298.366,771.246 300.618,768.817 L308.280,760.555 L299.976,751.739 C297.704,749.327 297.818,745.530 300.230,743.258 C302.642,740.985 306.440,741.099 308.712,743.511 L316.458,751.735 L323.724,743.899 C325.976,741.471 329.740,741.356 332.130,743.644 C334.521,745.931 334.634,749.754 332.382,752.183 Z" class="cls-1"/>
  <path d="M474.563,857.379 C472.269,860.338 468.019,860.870 465.072,858.566 L404.542,811.260 L406.198,832.296 C406.456,835.570 404.049,838.439 400.822,838.706 C397.596,838.972 394.771,836.535 394.513,833.261 L392.010,801.471 C391.773,798.458 393.804,795.813 396.644,795.200 L396.883,795.063 C397.590,794.437 398.401,793.976 399.266,793.696 L423.506,779.791 C426.360,778.154 429.996,779.150 431.627,782.015 C433.257,784.880 432.266,788.530 429.412,790.167 L412.203,800.038 L473.381,847.851 C476.329,850.154 476.858,854.420 474.563,857.379 Z" class="cls-1"/>
  <path d="M1045.990,801.471 L1043.487,833.261 C1043.229,836.535 1040.404,838.972 1037.178,838.706 C1033.951,838.439 1031.544,835.570 1031.802,832.296 L1033.458,811.260 L972.928,858.566 C969.981,860.870 965.731,860.338 963.437,857.379 C961.142,854.420 961.671,850.154 964.619,847.851 L1025.797,800.038 L1008.588,790.167 C1005.734,788.530 1004.743,784.880 1006.373,782.015 C1008.004,779.150 1011.640,778.154 1014.494,779.791 L1038.734,793.696 C1039.599,793.976 1040.410,794.437 1041.117,795.063 L1041.356,795.200 C1044.196,795.813 1046.227,798.458 1045.990,801.471 Z" class="cls-2"/>
  <ellipse cx="1073.455" cy="821.563" rx="14.455" ry="14.438" class="cls-3"/>
  <ellipse cx="1139.545" cy="773.438" rx="14.455" ry="14.438" class="cls-3"/>
  <path d="M716.000,821.000 L959.000,673.000 L715.000,520.000 L475.000,672.000 L716.000,821.000 Z" class="cls-4"/>
  <ellipse cx="1080.545" cy="708.438" rx="14.455" ry="14.438" class="cls-3"/>
  <ellipse cx="1137.545" cy="644.438" rx="14.455" ry="14.438" class="cls-3"/>
  <path d="M1078.520,816.401 L1130.240,777.030 L1134.480,782.599 L1082.760,821.970 L1078.520,816.401 Z" class="cls-1"/>
  <path d="M1136.941,760.952 L1092.142,713.747 L1087.059,718.573 L1131.858,765.779 L1136.941,760.952 Z" class="cls-1"/>
  <path d="M1083.997,698.174 L1128.908,650.997 L1134.003,655.820 L1089.092,702.997 L1083.997,698.174 Z" class="cls-1"/>
  <path d="M717.305,811.467 L718.092,1133.000 L474.697,993.511 L479.423,765.759 L717.305,811.467 Z" class="cls-5"/>
  <path d="M716.517,811.467 L717.000,1133.000 L959.125,993.511 L954.399,765.759 L716.517,811.467 Z" class="cls-5"/>
  <path d="M718.880,812.255 L958.337,671.978 L1059.949,735.812 L822.855,868.208 L718.880,812.255 Z" class="cls-6"/>
  <path d="M717.305,809.891 L477.848,669.614 L376.236,733.448 L613.330,865.844 L717.305,809.891 Z" class="cls-6"/>
  <g>
    <path d="M808.464,213.058 C812.125,214.445 813.970,218.540 812.584,222.204 L802.408,249.126 C801.023,252.790 796.932,254.637 793.271,253.250 C789.611,251.863 787.766,247.768 789.151,244.104 L799.327,217.183 C800.713,213.518 804.803,211.671 808.464,213.058 Z" class="cls-7"/>
    <path d="M723.589,190.995 C727.503,190.935 730.724,194.062 730.785,197.980 L731.229,226.760 C731.289,230.678 728.166,233.903 724.252,233.964 C720.338,234.024 717.117,230.897 717.056,226.979 L716.612,198.199 C716.552,194.281 719.675,191.056 723.589,190.995 Z" class="cls-7"/>
    <path d="M887.627,256.864 C890.644,259.360 891.069,263.832 888.576,266.852 L870.259,289.040 C867.766,292.061 863.299,292.486 860.281,289.990 C857.264,287.494 856.839,283.022 859.333,280.002 L877.649,257.813 C880.143,254.793 884.610,254.368 887.627,256.864 Z" class="cls-7"/>
    <path d="M941.510,326.696 C943.341,330.157 942.028,334.467 938.577,336.322 L913.225,349.950 C909.774,351.805 905.492,350.503 903.661,347.041 C901.829,343.580 903.143,339.270 906.594,337.415 L931.945,323.787 C935.396,321.932 939.679,323.234 941.510,326.696 Z" class="cls-7"/>
    <path d="M978.005,411.044 C978.179,414.975 975.134,418.321 971.203,418.518 L942.327,419.961 C938.396,420.158 935.068,417.130 934.894,413.199 C934.719,409.268 937.765,405.922 941.695,405.726 L970.572,404.282 C974.503,404.086 977.830,407.113 978.005,411.044 Z" class="cls-7"/>
    <path d="M976.179,499.528 C975.286,503.390 971.462,505.824 967.638,504.965 L939.542,498.653 C935.718,497.794 933.341,493.967 934.233,490.106 C935.126,486.244 938.949,483.811 942.774,484.670 L970.870,490.981 C974.694,491.840 977.071,495.667 976.179,499.528 Z" class="cls-7"/>
    <path d="M950.973,583.076 C949.134,586.597 944.802,587.992 941.299,586.192 L915.563,572.967 C912.059,571.167 910.711,566.853 912.550,563.332 C914.390,559.811 918.721,558.416 922.224,560.216 L947.961,573.440 C951.464,575.240 952.813,579.554 950.973,583.076 Z" class="cls-7"/>
    <path d="M496.660,331.698 C494.825,335.158 496.141,339.466 499.600,341.321 L525.007,354.942 C528.466,356.797 532.757,355.495 534.592,352.035 C536.428,348.575 535.112,344.267 531.653,342.413 L506.246,328.791 C502.787,326.937 498.496,328.238 496.660,331.698 Z" class="cls-7"/>
    <path d="M468.995,411.146 C468.821,415.075 471.873,418.420 475.812,418.616 L504.752,420.059 C508.691,420.255 512.026,417.229 512.201,413.300 C512.375,409.370 509.323,406.026 505.384,405.829 L476.445,404.386 C472.505,404.190 469.170,407.216 468.995,411.146 Z" class="cls-7"/>
    <path d="M470.825,499.592 C471.720,503.451 475.552,505.884 479.385,505.025 L507.542,498.717 C511.375,497.858 513.757,494.033 512.863,490.173 C511.968,486.313 508.136,483.880 504.303,484.739 L476.146,491.048 C472.313,491.907 469.931,495.732 470.825,499.592 Z" class="cls-7"/>
    <path d="M496.086,583.103 C497.929,586.622 502.270,588.017 505.781,586.217 L531.574,572.999 C535.085,571.199 536.437,566.887 534.593,563.367 C532.750,559.848 528.409,558.453 524.898,560.253 L499.105,573.471 C495.594,575.271 494.242,579.583 496.086,583.103 Z" class="cls-7"/>
    <path d="M554.582,257.008 C551.573,259.512 551.149,263.998 553.636,267.028 L571.903,289.286 C574.389,292.315 578.844,292.742 581.853,290.238 C584.862,287.734 585.286,283.248 582.799,280.218 L564.533,257.961 C562.046,254.931 557.591,254.504 554.582,257.008 Z" class="cls-7"/>
    <path d="M631.920,212.866 C628.267,214.247 626.426,218.326 627.808,221.976 L637.964,248.789 C639.346,252.439 643.428,254.278 647.081,252.897 C650.734,251.516 652.575,247.438 651.193,243.788 L641.038,216.974 C639.655,213.324 635.573,211.485 631.920,212.866 Z" class="cls-7"/>
  </g>
  <path d="M718.880,531.701 L958.337,671.978 L1059.949,608.144 L822.855,475.748 L718.880,531.701 Z" class="cls-6"/>
  <path d="M377.398,614.451 L615.789,472.368 L717.880,535.431 L481.793,669.616 L377.398,614.451 Z" class="cls-6"/>
  <path d="M378.117,614.830 L379.061,613.460 L615.789,472.368 L652.180,494.847 L629.000,584.000 L378.355,614.956 L378.117,614.830 Z" class="cls-8"/>
  <path d="M808.753,577.239 L785.605,487.944 L821.945,465.429 L1058.347,606.745 L1059.290,608.118 L1059.052,608.244 L808.753,577.239 Z" class="cls-8"/>
  <path d="M828.518,551.836 C809.823,585.709 788.196,631.787 788.196,631.787 L644.837,639.667 C645.293,611.862 623.613,575.357 605.252,549.518 C575.254,520.186 556.625,479.265 556.625,433.984 C556.625,344.765 628.917,272.438 718.094,272.438 C807.270,272.438 879.563,344.765 879.563,433.984 C879.563,480.470 859.930,522.362 828.518,551.836 Z" class="cls-9"/>
  <path d="M721.000,635.480 L644.837,639.667 C645.293,611.862 623.613,575.357 605.252,549.518 C575.254,520.186 556.625,479.265 556.625,433.984 C556.625,344.765 628.917,272.438 718.094,272.438 C719.065,272.438 720.032,272.457 721.000,272.474 L721.000,635.480 Z" class="cls-10"/>
  <path d="M794.101,691.688 L642.867,691.688 C634.380,691.688 627.500,684.807 627.500,676.320 L627.500,676.305 C627.500,667.818 634.380,660.938 642.867,660.938 L794.101,660.938 C802.589,660.938 809.469,667.818 809.469,676.305 L809.469,676.320 C809.469,684.807 802.589,691.688 794.101,691.688 ZM794.109,650.688 L642.859,650.688 C634.377,650.688 627.500,643.811 627.500,635.328 C627.500,626.845 634.377,619.969 642.859,619.969 L794.109,619.969 C802.592,619.969 809.469,626.845 809.469,635.328 C809.469,643.811 802.592,650.688 794.109,650.688 ZM674.396,718.469 L763.385,718.469 C769.696,718.469 774.812,723.585 774.812,729.896 L774.812,729.917 C774.812,736.228 769.696,741.344 763.385,741.344 L674.396,741.344 C668.085,741.344 662.969,736.228 662.969,729.917 L662.969,729.896 C662.969,723.585 668.085,718.469 674.396,718.469 Z" class="cls-11"/>
  <path d="M627.500,676.305 C627.500,667.818 634.380,660.937 642.867,660.937 L721.000,660.937 C721.000,671.009 721.000,681.478 721.000,691.688 L642.867,691.688 C634.380,691.688 627.500,684.807 627.500,676.320 L627.500,676.305 ZM662.969,729.917 L662.969,729.896 C662.969,723.585 668.085,718.469 674.396,718.469 L721.000,718.469 C721.000,727.021 721.000,734.822 721.000,741.344 L674.396,741.344 C668.085,741.344 662.969,736.228 662.969,729.917 ZM721.000,650.687 L642.859,650.687 C634.377,650.687 627.500,643.811 627.500,635.328 C627.500,626.845 634.377,619.969 642.859,619.969 L721.000,619.969 C721.000,628.608 721.000,639.210 721.000,650.687 Z" class="cls-12"/>
  <path d="M688.160,619.177 L661.379,488.358 L677.133,493.874 L691.311,482.841 L725.182,498.602 L751.175,485.993 L756.689,497.814 L775.594,494.662 L748.812,623.118 L773.230,621.542 L805.526,458.411 L773.230,468.656 L744.086,448.954 L721.243,475.748 L694.462,452.106 L671.619,471.020 L636.173,456.047 L668.468,627.846 L688.160,619.177 Z" class="cls-11"/>
  <path d="M722.000,497.122 L691.311,482.841 L677.133,493.874 L661.379,488.358 L688.160,619.177 L668.468,627.846 L636.173,456.047 L671.619,471.020 L694.462,452.106 L721.243,475.748 L722.000,474.861 L722.000,497.122 Z" class="cls-12"/>
  <path d="M713.344,1106.094 C719.266,1107.951 713.522,965.081 622.460,951.521 C610.041,945.793 620.325,908.025 552.344,914.166 C549.929,901.169 523.041,851.952 473.344,890.175 C473.344,890.175 436.607,842.402 403.576,872.154 C356.824,914.264 406.417,980.499 463.344,980.142 C463.344,980.142 436.458,1031.128 509.344,1034.121 C509.344,1034.121 503.802,1093.629 573.344,1088.101 C642.886,1082.573 674.974,1094.064 713.344,1106.094 Z" class="cls-6"/>
  <path d="M715.208,1106.996 C709.321,1108.960 712.504,965.883 803.309,950.684 C815.623,944.729 804.665,907.118 872.745,912.048 C874.927,898.998 900.929,849.264 951.303,886.627 C951.303,886.627 987.178,838.162 1020.736,867.344 C1068.236,908.650 1019.837,975.820 962.913,976.480 C962.913,976.480 990.707,1027.024 917.887,1031.322 C917.887,1031.322 924.493,1090.775 854.864,1086.486 C785.234,1082.198 753.357,1094.271 715.208,1106.996 Z" class="cls-6"/>
  <path d="M713.000,1134.000 C718.922,1135.857 713.178,992.934 622.116,979.369 C609.697,973.638 619.981,935.856 552.000,942.000 C549.585,928.997 522.698,879.762 473.000,918.000 C473.000,918.000 436.264,870.209 403.233,899.972 C356.480,942.098 406.073,1008.357 463.000,1008.000 C463.000,1008.000 436.115,1059.006 509.000,1062.000 C509.000,1062.000 503.458,1121.530 573.000,1116.000 C642.542,1110.470 674.630,1121.965 713.000,1134.000 Z" class="cls-13"/>
  <path d="M714.865,1134.902 C708.977,1136.867 712.161,993.736 802.965,978.531 C815.280,972.574 804.321,934.949 872.401,939.881 C874.583,926.826 900.585,877.073 950.959,914.450 C950.959,914.450 986.834,865.967 1020.392,895.160 C1067.892,936.482 1019.493,1003.677 962.569,1004.338 C962.569,1004.338 990.363,1054.900 917.543,1059.200 C917.543,1059.200 924.150,1118.675 854.520,1114.385 C784.890,1110.095 753.013,1122.172 714.865,1134.902 Z" class="cls-13"/>
  <path d="M651.781,466.156 L651.781,449.906 L666.000,449.906 L666.000,466.156 L651.781,466.156 ZM621.281,449.906 L635.500,449.906 L635.500,466.156 L621.281,466.156 L621.281,449.906 ZM590.781,449.906 L605.000,449.906 L605.000,466.156 L590.781,466.156 L590.781,449.906 ZM560.281,449.906 L574.531,449.906 L574.531,466.156 L560.281,466.156 L560.281,449.906 ZM529.812,449.906 L544.031,449.906 L544.031,466.156 L529.812,466.156 L529.812,449.906 ZM499.312,449.906 L513.531,449.906 L513.531,466.156 L499.312,466.156 L499.312,449.906 ZM468.813,449.906 L483.031,449.906 L483.031,466.156 L468.813,466.156 L468.813,449.906 ZM452.563,466.156 L438.313,466.156 L438.313,449.906 L452.563,449.906 L452.563,466.156 ZM407.844,449.906 L422.062,449.906 L422.062,466.156 L407.844,466.156 L407.844,449.906 ZM377.344,449.906 L391.563,449.906 L391.563,466.156 L377.344,466.156 L377.344,449.906 ZM346.844,449.906 L361.063,449.906 L361.063,466.156 L346.844,466.156 L346.844,449.906 ZM315.000,449.906 L330.594,449.906 L330.594,466.156 L315.000,466.156 L315.000,449.906 Z" class="cls-14"/>
  <path d="M1107.406,609.156 L1107.406,592.906 L1123.000,592.906 L1123.000,609.156 L1107.406,609.156 ZM1076.937,592.906 L1091.156,592.906 L1091.156,609.156 L1076.937,609.156 L1076.937,592.906 ZM1046.437,592.906 L1060.656,592.906 L1060.656,609.156 L1046.437,609.156 L1046.437,592.906 ZM1015.938,592.906 L1030.156,592.906 L1030.156,609.156 L1015.938,609.156 L1015.938,592.906 ZM985.437,592.906 L999.687,592.906 L999.687,609.156 L985.437,609.156 L985.437,592.906 ZM969.187,609.156 L954.969,609.156 L954.969,592.906 L969.187,592.906 L969.187,609.156 ZM924.469,592.906 L938.688,592.906 L938.688,609.156 L924.469,609.156 L924.469,592.906 ZM893.969,592.906 L908.188,592.906 L908.188,609.156 L893.969,609.156 L893.969,592.906 ZM863.469,592.906 L877.719,592.906 L877.719,609.156 L863.469,609.156 L863.469,592.906 ZM833.000,592.906 L847.219,592.906 L847.219,609.156 L833.000,609.156 L833.000,592.906 ZM802.500,592.906 L816.719,592.906 L816.719,609.156 L802.500,609.156 L802.500,592.906 ZM772.000,592.906 L786.219,592.906 L786.219,609.156 L772.000,609.156 L772.000,592.906 Z" class="cls-14"/>
</svg>
