<svg xmlns="http://www.w3.org/2000/svg" xmlns:xlink="http://www.w3.org/1999/xlink" preserveAspectRatio="xMidYMid" width="1339" height="1188" viewBox="0 0 1339 1188">
  <defs>
    <style>
      .cls-1 {
        fill: #ece9e9;
        stroke: #377293;
        stroke-width: 35px;
      }

      .cls-2 {
        fill: #81c5d9;
      }

      .cls-11, .cls-12, .cls-13, .cls-14, .cls-15, .cls-18, .cls-19, .cls-2, .cls-20, .cls-3, .cls-4, .cls-5, .cls-6, .cls-7, .cls-8, .cls-9 {
        fill-rule: evenodd;
      }

      .cls-3 {
        fill: #2679ab;
      }

      .cls-22, .cls-4 {
        fill: #0e5682;
      }

      .cls-21, .cls-5 {
        fill: #2c5972;
      }

      .cls-16, .cls-6 {
        fill: #fff;
      }

      .cls-7 {
        fill: #2c5871;
      }

      .cls-8 {
        fill: #34aace;
      }

      .cls-17, .cls-9 {
        fill: #a6dbeb;
      }

      .cls-10 {
        fill: #4c5e74;
      }

      .cls-11 {
        fill: #f296b2;
      }

      .cls-12 {
        fill: #ff3070;
      }

      .cls-13 {
        fill: #a3def0;
      }

      .cls-14 {
        fill: #1fb5e1;
      }

      .cls-15 {
        fill: #aadeed;
      }

      .cls-18 {
        fill: #19b1bf;
      }

      .cls-19 {
        fill: #80bdcf;
      }

      .cls-20 {
        fill: #1ab1bf;
      }

      .cls-23 {
        fill: #185376;
      }
    </style>
  </defs>
  <g>
    <rect x="254" y="316" width="729" height="513" rx="19.783" ry="19.783" class="cls-1"/>
    <path d="M286.000,345.000 L951.000,345.000 L951.000,728.000 L288.000,730.000 L286.000,345.000 Z" class="cls-2"/>
    <path d="M286.000,563.000 C286.000,563.000 339.205,553.997 376.000,598.000 C376.000,598.000 433.318,572.570 476.000,624.000 C476.000,624.000 519.036,608.997 541.000,626.000 C541.000,626.000 558.022,603.339 587.000,616.000 C587.000,616.000 593.635,605.401 602.000,603.000 C610.364,600.599 649.159,587.339 665.000,608.000 C663.957,606.823 693.173,608.738 707.089,626.972 C707.089,626.972 766.763,591.064 808.000,632.000 C808.000,632.000 850.994,583.339 905.000,606.000 C905.000,606.000 932.712,554.429 968.000,556.000 L966.000,749.000 L288.000,744.000 L286.000,563.000 Z" class="cls-3"/>
    <path d="M286.000,629.000 C286.000,629.000 339.205,626.815 376.000,653.258 C376.000,653.258 433.318,637.976 476.000,668.883 C476.000,668.883 519.036,659.867 541.000,670.084 C541.000,670.084 558.022,656.467 587.000,664.075 C587.000,664.075 596.264,662.519 602.000,656.263 C610.316,647.192 649.135,643.181 665.000,659.268 C663.957,658.560 693.173,659.711 707.089,670.669 C707.089,670.669 766.763,649.090 808.000,673.690 C808.000,673.690 850.994,644.448 905.000,658.066 C905.000,658.066 932.712,627.075 968.000,628.019 L964.000,800.000 L286.000,794.000 L286.000,629.000 Z" class="cls-4"/>
  </g>
  <g>
    <path d="M592.000,557.000 L599.000,611.000 C599.000,611.000 612.184,663.846 624.000,664.000 C636.669,664.165 648.028,611.588 648.000,610.000 C647.946,606.931 653.000,551.000 653.000,551.000 L592.000,557.000 Z" class="cls-3"/>
    <path d="M562.000,479.000 C562.000,479.000 508.097,522.111 482.000,560.000 L482.000,413.000 C482.000,413.000 514.530,383.705 525.395,383.585 C537.254,383.454 562.189,479.046 562.000,479.000 Z" class="cls-5"/>
    <path d="M473.500,397.000 C480.956,397.000 487.000,403.044 487.000,410.500 L487.000,561.500 C487.000,568.956 480.956,575.000 473.500,575.000 C466.044,575.000 460.000,568.956 460.000,561.500 L460.000,410.500 C460.000,403.044 466.044,397.000 473.500,397.000 Z" class="cls-6"/>
    <path d="M681.000,479.204 C681.000,479.204 734.902,522.224 761.000,560.032 L761.000,413.344 C761.000,413.344 728.470,384.111 717.605,383.991 C705.746,383.860 680.811,479.250 681.000,479.204 Z" class="cls-5"/>
    <path d="M769.500,397.378 C762.044,397.378 756.000,403.409 756.000,410.849 L756.000,561.529 C756.000,568.969 762.044,575.000 769.500,575.000 C776.956,575.000 783.000,568.969 783.000,561.529 L783.000,410.849 C783.000,403.409 776.956,397.378 769.500,397.378 Z" class="cls-6"/>
    <path d="M578.000,501.000 C578.000,501.000 570.939,549.135 572.000,551.000 C573.061,552.865 612.718,582.399 672.000,551.000 L660.000,494.000 L578.000,501.000 Z" class="cls-7"/>
    <path d="M620.000,63.000 L620.000,531.000 C611.374,555.559 381.014,353.967 620.000,63.000 Z" class="cls-8"/>
    <path d="M620.000,63.000 L620.000,531.000 C628.614,555.559 858.641,353.967 620.000,63.000 Z" class="cls-9"/>
    <circle cx="622.5" cy="248.5" r="51.5" class="cls-10"/>
    <path d="M644.804,213.926 L600.173,282.701 C588.657,275.442 581.000,262.619 581.000,248.000 C581.000,225.356 599.356,207.000 622.000,207.000 C630.441,207.000 638.284,209.553 644.804,213.926 Z" class="cls-11"/>
    <path d="M642.266,212.364 C654.646,219.420 663.000,232.730 663.000,248.000 C663.000,270.644 644.644,289.000 622.000,289.000 C613.376,289.000 605.378,286.331 598.774,281.783 L642.266,212.364 Z" class="cls-12"/>
  </g>
  <g>
    <path d="M1083.247,1113.508 L1119.215,1096.176 C1120.094,1095.752 1121.154,1096.121 1121.584,1096.999 L1129.822,1113.858 C1130.251,1114.736 1129.887,1115.792 1129.008,1116.215 L1093.041,1133.548 C1092.162,1133.971 1091.101,1133.602 1090.672,1132.724 L1082.433,1115.865 C1082.004,1114.987 1082.368,1113.931 1083.247,1113.508 Z" class="cls-13"/>
    <path d="M1116.337,1100.038 C1117.117,1099.662 1118.057,1099.986 1118.435,1100.760 L1119.806,1103.566 C1120.185,1104.341 1119.859,1105.274 1119.079,1105.649 C1118.299,1106.025 1117.359,1105.702 1116.981,1104.927 L1115.610,1102.122 C1115.231,1101.347 1115.557,1100.414 1116.337,1100.038 Z" class="cls-4"/>
    <path d="M1121.429,1110.459 C1122.209,1110.083 1123.149,1110.406 1123.527,1111.181 L1124.899,1113.987 C1125.277,1114.761 1124.952,1115.694 1124.171,1116.070 C1123.391,1116.446 1122.452,1116.123 1122.073,1115.348 L1120.702,1112.542 C1120.324,1111.768 1120.649,1110.835 1121.429,1110.459 Z" class="cls-4"/>
    <path d="M1124.848,1103.679 L1129.822,1113.858 C1130.251,1114.736 1129.887,1115.792 1129.008,1116.215 L1093.041,1133.548 C1092.162,1133.971 1091.101,1133.602 1090.672,1132.724 L1085.698,1122.545 L1124.848,1103.679 Z" class="cls-6"/>
    <path d="M1055.261,1123.528 L1100.869,1101.550 C1101.984,1101.013 1103.326,1101.475 1103.867,1102.581 L1114.247,1123.824 C1114.788,1124.930 1114.323,1126.263 1113.208,1126.800 L1067.600,1148.778 C1066.486,1149.315 1065.144,1148.853 1064.603,1147.747 L1054.222,1126.504 C1053.681,1125.398 1054.146,1124.065 1055.261,1123.528 Z" class="cls-3"/>
    <path d="M1107.980,1110.998 L1114.247,1123.824 C1114.788,1124.930 1114.323,1126.263 1113.208,1126.800 L1067.600,1148.778 C1066.486,1149.315 1065.144,1148.853 1064.603,1147.747 L1058.335,1134.921 L1107.980,1110.998 Z" class="cls-4"/>
  </g>
  <g>
    <path d="M1029.000,912.000 L1144.000,912.000 C1152.284,912.000 1159.000,918.716 1159.000,927.000 L1159.000,1064.000 C1159.000,1072.284 1152.284,1079.000 1144.000,1079.000 L1029.000,1079.000 C1020.716,1079.000 1014.000,1072.284 1014.000,1064.000 L1014.000,927.000 C1014.000,918.716 1020.716,912.000 1029.000,912.000 Z" class="cls-14"/>
    <path d="M1158.699,916.890 C1158.895,917.904 1159.000,918.953 1159.000,920.027 L1159.000,1063.312 C1159.000,1071.976 1152.284,1079.000 1144.000,1079.000 L1029.000,1079.000 C1020.716,1079.000 1014.000,1071.976 1014.000,1063.312 L1014.000,920.027 C1014.000,918.953 1014.104,917.904 1014.301,916.890 L1158.699,916.890 Z" class="cls-15"/>
    <path d="M1091.000,1079.000 L1029.000,1079.000 C1020.716,1079.000 1014.000,1071.976 1014.000,1063.312 L1014.000,920.027 C1014.000,918.953 1014.104,917.904 1014.301,916.890 L1091.000,916.890 L1091.000,1079.000 Z" class="cls-8"/>
    <path d="M1157.000,1045.091 L1157.000,1030.659 C1175.174,1028.170 1189.125,1011.592 1188.991,991.495 C1188.857,971.592 1174.955,955.135 1157.000,952.403 L1157.000,937.523 C1182.158,940.627 1201.834,963.494 1202.019,991.259 C1202.205,1019.289 1182.466,1042.340 1157.000,1045.091 Z" class="cls-15"/>
    <path d="M1124.000,926.000 C1126.039,934.279 1127.874,965.691 1121.000,980.000 C1114.125,994.309 1105.040,983.926 1098.000,976.000 C1090.960,968.074 1092.062,943.020 1088.000,938.000 C1083.937,932.980 1075.799,937.270 1073.000,942.000 C1070.201,946.730 1071.856,955.177 1066.000,965.000 C1060.143,974.823 1053.786,965.527 1050.000,961.000 C1046.214,956.473 1046.000,917.000 1046.000,917.000 L1046.024,916.890 L1122.235,916.890 C1122.479,918.855 1122.979,921.856 1124.000,926.000 Z" class="cls-5"/>
  </g>
  <g>
    <path d="M1282.000,457.000 L1290.000,457.000 C1292.761,457.000 1295.000,459.238 1295.000,462.000 L1295.000,482.000 C1295.000,484.761 1292.761,487.000 1290.000,487.000 L1282.000,487.000 C1279.238,487.000 1277.000,484.761 1277.000,482.000 L1277.000,462.000 C1277.000,459.238 1279.238,457.000 1282.000,457.000 Z" class="cls-12"/>
    <path d="M973.500,469.000 L975.500,469.000 C976.881,469.000 978.000,470.119 978.000,471.500 C978.000,472.881 976.881,474.000 975.500,474.000 L973.500,474.000 C972.119,474.000 971.000,472.881 971.000,471.500 C971.000,470.119 972.119,469.000 973.500,469.000 Z" class="cls-12"/>
    <rect x="1268" y="456" width="12" height="32" class="cls-16"/>
    <rect x="997" y="456" width="279" height="32" class="cls-17"/>
    <path d="M997.000,456.000 L977.000,469.000 L977.000,474.000 L997.000,487.000 L997.000,456.000 Z" class="cls-6"/>
    <path d="M997.000,472.000 L1276.000,472.000 L1276.000,488.000 L997.000,488.000 L997.000,472.000 Z" class="cls-18"/>
  </g>
  <path d="M1088.723,671.000 L1075.715,671.000 C1075.884,665.851 1076.000,660.690 1076.000,655.500 C1076.000,655.037 1075.985,654.578 1075.983,654.115 L1088.972,653.182 C1088.976,653.956 1089.000,654.725 1089.000,655.500 C1089.000,660.689 1088.887,665.851 1088.723,671.000 ZM1073.897,611.519 L1086.758,609.457 C1087.571,617.966 1088.186,626.533 1088.548,635.166 L1075.574,636.098 C1075.235,627.846 1074.659,619.655 1073.897,611.519 ZM1069.357,577.107 L1082.042,574.139 C1083.031,579.912 1083.941,585.712 1084.721,591.553 L1071.878,593.613 C1071.143,588.077 1070.285,582.580 1069.357,577.107 ZM1063.062,546.456 L1075.528,542.689 C1076.631,547.252 1077.692,551.831 1078.663,556.444 L1065.999,559.406 C1065.087,555.064 1064.093,550.753 1063.062,546.456 ZM1053.951,513.864 L1066.130,509.251 C1067.829,514.550 1069.451,519.884 1070.969,525.263 L1058.520,529.024 C1057.086,523.933 1055.553,518.883 1053.951,513.864 ZM1041.899,480.568 L1053.707,475.098 C1056.009,480.750 1058.214,486.452 1060.304,492.209 L1048.144,496.816 C1046.163,491.351 1044.077,485.936 1041.899,480.568 ZM1023.792,441.354 L1035.076,434.876 C1039.121,442.649 1042.971,450.540 1046.596,458.555 L1034.798,464.020 C1031.332,456.350 1027.654,448.796 1023.792,441.354 ZM1006.448,410.848 L1017.243,403.590 C1020.406,408.688 1023.487,413.843 1026.461,419.067 L1015.186,425.539 C1012.365,420.582 1009.444,415.689 1006.448,410.848 ZM988.930,384.561 L999.238,376.634 C1002.040,380.536 1004.790,384.478 1007.476,388.466 L996.689,395.719 C994.156,391.960 991.568,388.241 988.930,384.561 ZM964.569,353.461 L974.215,344.740 C979.096,350.451 983.852,356.273 988.464,362.212 L978.160,370.136 C973.759,364.470 969.222,358.914 964.569,353.461 ZM939.948,984.201 C944.415,979.722 948.809,975.170 953.092,970.513 L963.431,978.462 C958.926,983.384 954.303,988.195 949.599,992.925 L939.948,984.201 ZM940.399,327.269 L949.394,317.880 C953.763,322.269 958.068,326.723 962.265,331.278 L952.624,339.995 C948.636,335.670 944.547,331.440 940.399,327.269 ZM915.671,1006.838 C919.484,1003.521 923.260,1000.162 926.963,996.724 L936.637,1005.469 C932.715,1009.128 928.714,1012.703 924.670,1016.230 L915.671,1006.838 ZM908.394,297.960 L916.535,287.824 C923.333,293.494 929.987,299.331 936.459,305.363 L927.466,314.749 C921.269,308.978 914.899,303.391 908.394,297.960 ZM880.540,276.441 L887.942,265.758 C892.862,269.270 897.717,272.867 902.496,276.559 L894.355,286.694 C889.817,283.193 885.209,279.777 880.540,276.441 ZM857.388,1050.049 C861.453,1047.497 865.478,1044.889 869.458,1042.217 L877.625,1052.383 C873.398,1055.237 869.121,1058.023 864.799,1060.744 L857.388,1050.049 ZM854.182,258.945 L860.892,247.807 C865.001,250.339 869.070,252.929 873.095,255.580 L865.690,266.268 C861.893,263.771 858.055,261.333 854.182,258.945 ZM832.332,1064.691 C835.551,1062.940 838.753,1061.160 841.926,1059.336 L849.354,1070.055 C845.946,1072.025 842.507,1073.946 839.047,1075.835 L832.332,1064.691 ZM824.499,242.132 L830.428,230.561 C835.466,233.178 840.457,235.873 845.388,238.662 L838.676,249.801 C834.002,247.163 829.272,244.612 824.499,242.132 ZM804.451,1078.646 C808.436,1076.813 812.400,1074.941 816.324,1073.000 L823.056,1084.170 C818.869,1086.253 814.638,1088.257 810.383,1090.220 L804.451,1078.646 ZM792.306,226.972 L797.392,215.005 C803.081,217.426 808.726,219.933 814.299,222.567 L808.367,234.143 C803.071,231.648 797.709,229.271 792.306,226.972 ZM779.628,1103.090 L774.539,1091.119 C779.029,1089.423 783.496,1087.682 787.919,1085.853 L793.867,1097.457 C789.162,1099.415 784.408,1101.279 779.628,1103.090 ZM751.759,211.917 L755.781,199.555 C764.188,202.239 772.497,205.144 780.695,208.273 L775.606,220.247 C767.757,217.262 759.805,214.484 751.759,211.917 ZM718.011,202.583 L721.149,189.965 C726.979,191.351 732.781,192.811 738.527,194.409 L734.500,206.786 C729.047,205.277 723.542,203.897 718.011,202.583 ZM723.855,1120.388 C719.143,1121.539 714.394,1122.593 709.628,1123.603 L706.489,1110.982 C710.954,1110.041 715.404,1109.059 719.821,1107.991 L723.855,1120.388 ZM687.214,196.345 L689.544,183.548 C694.239,184.333 698.912,185.185 703.560,186.106 L700.418,198.741 C696.038,197.880 691.636,197.083 687.214,196.345 ZM644.566,191.246 L645.574,178.285 C654.363,178.922 663.079,179.814 671.725,180.925 L669.393,193.735 C661.182,192.691 652.908,191.850 644.566,191.246 ZM610.500,190.000 C608.661,190.000 606.834,190.048 605.000,190.070 L605.000,177.070 C606.834,177.049 608.661,177.000 610.500,177.000 C616.225,177.000 621.917,177.137 627.594,177.336 L626.585,190.307 C621.243,190.125 615.886,190.000 610.500,190.000 ZM564.610,179.198 C572.026,178.493 579.488,177.943 587.000,177.580 L587.000,190.588 C579.826,190.945 572.700,191.480 565.616,192.158 L564.610,179.198 ZM509.497,187.763 C521.748,185.121 534.168,182.933 546.753,181.258 L547.761,194.232 C535.623,195.867 523.644,197.993 511.827,200.552 L509.497,187.763 ZM432.566,225.323 C425.163,228.393 417.849,231.632 410.645,235.067 L405.556,223.097 C413.106,219.508 420.771,216.126 428.532,212.927 L432.566,225.323 ZM406.652,1088.418 C402.400,1086.410 398.170,1084.363 393.987,1082.235 L399.914,1070.670 C403.820,1072.657 407.769,1074.571 411.738,1076.451 L406.652,1088.418 ZM374.269,239.397 C379.260,236.555 384.325,233.828 389.427,231.162 L394.526,243.159 C389.707,245.691 384.920,248.278 380.202,250.972 L374.269,239.397 ZM378.101,1073.766 C374.400,1071.702 370.727,1069.594 367.087,1067.436 L373.793,1056.306 C377.178,1058.311 380.590,1060.275 384.030,1062.197 L378.101,1073.766 ZM345.635,257.064 C349.963,254.179 354.347,251.370 358.773,248.624 L364.719,260.226 C360.553,262.824 356.426,265.480 352.349,268.205 L345.635,257.064 ZM358.490,1046.825 L351.782,1057.959 C348.858,1056.074 345.949,1054.168 343.069,1052.221 L350.469,1041.540 C353.121,1043.332 355.799,1045.087 358.490,1046.825 ZM320.367,275.113 C323.814,272.478 327.304,269.899 330.824,267.357 L337.554,278.526 C334.265,280.914 331.000,283.333 327.776,285.804 L320.367,275.113 ZM335.758,1031.167 L328.355,1041.852 C324.693,1039.171 321.063,1036.450 317.481,1033.668 L325.618,1023.537 C328.959,1026.129 332.345,1028.665 335.758,1031.167 ZM293.812,296.958 C297.894,293.347 302.044,289.811 306.249,286.339 L313.678,297.059 C309.718,300.345 305.806,303.686 301.959,307.099 L293.812,296.958 ZM272.463,335.637 L263.463,326.245 C269.003,320.404 274.706,314.721 280.532,309.166 L288.699,319.331 C283.160,324.638 277.735,330.064 272.463,335.637 ZM241.178,959.611 L251.483,951.686 C254.989,955.932 258.592,960.094 262.244,964.212 L252.606,972.926 C248.725,968.551 244.899,964.127 241.178,959.611 ZM240.646,352.075 C244.122,347.840 247.693,343.687 251.310,339.576 L260.333,348.992 C256.931,352.878 253.570,356.800 250.297,360.799 L240.646,352.075 ZM223.719,937.113 L234.511,929.857 C236.409,932.456 238.341,935.028 240.292,937.586 L229.991,945.507 C227.872,942.731 225.778,939.936 223.719,937.113 ZM217.690,382.400 C221.502,376.923 225.433,371.535 229.465,366.229 L239.140,374.974 C235.328,380.015 231.613,385.132 228.004,390.330 L217.690,382.400 ZM211.963,415.049 L201.164,407.790 C203.284,404.293 205.453,400.828 207.660,397.390 L218.003,405.342 C215.953,408.553 213.935,411.785 211.963,415.049 ZM196.068,443.540 L184.781,437.062 C187.148,432.458 189.593,427.901 192.103,423.384 L202.928,430.660 C200.577,434.914 198.288,439.206 196.068,443.540 ZM179.369,479.899 L167.560,474.429 C170.484,467.281 173.580,460.222 176.835,453.252 L188.154,459.748 C185.074,466.383 182.140,473.099 179.369,479.899 ZM168.106,510.591 L155.936,505.982 C157.562,501.034 159.276,496.126 161.058,491.251 L172.898,496.735 C171.234,501.322 169.629,505.938 168.106,510.591 ZM159.396,540.517 L146.940,536.753 C148.099,532.212 149.344,527.705 150.632,523.216 L162.832,527.837 C161.635,532.042 160.477,536.264 159.396,540.517 ZM153.175,568.598 L140.505,565.635 C141.226,561.841 142.007,558.069 142.817,554.307 L155.301,558.078 C154.557,561.572 153.840,565.076 153.175,568.598 ZM148.323,600.079 L135.477,598.020 C136.063,593.124 136.749,588.259 137.482,583.409 L150.181,586.379 C149.504,590.927 148.868,595.489 148.323,600.079 ZM145.317,639.046 L132.343,638.114 C132.608,630.682 133.046,623.294 133.647,615.952 L146.522,618.016 C145.967,624.984 145.562,631.995 145.317,639.046 ZM145.284,671.000 L132.277,671.000 C132.120,666.060 132.015,661.108 132.006,656.132 L145.016,657.066 C145.036,661.727 145.133,666.371 145.284,671.000 ZM147.399,702.769 L134.433,703.700 C133.945,698.818 133.502,693.924 133.162,689.000 L146.190,689.000 C146.518,693.611 146.938,698.196 147.399,702.769 ZM152.852,740.984 L140.018,743.042 C138.706,735.945 137.537,728.798 136.542,721.595 L149.535,720.661 C150.491,727.485 151.604,734.259 152.852,740.984 ZM159.593,771.442 L146.934,774.404 C145.771,769.857 144.652,765.293 143.621,760.695 L156.480,758.633 C157.452,762.928 158.504,767.193 159.593,771.442 ZM167.366,798.306 L154.924,802.066 C153.825,798.648 152.751,795.219 151.727,791.768 L164.406,788.802 C165.356,791.986 166.350,795.151 167.366,798.306 ZM177.540,826.629 L165.384,831.234 C163.796,827.215 162.244,823.177 160.763,819.105 L173.225,815.340 C174.610,819.129 176.059,822.887 177.540,826.629 ZM190.054,855.363 L178.259,860.828 C176.217,856.538 174.230,852.217 172.314,847.857 L184.485,843.246 C186.282,847.318 188.145,851.354 190.054,855.363 ZM207.814,889.021 L196.540,895.493 C192.996,889.392 189.580,883.207 186.302,876.939 L198.108,871.470 C201.219,877.398 204.459,883.247 207.814,889.021 ZM224.166,915.123 L213.384,922.371 C210.832,918.580 208.330,914.752 205.884,910.884 L217.165,904.408 C219.450,908.014 221.784,911.585 224.166,915.123 ZM283.635,986.769 L274.648,996.150 C271.320,992.867 268.022,989.554 264.791,986.175 L274.433,977.458 C277.451,980.610 280.530,983.703 283.635,986.769 ZM311.610,1012.233 L303.474,1022.363 C298.115,1017.871 292.844,1013.276 287.688,1008.557 L296.679,999.173 C301.559,1003.634 306.543,1007.981 311.610,1012.233 ZM446.720,1091.286 L442.695,1103.657 C436.085,1101.176 429.536,1098.571 423.068,1095.811 L428.151,1083.850 C434.272,1086.463 440.468,1088.932 446.720,1091.286 ZM461.505,200.755 L464.651,213.400 C459.513,215.098 454.410,216.872 449.353,218.742 L445.328,206.376 C450.675,204.406 456.071,202.538 461.505,200.755 ZM475.974,1101.187 L472.835,1113.808 C468.422,1112.482 464.028,1111.112 459.670,1109.663 L463.691,1097.305 C467.759,1098.658 471.857,1099.943 475.974,1101.187 ZM494.289,204.714 C490.130,205.786 485.988,206.897 481.875,208.080 L478.737,195.462 C483.115,194.207 487.526,193.031 491.954,191.898 L494.289,204.714 ZM502.847,1108.402 L500.517,1121.201 C497.058,1120.383 493.608,1119.543 490.179,1118.652 L493.315,1106.042 C496.478,1106.864 499.659,1107.643 502.847,1108.402 ZM554.444,1117.636 L553.436,1130.601 C541.517,1129.185 529.745,1127.301 518.119,1125.012 L520.446,1112.228 C531.640,1114.437 542.972,1116.259 554.444,1117.636 ZM587.000,1120.412 L587.000,1133.420 C581.758,1133.167 576.548,1132.798 571.352,1132.377 L572.359,1119.426 C577.221,1119.821 582.097,1120.168 587.000,1120.412 ZM619.710,1120.883 L620.718,1133.871 C617.319,1133.942 613.916,1134.000 610.500,1134.000 C608.661,1134.000 606.834,1133.951 605.000,1133.930 L605.000,1120.930 C606.834,1120.952 608.661,1121.000 610.500,1121.000 C613.579,1121.000 616.645,1120.943 619.710,1120.883 ZM663.010,1131.098 C654.958,1131.983 646.849,1132.677 638.679,1133.152 L637.672,1120.190 C645.395,1119.746 653.061,1119.098 660.675,1118.275 L663.010,1131.098 ZM762.650,1109.160 C755.601,1111.530 748.476,1113.735 741.285,1115.783 L737.259,1103.411 C744.086,1101.475 750.854,1099.396 757.550,1097.161 L762.650,1109.160 ZM688.784,1114.374 L691.932,1127.026 C688.265,1127.659 684.580,1128.240 680.885,1128.789 L678.554,1115.991 C681.976,1115.486 685.388,1114.953 688.784,1114.374 ZM910.859,1027.830 C904.823,1032.708 898.654,1037.427 892.381,1042.013 L884.234,1031.872 C890.206,1027.518 896.084,1023.041 901.836,1018.414 L910.859,1027.830 ZM983.356,955.248 C980.731,958.511 978.063,961.737 975.355,964.928 L965.043,957.000 C967.576,954.023 970.074,951.014 972.532,947.973 L983.356,955.248 ZM1003.825,927.877 C1000.756,932.302 997.605,936.666 994.392,940.982 L983.597,933.726 C986.632,929.661 989.610,925.551 992.514,921.385 L1003.825,927.877 ZM1014.579,886.561 L1026.412,892.042 C1022.391,899.099 1018.186,906.037 1013.822,912.864 L1002.541,906.390 C1006.710,899.887 1010.730,893.280 1014.579,886.561 ZM1030.423,856.427 L1042.617,861.045 C1040.184,866.152 1037.657,871.205 1035.051,876.210 L1023.250,870.744 C1025.719,866.018 1028.113,861.247 1030.423,856.427 ZM1043.528,826.409 L1056.009,830.179 C1054.104,835.033 1052.114,839.844 1050.057,844.619 L1037.890,840.011 C1039.835,835.511 1041.722,830.981 1043.528,826.409 ZM1053.804,797.712 L1066.497,800.680 C1065.153,804.907 1063.732,809.098 1062.274,813.273 L1049.824,809.512 C1051.196,805.599 1052.535,801.671 1053.804,797.712 ZM1063.013,764.944 L1075.882,767.007 C1074.568,772.512 1073.141,777.972 1071.639,783.401 L1058.973,780.439 C1060.400,775.307 1061.760,770.147 1063.013,764.944 ZM1071.027,723.564 L1084.021,724.497 C1082.811,732.873 1081.358,741.168 1079.720,749.397 L1066.883,747.339 C1068.455,739.481 1069.855,731.560 1071.027,723.564 ZM1074.801,689.000 L1087.825,689.000 C1087.417,694.905 1086.870,700.771 1086.249,706.615 L1073.283,705.684 C1073.876,700.148 1074.404,694.592 1074.801,689.000 Z" class="cls-5"/>
  <g>
    <path d="M241.000,860.000 L803.000,860.000 C814.046,860.000 823.000,868.954 823.000,880.000 L823.000,1028.000 C823.000,1039.046 814.046,1048.000 803.000,1048.000 L241.000,1048.000 C229.954,1048.000 221.000,1039.046 221.000,1028.000 L221.000,880.000 C221.000,868.954 229.954,860.000 241.000,860.000 Z" class="cls-3"/>
    <rect x="226" y="876" width="58" height="33" class="cls-16"/>
    <rect x="226" y="914" width="70" height="33" class="cls-16"/>
    <rect x="226" y="953" width="86" height="33" class="cls-16"/>
    <rect x="740" y="953" width="68" height="33" class="cls-16"/>
    <rect x="762" y="914" width="45" height="33" class="cls-16"/>
    <rect x="742" y="876" width="58" height="33" class="cls-16"/>
    <rect x="288" y="876" width="33" height="33" class="cls-16"/>
    <rect x="325" y="876" width="33" height="33" class="cls-16"/>
    <rect x="363" y="876" width="33" height="33" class="cls-16"/>
    <rect x="402" y="876" width="33" height="33" class="cls-16"/>
    <rect x="439" y="876" width="33" height="33" class="cls-16"/>
    <rect x="477" y="876" width="33" height="33" class="cls-16"/>
    <rect x="300" y="914" width="33" height="33" class="cls-16"/>
    <rect x="337" y="914" width="33" height="33" class="cls-16"/>
    <rect x="375" y="914" width="33" height="33" class="cls-16"/>
    <rect x="414" y="914" width="33" height="33" class="cls-16"/>
    <rect x="317" y="952" width="33" height="33" class="cls-16"/>
    <rect x="354" y="952" width="33" height="33" class="cls-16"/>
    <rect x="392" y="952" width="33" height="33" class="cls-16"/>
    <rect x="234" y="992" width="33" height="33" class="cls-16"/>
    <rect x="271" y="992" width="33" height="33" class="cls-16"/>
    <rect x="309" y="992" width="33" height="33" class="cls-16"/>
    <rect x="354" y="992" width="33" height="33" class="cls-16"/>
    <rect x="601" y="992" width="41" height="33" class="cls-16"/>
    <rect x="651" y="992" width="37" height="33" class="cls-16"/>
    <rect x="691" y="1011" width="37" height="17" class="cls-16"/>
    <rect x="731" y="1011" width="37" height="17" class="cls-16"/>
    <rect x="771" y="1011" width="37" height="17" class="cls-16"/>
    <rect x="730" y="991" width="37" height="17" class="cls-16"/>
    <rect x="400" y="992" width="193" height="33" class="cls-16"/>
    <rect x="431" y="952" width="33" height="33" class="cls-16"/>
    <rect x="468" y="952" width="33" height="33" class="cls-16"/>
    <rect x="505" y="952" width="33" height="33" class="cls-16"/>
    <rect x="543" y="952" width="33" height="33" class="cls-16"/>
    <rect x="582" y="952" width="33" height="33" class="cls-16"/>
    <rect x="622" y="952" width="33" height="33" class="cls-16"/>
    <rect x="659" y="952" width="33" height="33" class="cls-16"/>
    <rect x="697" y="952" width="33" height="33" class="cls-16"/>
    <rect x="451" y="914" width="33" height="33" class="cls-16"/>
    <rect x="489" y="914" width="33" height="33" class="cls-16"/>
    <rect x="528" y="914" width="33" height="33" class="cls-16"/>
    <rect x="565" y="914" width="33" height="33" class="cls-16"/>
    <rect x="603" y="914" width="33" height="33" class="cls-16"/>
    <rect x="642" y="914" width="33" height="33" class="cls-16"/>
    <rect x="679" y="914" width="33" height="33" class="cls-16"/>
    <rect x="717" y="914" width="33" height="33" class="cls-16"/>
    <rect x="520" y="876" width="33" height="33" class="cls-16"/>
    <rect x="557" y="876" width="33" height="33" class="cls-16"/>
    <rect x="595" y="876" width="33" height="33" class="cls-16"/>
    <rect x="634" y="876" width="33" height="33" class="cls-16"/>
    <rect x="671" y="876" width="33" height="33" class="cls-16"/>
    <rect x="709" y="876" width="33" height="33" class="cls-16"/>
  </g>
  <g>
    <path d="M70.000,717.000 L-0.000,715.000 L325.000,665.000 L172.000,736.000 L70.000,717.000 Z" class="cls-19"/>
    <path d="M74.000,775.000 L70.000,715.000 L326.000,665.000 L74.000,775.000 Z" class="cls-9"/>
    <path d="M95.000,729.000 L325.000,665.000 L177.000,792.000 L95.000,729.000 Z" class="cls-19"/>
    <path d="M79.000,775.000 L92.000,728.000 L132.000,759.000 L79.000,775.000 Z" class="cls-20"/>
  </g>
  <g class="phone">
    <rect x="56" y="377" width="167" height="275" rx="20" ry="20" class="cls-21"/>
    <path d="M-578.000,402.000 L-411.000,402.000 L-411.000,622.000 L-577.000,622.000 L-578.000,402.000 Z" class="cls-2"/>
    <ellipse cx="-494.5" cy="634.5" rx="7.5" ry="6.5" class="cls-16"/>
    <path d="M-577.000,557.000 C-577.000,557.000 -578.397,552.579 -567.607,565.536 C-567.607,565.536 -550.798,558.048 -538.282,573.192 C-538.282,573.192 -525.661,568.775 -519.220,573.781 C-519.220,573.781 -514.228,567.109 -505.730,570.837 C-505.730,570.837 -503.784,567.716 -501.331,567.009 C-498.879,566.302 -487.502,562.397 -482.856,568.481 C-483.162,568.135 -474.594,568.698 -470.514,574.068 C-470.514,574.068 -453.014,563.494 -440.921,575.548 C-440.921,575.548 -433.837,561.327 -418.000,568.000 C-418.000,568.000 -420.348,554.537 -410.000,555.000 L-412.000,612.000 L-577.000,609.000 L-577.000,557.000 Z" class="cls-3"/>
    <path d="M-576.000,576.000 C-576.000,576.000 -578.397,574.021 -567.607,581.808 C-567.607,581.808 -550.798,577.308 -538.282,586.409 C-538.282,586.409 -525.661,583.754 -519.220,586.762 C-519.220,586.762 -514.228,582.753 -505.730,584.993 C-505.730,584.993 -503.014,584.535 -501.331,582.693 C-498.893,580.022 -487.509,578.840 -482.856,583.577 C-483.162,583.369 -474.594,583.708 -470.514,586.934 C-470.514,586.934 -453.014,580.581 -440.921,587.824 C-440.921,587.824 -433.837,579.990 -418.000,584.000 C-418.000,584.000 -420.348,575.722 -410.000,576.000 L-411.000,624.000 L-577.000,623.000 L-576.000,576.000 Z" class="cls-4"/>
    <path d="M-504.264,553.464 L-502.211,569.364 C-502.211,569.364 -498.345,584.926 -494.880,584.971 C-491.165,585.019 -487.834,569.538 -487.842,569.070 C-487.858,568.166 -486.375,551.697 -486.375,551.697 L-504.264,553.464 Z" class="cls-3"/>
    <path d="M-513.062,530.496 C-513.062,530.496 -528.869,543.190 -536.522,554.347 L-536.522,511.061 C-536.522,511.061 -526.983,502.435 -523.796,502.400 C-520.318,502.361 -513.006,530.509 -513.062,530.496 Z" class="cls-5"/>
    <path d="M-539.015,506.350 C-536.828,506.350 -535.056,508.130 -535.056,510.325 L-535.056,554.789 C-535.056,556.984 -536.828,558.764 -539.015,558.764 C-541.201,558.764 -542.974,556.984 -542.974,554.789 L-542.974,510.325 C-542.974,508.130 -541.201,506.350 -539.015,506.350 Z" class="cls-6"/>
    <path d="M-478.164,530.556 C-478.164,530.556 -462.357,543.223 -454.704,554.356 L-454.704,511.162 C-454.704,511.162 -464.243,502.554 -467.430,502.519 C-470.907,502.481 -478.220,530.569 -478.164,530.556 Z" class="cls-5"/>
    <path d="M-452.211,506.461 C-454.398,506.461 -456.170,508.237 -456.170,510.428 L-456.170,554.797 C-456.170,556.988 -454.398,558.764 -452.211,558.764 C-450.025,558.764 -448.252,556.988 -448.252,554.797 L-448.252,510.428 C-448.252,508.237 -450.025,506.461 -452.211,506.461 Z" class="cls-6"/>
    <path d="M-508.370,536.974 C-508.370,536.974 -510.440,551.148 -510.129,551.697 C-509.818,552.246 -498.188,560.942 -480.804,551.697 L-484.323,534.913 L-508.370,536.974 Z" class="cls-7"/>
    <path d="M-496.053,408.000 L-496.053,545.808 C-498.583,553.039 -566.137,493.678 -496.053,408.000 Z" class="cls-8"/>
    <path d="M-496.053,408.000 L-496.053,545.808 C-493.527,553.039 -426.070,493.678 -496.053,408.000 Z" class="cls-9"/>
    <circle cx="-495.328" cy="462.625" r="15.109" class="cls-10"/>
    <path d="M-488.779,452.443 L-501.862,472.685 C-505.239,470.548 -507.490,466.780 -507.490,462.475 C-507.490,455.808 -502.107,450.402 -495.466,450.402 C-492.991,450.402 -490.692,451.155 -488.779,452.443 Z" class="cls-11"/>
    <path d="M-489.526,451.987 C-485.896,454.065 -483.443,457.979 -483.443,462.475 C-483.443,469.143 -488.826,474.548 -495.466,474.548 C-497.996,474.548 -500.339,473.760 -502.276,472.421 L-489.526,451.987 Z" class="cls-12"/>
  </g>
  <g>
    <path d="M921.000,903.000 C948.614,903.000 971.000,925.386 971.000,953.000 L971.000,1046.000 C971.000,1073.614 948.614,1096.000 921.000,1096.000 C893.386,1096.000 871.000,1073.614 871.000,1046.000 L871.000,953.000 C871.000,925.386 893.386,903.000 921.000,903.000 Z" class="cls-15"/>
    <path d="M923.000,1095.949 C922.336,1095.976 921.671,1096.000 921.000,1096.000 C893.386,1096.000 871.000,1073.614 871.000,1046.000 L871.000,953.000 C871.000,925.386 893.386,903.000 921.000,903.000 C921.671,903.000 922.336,903.024 923.000,903.051 L923.000,1095.949 Z" class="cls-3"/>
    <ellipse cx="922.5" cy="950.5" rx="11.5" ry="10.5" class="cls-22"/>
  </g>
  <g>
    <rect x="873" y="512" width="282" height="359" rx="15" ry="15" class="cls-23"/>
    <rect x="905" y="544" width="218" height="291" class="cls-16"/>
  </g>
</svg>
