<svg xmlns="http://www.w3.org/2000/svg" xmlns:xlink="http://www.w3.org/1999/xlink" preserveAspectRatio="xMidYMid" width="2469" height="1723" viewBox="0 0 2469 1723">
  <defs>
    <style>
    <!-- animation -->
    @-webkit-keyframes bounceInDown {
      from, 60%, 75%, 90%, to {
        -webkit-animation-timing-function: cubic-bezier(0.215, 0.610, 0.355, 1.000);
        animation-timing-function: cubic-bezier(0.215, 0.610, 0.355, 1.000);
      }

      0% {
        opacity: 0;
        -webkit-transform: translate3d(0, -3000px, 0);
        transform: translate3d(0, -3000px, 0);
      }

      60% {
        opacity: 1;
        -webkit-transform: translate3d(0, 25px, 0);
        transform: translate3d(0, 25px, 0);
      }

      75% {
        -webkit-transform: translate3d(0, -10px, 0);
        transform: translate3d(0, -10px, 0);
      }

      90% {
        -webkit-transform: translate3d(0, 5px, 0);
        transform: translate3d(0, 5px, 0);
      }

      to {
        -webkit-transform: none;
        transform: none;
      }
    }

    @keyframes bounceInDown {
      from, 60%, 75%, 90%, to {
        -webkit-animation-timing-function: cubic-bezier(0.215, 0.610, 0.355, 1.000);
        animation-timing-function: cubic-bezier(0.215, 0.610, 0.355, 1.000);
      }

      0% {
        opacity: 0;
        -webkit-transform: translate3d(0, -3000px, 0);
        transform: translate3d(0, -3000px, 0);
      }

      60% {
        opacity: 1;
        -webkit-transform: translate3d(0, 25px, 0);
        transform: translate3d(0, 25px, 0);
      }

      75% {
        -webkit-transform: translate3d(0, -10px, 0);
        transform: translate3d(0, -10px, 0);
      }

      90% {
        -webkit-transform: translate3d(0, 5px, 0);
        transform: translate3d(0, 5px, 0);
      }

      to {
        -webkit-transform: none;
        transform: none;
      }
    }

    .bounceInDown {
        -webkit-animation-name: bounceInDown;
        animation-name: bounceInDown;
        -webkit-animation-duration: 1s;
        animation-duration: 1s;
        -webkit-animation-fill-mode: both;
        animation-fill-mode: both;
         -webkit-animation-duration: 1s;
        animation-duration: 1s;
        -webkit-animation-fill-mode: both;
        animation-fill-mode: both;
    }



    @-webkit-keyframes bounceInLeft {
      from, 60%, 75%, 90%, to {
        -webkit-animation-timing-function: cubic-bezier(0.215, 0.610, 0.355, 1.000);
        animation-timing-function: cubic-bezier(0.215, 0.610, 0.355, 1.000);
      }

      0% {
        opacity: 0;
        -webkit-transform: translate3d(-3000px, 0, 0);
        transform: translate3d(-3000px, 0, 0);
      }

      60% {
        opacity: 1;
        -webkit-transform: translate3d(25px, 0, 0);
        transform: translate3d(25px, 0, 0);
      }

      75% {
        -webkit-transform: translate3d(-10px, 0, 0);
        transform: translate3d(-10px, 0, 0);
      }

      90% {
        -webkit-transform: translate3d(5px, 0, 0);
        transform: translate3d(5px, 0, 0);
      }

      to {
        -webkit-transform: none;
        transform: none;
      }
    }

    @keyframes bounceInLeft {
      from, 60%, 75%, 90%, to {
        -webkit-animation-timing-function: cubic-bezier(0.215, 0.610, 0.355, 1.000);
        animation-timing-function: cubic-bezier(0.215, 0.610, 0.355, 1.000);
      }

      0% {
        opacity: 0;
        -webkit-transform: translate3d(-3000px, 0, 0);
        transform: translate3d(-3000px, 0, 0);
      }

      60% {
        opacity: 1;
        -webkit-transform: translate3d(25px, 0, 0);
        transform: translate3d(25px, 0, 0);
      }

      75% {
        -webkit-transform: translate3d(-10px, 0, 0);
        transform: translate3d(-10px, 0, 0);
      }

      90% {
        -webkit-transform: translate3d(5px, 0, 0);
        transform: translate3d(5px, 0, 0);
      }

      to {
        -webkit-transform: none;
        transform: none;
      }
    }

    .bounceInLeft {
      -webkit-animation-name: bounceInLeft;
      animation-name: bounceInLeft;
      -webkit-animation-duration: 1s;
      animation-duration: 1s;
      -webkit-animation-fill-mode: both;
      animation-fill-mode: both;
       -webkit-animation-duration: 1s;
      animation-duration: 1s;
      -webkit-animation-fill-mode: both;
      animation-fill-mode: both;
    }

    @-webkit-keyframes bounceInRight {
      from, 60%, 75%, 90%, to {
        -webkit-animation-timing-function: cubic-bezier(0.215, 0.610, 0.355, 1.000);
        animation-timing-function: cubic-bezier(0.215, 0.610, 0.355, 1.000);
      }

      from {
        opacity: 0;
        -webkit-transform: translate3d(3000px, 0, 0);
        transform: translate3d(3000px, 0, 0);
      }

      60% {
        opacity: 1;
        -webkit-transform: translate3d(-25px, 0, 0);
        transform: translate3d(-25px, 0, 0);
      }

      75% {
        -webkit-transform: translate3d(10px, 0, 0);
        transform: translate3d(10px, 0, 0);
      }

      90% {
        -webkit-transform: translate3d(-5px, 0, 0);
        transform: translate3d(-5px, 0, 0);
      }

      to {
        -webkit-transform: none;
        transform: none;
      }
    }

    @keyframes bounceInRight {
      from, 60%, 75%, 90%, to {
        -webkit-animation-timing-function: cubic-bezier(0.215, 0.610, 0.355, 1.000);
        animation-timing-function: cubic-bezier(0.215, 0.610, 0.355, 1.000);
      }

      from {
        opacity: 0;
        -webkit-transform: translate3d(3000px, 0, 0);
        transform: translate3d(3000px, 0, 0);
      }

      60% {
        opacity: 1;
        -webkit-transform: translate3d(-25px, 0, 0);
        transform: translate3d(-25px, 0, 0);
      }

      75% {
        -webkit-transform: translate3d(10px, 0, 0);
        transform: translate3d(10px, 0, 0);
      }

      90% {
        -webkit-transform: translate3d(-5px, 0, 0);
        transform: translate3d(-5px, 0, 0);
      }

      to {
        -webkit-transform: none;
        transform: none;
      }
    }
<!-- animation -->

 <!--    delays -->

.delay-1{
  animation-delay: 0.1s;
}
.delay-2{
  animation-delay: 0.2s;
}
.delay-3{
  animation-delay:0.3s;
}
.delay-4{
  animation-delay:0.4s;
}
.delay-5{
  animation-delay:0.5s;
}
.delay-6{
  animation-delay: 0.6s;
}
.delay-7{
  animation-delay: 0.7s;
}
 <!--    delays -->

    .bounceInRight {
      -webkit-animation-name: bounceInRight;
      animation-name: bounceInRight;
      -webkit-animation-duration: 1s;
      animation-duration: 1s;
      -webkit-animation-fill-mode: both;
      animation-fill-mode: both;
       -webkit-animation-duration: 1s;
      animation-duration: 1s;
      -webkit-animation-fill-mode: both;
      animation-fill-mode: both;
    }
      .cls-1, .cls-4 {
        fill: #d5e2e4;
      }

      .cls-1, .cls-11, .cls-12, .cls-13, .cls-15, .cls-16, .cls-2, .cls-22, .cls-23, .cls-24, .cls-25, .cls-26, .cls-27, .cls-28, .cls-29, .cls-3, .cls-30, .cls-31, .cls-32, .cls-33, .cls-34, .cls-35, .cls-36, .cls-37, .cls-38, .cls-39, .cls-40, .cls-41, .cls-43, .cls-44, .cls-46, .cls-48, .cls-5, .cls-50, .cls-51, .cls-52, .cls-53, .cls-54, .cls-56, .cls-57, .cls-58, .cls-59, .cls-6, .cls-60, .cls-61, .cls-63, .cls-64, .cls-7 {
        fill-rule: evenodd;
      }

      .cls-2, .cls-8 {
        fill: #e1f5fe;
      }

      .cls-3 {
        fill: #d5d7e4;
      }

      .cls-5 {
        fill: #7ab0cb;
      }

      .cls-6 {
        fill: #f8c27a;
      }

      .cls-7 {
        fill: #838ab6;
      }

      .cls-12, .cls-9 {
        fill: #fff;
      }

      .cls-10 {
        fill: #863a47;
      }

      .cls-11 {
        fill: #cacaca;
      }

      .cls-13 {
        fill: #b3cdfb;
      }

      .cls-14 {
        fill: #d0e1ff;
      }

      .cls-15 {
        fill: #b1c5e8;
      }

      .cls-16, .cls-24 {
        fill: #fcf4a1;
      }

      .cls-17 {
        fill: #853a45;
      }

      .cls-18 {
        fill: #4b4b4b;
      }

      .cls-19 {
        fill: #79323c;
      }

      .cls-20 {
        fill: #79333d;
      }

      .cls-21 {
        fill: #999797;
      }

      .cls-22, .cls-23 {
        fill: #f6e642;
      }

      .cls-22 {
        filter: url(#drop-shadow-1);
      }

      .cls-23, .cls-24 {
        filter: url(#drop-shadow-2);
      }

      .cls-25 {
        fill: #fefefe;
      }

      .cls-26 {
        stroke: #8f8f8f;
        stroke-width: 2px;
        fill: none;
      }

      .cls-27 {
        fill: #8f8f8f;
      }

      .cls-28 {
        fill: #231f20;
      }

      .cls-29 {
        fill: #bab9b9;
      }

      .cls-30 {
        fill: #cfcece;
      }

      .cls-31 {
        fill: #e0e0e0;
      }

      .cls-32 {
        fill: #9f9e9e;
      }

      .cls-33 {
        fill: #9a9790;
      }

      .cls-34 {
        fill: #bdb9b8;
      }

      .cls-35 {
        fill: #d1d5de;
      }

      .cls-36 {
        fill: #545454;
      }

      .cls-37 {
        fill: #474e47;
      }

      .cls-38 {
        fill: #888;
      }

      .cls-39 {
        fill: #d98b97;
      }

      .cls-40, .cls-55 {
        fill: #0f4163;
      }

      .cls-41 {
        fill: #215f89;
      }

      .cls-42, .cls-43 {
        fill: #0a3857;
      }

      .cls-44, .cls-45 {
        fill: #12486d;
      }

      .cls-46 {
        fill: #e1e1e1;
      }

      .cls-47 {
        fill: #101010;
      }

      .cls-48, .cls-49 {
        fill: #252a26;
      }

      .cls-50 {
        fill: #ffc434;
      }

      .cls-51 {
        fill: #b2b2b2;
      }

      .cls-52 {
        fill: #e49865;
      }

      .cls-53 {
        fill: #343835;
      }

      .cls-54 {
        fill: #d76f6e;
      }

      .cls-56 {
        fill: #a2bbbe;
      }

      .cls-57 {
        fill: #e7a1bd;
      }

      .cls-58 {
        fill: #edbabc;
      }

      .cls-59 {
        fill: #69b6e1;
      }

      .cls-60 {
        fill: #b6ddc5;
      }

      .cls-61, .cls-62 {
        fill: #e878a9;
      }

      .cls-63 {
        fill: #8b8d8c;
      }

      .cls-64 {
        fill: #75c1ec;
      }
    </style>

    <filter id="drop-shadow-1" filterUnits="userSpaceOnUse">
      <feOffset dx="9.703" dy="2.419" in="SourceAlpha"/>
      <feGaussianBlur stdDeviation="2.646" result="dropBlur"/>
      <feFlood flood-color="#7f919a" flood-opacity="0.15"/>
      <feComposite operator="in" in2="dropBlur" result="dropShadowComp"/>
      <feComposite in="SourceGraphic" result="shadowed"/>
    </filter>
    <filter id="drop-shadow-2" filterUnits="userSpaceOnUse">
      <feOffset dx="40.752" dy="10.161" in="SourceAlpha"/>
      <feGaussianBlur stdDeviation="5.385" result="dropBlur"/>
      <feFlood flood-color="#7f919a" flood-opacity="0.15"/>
      <feComposite operator="in" in2="dropBlur" result="dropShadowComp"/>
      <feComposite in="SourceGraphic" result="shadowed"/>
    </filter>
  </defs>
  <path d="M1712.000,1206.000 L2293.000,1206.000 C2305.702,1206.000 2316.000,1216.297 2316.000,1229.000 C2316.000,1241.702 2305.702,1252.000 2293.000,1252.000 L1712.000,1252.000 C1699.297,1252.000 1689.000,1241.702 1689.000,1229.000 C1689.000,1216.297 1699.297,1206.000 1712.000,1206.000 Z" class="cls-1 bounceInRight delay-6"/>
  <path d="M1639.500,1210.000 C1650.822,1210.000 1660.000,1219.178 1660.000,1230.500 C1660.000,1241.822 1650.822,1251.000 1639.500,1251.000 C1628.178,1251.000 1619.000,1241.822 1619.000,1230.500 C1619.000,1219.178 1628.178,1210.000 1639.500,1210.000 Z" class="cls-1 bounceInRight delay-6"/>
  <path d="M1875.000,1330.000 L2327.000,1330.000 C2338.046,1330.000 2347.000,1338.954 2347.000,1350.000 C2347.000,1361.046 2338.046,1370.000 2327.000,1370.000 L1875.000,1370.000 C1863.954,1370.000 1855.000,1361.046 1855.000,1350.000 C1855.000,1338.954 1863.954,1330.000 1875.000,1330.000 Z" class="cls-1 bounceInRight delay-7"/>
  <path d="M1631.000,1456.000 L2083.000,1456.000 C2094.046,1456.000 2103.000,1464.954 2103.000,1476.000 C2103.000,1487.046 2094.046,1496.000 2083.000,1496.000 L1631.000,1496.000 C1619.954,1496.000 1611.000,1487.046 1611.000,1476.000 C1611.000,1464.954 1619.954,1456.000 1631.000,1456.000 Z" class="cls-1 bounceInRight delay-6"/>
  <path d="M1530.500,1455.000 C1541.822,1455.000 1551.000,1464.178 1551.000,1475.500 C1551.000,1486.822 1541.822,1496.000 1530.500,1496.000 C1519.178,1496.000 1510.000,1486.822 1510.000,1475.500 C1510.000,1464.178 1519.178,1455.000 1530.500,1455.000 Z" class="cls-1 bounceInRight delay-2"/>
  <path d="M233.500,1514.000 L726.500,1514.000 C737.269,1514.000 746.000,1522.730 746.000,1533.500 C746.000,1544.269 737.269,1553.000 726.500,1553.000 L233.500,1553.000 C222.730,1553.000 214.000,1544.269 214.000,1533.500 C214.000,1522.730 222.730,1514.000 233.500,1514.000 Z" class="cls-1 bounceInLeft delay-6"/>
  <path d="M809.500,1516.000 C819.165,1516.000 827.000,1523.835 827.000,1533.500 C827.000,1543.165 819.165,1551.000 809.500,1551.000 C799.835,1551.000 792.000,1543.165 792.000,1533.500 C792.000,1523.835 799.835,1516.000 809.500,1516.000 Z" class="cls-1 bounceInLeft delay-5"/>
  <path d="M368.000,1365.000 L768.000,1365.000 C785.121,1365.000 799.000,1378.879 799.000,1396.000 C799.000,1413.121 785.121,1427.000 768.000,1427.000 L368.000,1427.000 C350.879,1427.000 337.000,1413.121 337.000,1396.000 C337.000,1378.879 350.879,1365.000 368.000,1365.000 Z" class="cls-1 bounceInLeft delay-2"/>
  <path d="M865.500,1370.000 C880.135,1370.000 892.000,1381.864 892.000,1396.500 C892.000,1411.135 880.135,1423.000 865.500,1423.000 C850.864,1423.000 839.000,1411.135 839.000,1396.500 C839.000,1381.864 850.864,1370.000 865.500,1370.000 Z" class="cls-1 bounceInLeft delay-4"/>
  <path d="M708.500,1065.000 L985.500,1065.000 C996.822,1065.000 1006.000,1074.178 1006.000,1085.500 C1006.000,1096.822 996.822,1106.000 985.500,1106.000 L708.500,1106.000 C697.178,1106.000 688.000,1096.822 688.000,1085.500 C688.000,1074.178 697.178,1065.000 708.500,1065.000 Z" class="cls-1 bounceInLeft delay-2"/>
  <path d="M1065.500,1067.000 C1074.613,1067.000 1082.000,1074.387 1082.000,1083.500 C1082.000,1092.613 1074.613,1100.000 1065.500,1100.000 C1056.387,1100.000 1049.000,1092.613 1049.000,1083.500 C1049.000,1074.387 1056.387,1067.000 1065.500,1067.000 Z" class="cls-1 bounceInLeft delay-5"/>
  <path d="M532.000,135.000 L532.000,973.000 L2420.000,973.000 L2420.000,115.000 L532.000,135.000 Z" class="cls-2"/>
  <path d="M1715.500,400.000 L2192.500,400.000 C2208.792,400.000 2222.000,413.208 2222.000,429.500 C2222.000,445.792 2208.792,459.000 2192.500,459.000 L1715.500,459.000 C1699.208,459.000 1686.000,445.792 1686.000,429.500 C1686.000,413.208 1699.208,400.000 1715.500,400.000 Z" class="cls-3 bounceInRight delay-6"/>
  <path d="M1634.000,399.000 C1649.464,399.000 1662.000,411.536 1662.000,427.000 C1662.000,442.464 1649.464,455.000 1634.000,455.000 C1618.536,455.000 1606.000,442.464 1606.000,427.000 C1606.000,411.536 1618.536,399.000 1634.000,399.000 Z" class="cls-3 bounceInRight delay-7"/>
  <path d="M1059.500,392.000 L1200.500,392.000 C1205.194,392.000 1209.000,395.805 1209.000,400.500 C1209.000,405.194 1205.194,409.000 1200.500,409.000 L1059.500,409.000 C1054.806,409.000 1051.000,405.194 1051.000,400.500 C1051.000,395.805 1054.806,392.000 1059.500,392.000 Z" class="cls-1"/>
  <circle cx="1026.5" cy="401.5" r="7.5" class="cls-4"/>
  <path d="M1988.000,27.000 L2327.000,27.000 C2335.284,27.000 2342.000,33.716 2342.000,42.000 C2342.000,50.284 2335.284,57.000 2327.000,57.000 L1988.000,57.000 C1979.716,57.000 1973.000,50.284 1973.000,42.000 C1973.000,33.716 1979.716,27.000 1988.000,27.000 Z" class="cls-1"/>
  <path d="M1906.000,26.000 C1914.837,26.000 1922.000,33.163 1922.000,42.000 C1922.000,50.837 1914.837,58.000 1906.000,58.000 C1897.163,58.000 1890.000,50.837 1890.000,42.000 C1890.000,33.163 1897.163,26.000 1906.000,26.000 Z" class="cls-1"/>
  <path d="M1305.000,27.000 L1644.000,27.000 C1652.284,27.000 1659.000,33.716 1659.000,42.000 C1659.000,50.284 1652.284,57.000 1644.000,57.000 L1305.000,57.000 C1296.716,57.000 1290.000,50.284 1290.000,42.000 C1290.000,33.716 1296.716,27.000 1305.000,27.000 Z" class="cls-1"/>
  <path d="M1223.000,26.000 C1231.836,26.000 1239.000,33.163 1239.000,42.000 C1239.000,50.837 1231.836,58.000 1223.000,58.000 C1214.163,58.000 1207.000,50.837 1207.000,42.000 C1207.000,33.163 1214.163,26.000 1223.000,26.000 Z" class="cls-1"/>
  <path d="M1835.000,482.000 L1917.924,482.000 C1917.961,482.997 1918.000,483.994 1918.000,485.000 C1918.000,528.630 1882.630,564.000 1839.000,564.000 C1795.369,564.000 1760.000,528.630 1760.000,485.000 C1760.000,442.711 1793.228,408.184 1835.000,406.101 L1835.000,482.000 Z" class="cls-5 bounceInDown delay-5"/>
  <path d="M82.000,954.000 L2423.000,954.000 C2443.987,954.000 2461.000,971.013 2461.000,992.000 C2461.000,1012.987 2443.987,1030.000 2423.000,1030.000 L82.000,1030.000 C61.013,1030.000 44.000,1012.987 44.000,992.000 C44.000,971.013 61.013,954.000 82.000,954.000 Z" class="cls-6"/>
  <path d="M486.500,80.000 L2424.500,80.000 C2439.688,80.000 2452.000,92.312 2452.000,107.500 C2452.000,122.688 2439.688,135.000 2424.500,135.000 L486.500,135.000 C471.312,135.000 459.000,122.688 459.000,107.500 C459.000,92.312 471.312,80.000 486.500,80.000 Z" class="cls-7"/>
  <path d="M366.500,184.000 L930.500,184.000 C953.420,184.000 972.000,202.580 972.000,225.500 C972.000,248.420 953.420,267.000 930.500,267.000 L366.500,267.000 C343.580,267.000 325.000,248.420 325.000,225.500 C325.000,202.580 343.580,184.000 366.500,184.000 Z" class="cls-2"/>
  <circle cx="238.5" cy="225.5" r="39.5" class="cls-8"/>
  <path d="M324.312,286.000 L592.500,286.000 C603.269,286.000 612.000,294.730 612.000,305.500 C612.000,316.269 603.269,325.000 592.500,325.000 L324.312,325.000 C313.543,325.000 304.812,316.269 304.812,305.500 C304.812,294.730 313.543,286.000 324.312,286.000 Z" class="cls-2"/>
  <ellipse cx="263.75" cy="305.5" rx="18.75" ry="18.563" class="cls-8"/>
  <path d="M331.500,371.000 L657.500,371.000 C668.822,371.000 678.000,380.178 678.000,391.500 C678.000,402.822 668.822,412.000 657.500,412.000 L331.500,412.000 C320.178,412.000 311.000,402.822 311.000,391.500 C311.000,380.178 320.178,371.000 331.500,371.000 Z" class="cls-2"/>
  <path d="M240.500,481.000 L600.500,481.000 C610.165,481.000 618.000,488.835 618.000,498.500 C618.000,508.165 610.165,516.000 600.500,516.000 L240.500,516.000 C230.835,516.000 223.000,508.165 223.000,498.500 C223.000,488.835 230.835,481.000 240.500,481.000 Z" class="cls-2"/>
  <circle cx="179.5" cy="498.5" r="17.5" class="cls-8"/>
  <circle cx="114.5" cy="595.5" r="23.5" class="cls-8"/>
  <circle cx="52.5" cy="811.5" r="21.5" class="cls-8"/>
  <path d="M228.500,572.000 L623.500,572.000 C636.479,572.000 647.000,582.521 647.000,595.500 C647.000,608.479 636.479,619.000 623.500,619.000 L228.500,619.000 C215.521,619.000 205.000,608.479 205.000,595.500 C205.000,582.521 215.521,572.000 228.500,572.000 Z" class="cls-2"/>
  <path d="M122.000,791.000 L567.000,791.000 C578.598,791.000 588.000,800.402 588.000,812.000 C588.000,823.598 578.598,833.000 567.000,833.000 L122.000,833.000 C110.402,833.000 101.000,823.598 101.000,812.000 C101.000,800.402 110.402,791.000 122.000,791.000 Z" class="cls-2"/>
  <circle cx="220.5" cy="391.5" r="18.5" class="cls-8"/>
  <rect x="978" y="178" width="259" height="169" rx="4" ry="4" class="cls-9"/>
  <rect x="1701" y="292" width="252" height="25" rx="4" ry="4" class="cls-9"/>
  <rect x="1711" y="335" width="106" height="21" rx="4" ry="4" class="cls-9"/>
  <rect x="1961" y="541" width="83" height="26" rx="4" ry="4" class="cls-9"/>
  <rect x="1974" y="587" width="83" height="20" rx="4" ry="4" class="cls-9"/>
  <rect x="1384" y="538" width="262" height="25" rx="4" ry="4" class="cls-9"/>
  <rect x="1376" y="581" width="315" height="20" rx="4" ry="4" class="cls-9"/>
  <rect x="1375" y="622" width="93" height="22" rx="4" ry="4" class="cls-9 bounceInDown delay-3"/>
  <rect x="1377" y="666" width="136" height="42" rx="4" ry="4" class="cls-9 bounceInDown delay-3"/>
  <rect x="1159" y="375" width="121" height="124" rx="4" ry="4" class="cls-9 bounceInDown delay-3"/>
  <rect x="2019" y="230" width="203" height="253" rx="4" ry="4" class="cls-9 bounceInDown delay-2"/>
  <circle cx="2111" cy="258" r="9" class="cls-10"/>
  <path d="M2067.000,297.000 L2183.000,297.000 C2187.418,297.000 2191.000,300.582 2191.000,305.000 C2191.000,309.418 2187.418,313.000 2183.000,313.000 L2067.000,313.000 C2062.582,313.000 2059.000,309.418 2059.000,305.000 C2059.000,300.582 2062.582,297.000 2067.000,297.000 Z" class="cls-11 bounceInDown delay-2"/>
  <path d="M2138.000,311.000 C2138.000,311.000 2141.364,527.281 2152.000,532.000 C2162.636,536.719 2328.000,518.000 2328.000,518.000 L2329.000,506.000 L2138.000,311.000 Z" class="cls-11 bounceInDown delay-3"/>
  <path d="M2067.000,337.000 L2183.000,337.000 C2187.418,337.000 2191.000,340.582 2191.000,345.000 C2191.000,349.418 2187.418,353.000 2183.000,353.000 L2067.000,353.000 C2062.582,353.000 2059.000,349.418 2059.000,345.000 C2059.000,340.582 2062.582,337.000 2067.000,337.000 Z" class="cls-11 bounceInDown delay-2"/>
  <g class="bounceInDown delay-3">
  <path d="M2141.214,305.363 L2312.845,289.996 C2314.789,289.822 2316.507,291.256 2316.681,293.201 L2335.992,508.802 C2336.166,510.746 2334.730,512.463 2332.786,512.637 L2161.155,528.004 C2159.211,528.178 2157.493,526.743 2157.319,524.799 L2138.008,309.198 C2137.834,307.254 2139.269,305.537 2141.214,305.363 Z" class="cls-12"/>
  <circle cx="2220.875" cy="323.078" r="7.935" class="cls-10"/>
  <path d="M2185.222,360.856 L2287.320,351.714 C2291.209,351.366 2294.644,354.236 2294.992,358.124 C2295.340,362.012 2292.470,365.446 2288.581,365.794 L2186.483,374.936 C2182.594,375.284 2179.159,372.414 2178.811,368.526 C2178.463,364.638 2181.333,361.204 2185.222,360.856 Z" class="cls-11"/>
  <path d="M2188.374,396.056 L2290.473,386.915 C2294.362,386.566 2297.796,389.436 2298.145,393.324 C2298.493,397.212 2295.623,400.646 2291.734,400.995 L2189.635,410.136 C2185.747,410.484 2182.312,407.615 2181.964,403.726 C2181.615,399.838 2184.486,396.404 2188.374,396.056 Z" class="cls-11"/>
  </g>
  <g>
    <path d="M712.000,422.000 L867.000,441.000 L866.000,199.000 L712.000,422.000 Z" class="cls-13"/>
    <path d="M697.000,218.000 L699.000,424.000 L860.000,424.000 L865.000,196.000 L713.000,192.000 L697.000,218.000 Z" class="cls-12"/>
    <rect x="783" y="230" width="64" height="22" rx="4" ry="4" class="cls-14"/>
    <rect x="731" y="273" width="42" height="60" rx="4" ry="4" class="cls-14"/>
    <rect x="1006" y="196" width="42" height="60" rx="4" ry="4" class="cls-14"/>
    <rect x="793" y="273" width="42" height="60" rx="4" ry="4" class="cls-14"/>
    <rect x="1061" y="196" width="42" height="60" rx="4" ry="4" class="cls-14"/>
    <rect x="1113" y="196" width="42" height="60" rx="4" ry="4" class="cls-14"/>
    <rect x="1165" y="196" width="42" height="60" rx="4" ry="4" class="cls-14"/>
    <rect x="1006" y="269" width="42" height="60" rx="4" ry="4" class="cls-14"/>
    <rect x="1061" y="269" width="42" height="60" rx="4" ry="4" class="cls-14"/>
    <rect x="1113" y="269" width="42" height="60" rx="4" ry="4" class="cls-14"/>
    <rect x="1165" y="269" width="42" height="60" rx="4" ry="4" class="cls-14"/>
    <rect x="731" y="343" width="42" height="16" rx="4" ry="4" class="cls-14"/>
    <rect x="791" y="343" width="42" height="16" rx="4" ry="4" class="cls-14"/>
    <rect x="731" y="373" width="42" height="16" rx="4" ry="4" class="cls-14"/>
    <rect x="791" y="373" width="42" height="16" rx="4" ry="4" class="cls-14"/>
  </g>
  <g class="bounceInDown delay-2">
    <path d="M859.000,229.000 L956.000,237.000 L951.000,103.000 L859.000,229.000 Z" class="cls-15"/>
    <path d="M857.000,230.000 L841.000,212.000 L843.000,103.000 L952.000,103.000 L952.000,230.000 L857.000,230.000 ZM849.500,109.000 C848.672,109.000 848.000,109.672 848.000,110.500 C848.000,111.328 848.672,112.000 849.500,112.000 C850.328,112.000 851.000,111.328 851.000,110.500 C851.000,109.672 850.328,109.000 849.500,109.000 ZM859.500,109.000 C858.671,109.000 858.000,109.672 858.000,110.500 C858.000,111.328 858.671,112.000 859.500,112.000 C860.328,112.000 861.000,111.328 861.000,110.500 C861.000,109.672 860.328,109.000 859.500,109.000 ZM869.500,109.000 C868.672,109.000 868.000,109.672 868.000,110.500 C868.000,111.328 868.672,112.000 869.500,112.000 C870.328,112.000 871.000,111.328 871.000,110.500 C871.000,109.672 870.328,109.000 869.500,109.000 ZM879.500,109.000 C878.671,109.000 878.000,109.672 878.000,110.500 C878.000,111.328 878.671,112.000 879.500,112.000 C880.328,112.000 881.000,111.328 881.000,110.500 C881.000,109.672 880.328,109.000 879.500,109.000 ZM889.500,109.000 C888.672,109.000 888.000,109.672 888.000,110.500 C888.000,111.328 888.672,112.000 889.500,112.000 C890.328,112.000 891.000,111.328 891.000,110.500 C891.000,109.672 890.328,109.000 889.500,109.000 ZM899.500,109.000 C898.671,109.000 898.000,109.672 898.000,110.500 C898.000,111.328 898.671,112.000 899.500,112.000 C900.328,112.000 901.000,111.328 901.000,110.500 C901.000,109.672 900.328,109.000 899.500,109.000 ZM929.500,109.000 C928.672,109.000 928.000,109.672 928.000,110.500 C928.000,111.328 928.672,112.000 929.500,112.000 C930.328,112.000 931.000,111.328 931.000,110.500 C931.000,109.672 930.328,109.000 929.500,109.000 ZM939.500,109.000 C938.671,109.000 938.000,109.672 938.000,110.500 C938.000,111.328 938.671,112.000 939.500,112.000 C940.328,112.000 941.000,111.328 941.000,110.500 C941.000,109.672 940.328,109.000 939.500,109.000 ZM949.500,109.000 C948.672,109.000 948.000,109.672 948.000,110.500 C948.000,111.328 948.672,112.000 949.500,112.000 C950.328,112.000 951.000,111.328 951.000,110.500 C951.000,109.672 950.328,109.000 949.500,109.000 Z" class="cls-16"/>
  </g>
  <g class="bounceInDown delay-5">
    <rect x="1293" y="115" width="161" height="228" rx="4" ry="4" class="cls-9"/>
    <rect x="1322" y="164" width="109" height="20" rx="4" ry="4" class="cls-17"/>
    <rect x="1357" y="95" width="25" height="40" class="cls-18"/>
    <rect x="1327" y="209" width="104" height="16" rx="4" ry="4" class="cls-19"/>
    <rect x="1330" y="248" width="63" height="16" rx="4" ry="4" class="cls-20"/>
  </g>
  <g class="bounceInDown 7">
    <rect x="1484" y="107" width="161" height="157" rx="4" ry="4" class="cls-9"/>
    <rect x="1513" y="156" width="109" height="20" rx="4" ry="4" class="cls-17"/>
    <rect x="1548" y="87" width="25" height="40" class="cls-21"/>
    <rect x="1673" y="107" width="161" height="157" rx="4" ry="4" class="cls-9"/>
    <rect x="1737" y="87" width="25" height="40" class="cls-21"/>
    <rect x="1518" y="201" width="104" height="16" rx="4" ry="4" class="cls-19"/>
  </g>
  <g>
    <path d="M1319.000,503.000 L1416.000,511.000 L1411.000,377.000 L1319.000,503.000 Z" class="cls-15"/>
    <path d="M1317.000,504.000 L1301.000,486.000 L1303.000,377.000 L1412.000,377.000 L1412.000,504.000 L1317.000,504.000 ZM1309.500,383.000 C1308.671,383.000 1308.000,383.672 1308.000,384.500 C1308.000,385.328 1308.671,386.000 1309.500,386.000 C1310.328,386.000 1311.000,385.328 1311.000,384.500 C1311.000,383.672 1310.328,383.000 1309.500,383.000 ZM1319.500,383.000 C1318.672,383.000 1318.000,383.672 1318.000,384.500 C1318.000,385.328 1318.672,386.000 1319.500,386.000 C1320.328,386.000 1321.000,385.328 1321.000,384.500 C1321.000,383.672 1320.328,383.000 1319.500,383.000 ZM1329.500,383.000 C1328.671,383.000 1328.000,383.672 1328.000,384.500 C1328.000,385.328 1328.671,386.000 1329.500,386.000 C1330.328,386.000 1331.000,385.328 1331.000,384.500 C1331.000,383.672 1330.328,383.000 1329.500,383.000 ZM1339.500,383.000 C1338.672,383.000 1338.000,383.672 1338.000,384.500 C1338.000,385.328 1338.672,386.000 1339.500,386.000 C1340.328,386.000 1341.000,385.328 1341.000,384.500 C1341.000,383.672 1340.328,383.000 1339.500,383.000 ZM1349.500,383.000 C1348.671,383.000 1348.000,383.672 1348.000,384.500 C1348.000,385.328 1348.671,386.000 1349.500,386.000 C1350.328,386.000 1351.000,385.328 1351.000,384.500 C1351.000,383.672 1350.328,383.000 1349.500,383.000 ZM1359.500,383.000 C1358.671,383.000 1358.000,383.672 1358.000,384.500 C1358.000,385.328 1358.671,386.000 1359.500,386.000 C1360.328,386.000 1361.000,385.328 1361.000,384.500 C1361.000,383.672 1360.328,383.000 1359.500,383.000 ZM1389.500,383.000 C1388.672,383.000 1388.000,383.672 1388.000,384.500 C1388.000,385.328 1388.672,386.000 1389.500,386.000 C1390.328,386.000 1391.000,385.328 1391.000,384.500 C1391.000,383.672 1390.328,383.000 1389.500,383.000 ZM1399.500,383.000 C1398.671,383.000 1398.000,383.672 1398.000,384.500 C1398.000,385.328 1398.671,386.000 1399.500,386.000 C1400.328,386.000 1401.000,385.328 1401.000,384.500 C1401.000,383.672 1400.328,383.000 1399.500,383.000 ZM1409.500,383.000 C1408.672,383.000 1408.000,383.672 1408.000,384.500 C1408.000,385.328 1408.672,386.000 1409.500,386.000 C1410.328,386.000 1411.000,385.328 1411.000,384.500 C1411.000,383.672 1410.328,383.000 1409.500,383.000 Z" class="cls-16"/>
    <g class="bounceInDown delay-3">
      <path d="M1350.000,422.000 L1447.000,430.000 L1442.000,296.000 L1350.000,422.000 Z" class="cls-15"/>
      <path d="M1348.000,423.000 L1332.000,405.000 L1334.000,296.000 L1443.000,296.000 L1443.000,423.000 L1348.000,423.000 ZM1340.500,302.000 C1339.672,302.000 1339.000,302.672 1339.000,303.500 C1339.000,304.328 1339.672,305.000 1340.500,305.000 C1341.328,305.000 1342.000,304.328 1342.000,303.500 C1342.000,302.672 1341.328,302.000 1340.500,302.000 ZM1350.500,302.000 C1349.671,302.000 1349.000,302.672 1349.000,303.500 C1349.000,304.328 1349.671,305.000 1350.500,305.000 C1351.328,305.000 1352.000,304.328 1352.000,303.500 C1352.000,302.672 1351.328,302.000 1350.500,302.000 ZM1360.500,302.000 C1359.672,302.000 1359.000,302.672 1359.000,303.500 C1359.000,304.328 1359.672,305.000 1360.500,305.000 C1361.328,305.000 1362.000,304.328 1362.000,303.500 C1362.000,302.672 1361.328,302.000 1360.500,302.000 ZM1370.500,302.000 C1369.671,302.000 1369.000,302.672 1369.000,303.500 C1369.000,304.328 1369.671,305.000 1370.500,305.000 C1371.328,305.000 1372.000,304.328 1372.000,303.500 C1372.000,302.672 1371.328,302.000 1370.500,302.000 ZM1380.500,302.000 C1379.672,302.000 1379.000,302.672 1379.000,303.500 C1379.000,304.328 1379.672,305.000 1380.500,305.000 C1381.328,305.000 1382.000,304.328 1382.000,303.500 C1382.000,302.672 1381.328,302.000 1380.500,302.000 ZM1390.500,302.000 C1389.671,302.000 1389.000,302.672 1389.000,303.500 C1389.000,304.328 1389.671,305.000 1390.500,305.000 C1391.328,305.000 1392.000,304.328 1392.000,303.500 C1392.000,302.672 1391.328,302.000 1390.500,302.000 ZM1420.500,302.000 C1419.671,302.000 1419.000,302.672 1419.000,303.500 C1419.000,304.328 1419.671,305.000 1420.500,305.000 C1421.328,305.000 1422.000,304.328 1422.000,303.500 C1422.000,302.672 1421.328,302.000 1420.500,302.000 ZM1430.500,302.000 C1429.672,302.000 1429.000,302.672 1429.000,303.500 C1429.000,304.328 1429.672,305.000 1430.500,305.000 C1431.328,305.000 1432.000,304.328 1432.000,303.500 C1432.000,302.672 1431.328,302.000 1430.500,302.000 ZM1440.500,302.000 C1439.671,302.000 1439.000,302.672 1439.000,303.500 C1439.000,304.328 1439.671,305.000 1440.500,305.000 C1441.328,305.000 1442.000,304.328 1442.000,303.500 C1442.000,302.672 1441.328,302.000 1440.500,302.000 Z" class="cls-22"/>
    </g>
  </g>
  <g>
    <path d="M1537.000,380.000 L1634.000,388.000 L1629.000,254.000 L1537.000,380.000 Z" class="cls-15"/>
    <path d="M1535.000,381.000 L1519.000,363.000 L1521.000,254.000 L1630.000,254.000 L1630.000,381.000 L1535.000,381.000 ZM1527.500,260.000 C1526.671,260.000 1526.000,260.672 1526.000,261.500 C1526.000,262.328 1526.671,263.000 1527.500,263.000 C1528.328,263.000 1529.000,262.328 1529.000,261.500 C1529.000,260.672 1528.328,260.000 1527.500,260.000 ZM1537.500,260.000 C1536.672,260.000 1536.000,260.672 1536.000,261.500 C1536.000,262.328 1536.672,263.000 1537.500,263.000 C1538.328,263.000 1539.000,262.328 1539.000,261.500 C1539.000,260.672 1538.328,260.000 1537.500,260.000 ZM1547.500,260.000 C1546.672,260.000 1546.000,260.672 1546.000,261.500 C1546.000,262.328 1546.672,263.000 1547.500,263.000 C1548.328,263.000 1549.000,262.328 1549.000,261.500 C1549.000,260.672 1548.328,260.000 1547.500,260.000 ZM1557.500,260.000 C1556.671,260.000 1556.000,260.672 1556.000,261.500 C1556.000,262.328 1556.671,263.000 1557.500,263.000 C1558.328,263.000 1559.000,262.328 1559.000,261.500 C1559.000,260.672 1558.328,260.000 1557.500,260.000 ZM1567.500,260.000 C1566.672,260.000 1566.000,260.672 1566.000,261.500 C1566.000,262.328 1566.672,263.000 1567.500,263.000 C1568.328,263.000 1569.000,262.328 1569.000,261.500 C1569.000,260.672 1568.328,260.000 1567.500,260.000 ZM1577.500,260.000 C1576.671,260.000 1576.000,260.672 1576.000,261.500 C1576.000,262.328 1576.671,263.000 1577.500,263.000 C1578.328,263.000 1579.000,262.328 1579.000,261.500 C1579.000,260.672 1578.328,260.000 1577.500,260.000 ZM1607.500,260.000 C1606.672,260.000 1606.000,260.672 1606.000,261.500 C1606.000,262.328 1606.672,263.000 1607.500,263.000 C1608.328,263.000 1609.000,262.328 1609.000,261.500 C1609.000,260.672 1608.328,260.000 1607.500,260.000 ZM1617.500,260.000 C1616.671,260.000 1616.000,260.672 1616.000,261.500 C1616.000,262.328 1616.671,263.000 1617.500,263.000 C1618.328,263.000 1619.000,262.328 1619.000,261.500 C1619.000,260.672 1618.328,260.000 1617.500,260.000 ZM1627.500,260.000 C1626.672,260.000 1626.000,260.672 1626.000,261.500 C1626.000,262.328 1626.672,263.000 1627.500,263.000 C1628.328,263.000 1629.000,262.328 1629.000,261.500 C1629.000,260.672 1628.328,260.000 1627.500,260.000 Z" class="cls-23"/>
  </g>
  <g>
    <path d="M1319.000,503.000 L1416.000,511.000 L1411.000,377.000 L1319.000,503.000 Z" class="cls-15"/>
    <path d="M1317.000,504.000 L1301.000,486.000 L1303.000,377.000 L1412.000,377.000 L1412.000,504.000 L1317.000,504.000 ZM1309.500,383.000 C1308.671,383.000 1308.000,383.672 1308.000,384.500 C1308.000,385.328 1308.671,386.000 1309.500,386.000 C1310.328,386.000 1311.000,385.328 1311.000,384.500 C1311.000,383.672 1310.328,383.000 1309.500,383.000 ZM1319.500,383.000 C1318.672,383.000 1318.000,383.672 1318.000,384.500 C1318.000,385.328 1318.672,386.000 1319.500,386.000 C1320.328,386.000 1321.000,385.328 1321.000,384.500 C1321.000,383.672 1320.328,383.000 1319.500,383.000 ZM1329.500,383.000 C1328.671,383.000 1328.000,383.672 1328.000,384.500 C1328.000,385.328 1328.671,386.000 1329.500,386.000 C1330.328,386.000 1331.000,385.328 1331.000,384.500 C1331.000,383.672 1330.328,383.000 1329.500,383.000 ZM1339.500,383.000 C1338.672,383.000 1338.000,383.672 1338.000,384.500 C1338.000,385.328 1338.672,386.000 1339.500,386.000 C1340.328,386.000 1341.000,385.328 1341.000,384.500 C1341.000,383.672 1340.328,383.000 1339.500,383.000 ZM1349.500,383.000 C1348.671,383.000 1348.000,383.672 1348.000,384.500 C1348.000,385.328 1348.671,386.000 1349.500,386.000 C1350.328,386.000 1351.000,385.328 1351.000,384.500 C1351.000,383.672 1350.328,383.000 1349.500,383.000 ZM1359.500,383.000 C1358.671,383.000 1358.000,383.672 1358.000,384.500 C1358.000,385.328 1358.671,386.000 1359.500,386.000 C1360.328,386.000 1361.000,385.328 1361.000,384.500 C1361.000,383.672 1360.328,383.000 1359.500,383.000 ZM1389.500,383.000 C1388.672,383.000 1388.000,383.672 1388.000,384.500 C1388.000,385.328 1388.672,386.000 1389.500,386.000 C1390.328,386.000 1391.000,385.328 1391.000,384.500 C1391.000,383.672 1390.328,383.000 1389.500,383.000 ZM1399.500,383.000 C1398.671,383.000 1398.000,383.672 1398.000,384.500 C1398.000,385.328 1398.671,386.000 1399.500,386.000 C1400.328,386.000 1401.000,385.328 1401.000,384.500 C1401.000,383.672 1400.328,383.000 1399.500,383.000 ZM1409.500,383.000 C1408.672,383.000 1408.000,383.672 1408.000,384.500 C1408.000,385.328 1408.672,386.000 1409.500,386.000 C1410.328,386.000 1411.000,385.328 1411.000,384.500 C1411.000,383.672 1410.328,383.000 1409.500,383.000 Z" class="cls-24"/>
  </g>
  <g class="bounceInDown ">
    <path d="M726.000,436.000 C726.000,436.000 773.691,666.179 786.000,670.000 C798.309,673.821 937.475,672.577 946.000,669.000 C954.525,665.423 949.874,657.009 948.000,644.000 C946.126,630.991 904.544,434.759 893.000,430.000 C881.456,425.241 701.644,417.524 726.000,436.000 Z" class="cls-25"/>
    <path d="M776.139,458.868 L866.097,462.760 C871.581,462.998 877.405,468.086 879.169,474.165 L893.669,524.149 C895.548,530.624 892.586,536.030 886.987,536.183 L794.787,538.703 C788.061,538.887 781.214,533.151 779.579,525.942 L767.000,470.487 C765.475,463.765 769.602,458.585 776.139,458.868 Z" class="cls-26"/>
    <path d="M836.250,484.000 L855.250,484.000 C858.149,484.000 860.500,486.350 860.500,489.250 C860.500,492.149 858.149,494.500 855.250,494.500 L836.250,494.500 C833.350,494.500 831.000,492.149 831.000,489.250 C831.000,486.350 833.350,484.000 836.250,484.000 Z" class="cls-27"/>
    <path d="M841.750,503.500 L860.750,503.500 C863.649,503.500 866.000,505.850 866.000,508.750 C866.000,511.649 863.649,514.000 860.750,514.000 L841.750,514.000 C838.850,514.000 836.500,511.649 836.500,508.750 C836.500,505.850 838.850,503.500 841.750,503.500 Z" class="cls-27"/>
    <path d="M798.062,566.939 L848.040,565.447 C851.076,565.356 853.611,567.744 853.701,570.780 C853.792,573.817 851.404,576.351 848.368,576.442 L798.390,577.934 C795.354,578.025 792.819,575.637 792.729,572.600 C792.638,569.564 795.026,567.029 798.062,566.939 Z" class="cls-27"/>
    <path d="M802.430,593.996 L852.772,592.516 C855.831,592.426 858.385,594.840 858.478,597.908 C858.571,600.976 856.167,603.536 853.109,603.626 L802.766,605.106 C799.708,605.196 797.153,602.782 797.060,599.714 C796.967,596.646 799.371,594.086 802.430,593.996 Z" class="cls-27"/>
    <path d="M878.000,626.000 L918.000,626.000 C920.761,626.000 923.000,628.239 923.000,631.000 C923.000,633.761 920.761,636.000 918.000,636.000 L878.000,636.000 C875.239,636.000 873.000,633.761 873.000,631.000 C873.000,628.239 875.239,626.000 878.000,626.000 Z" class="cls-27"/>
  </g>
  <g class="bounceInDown delay-3">
    <path d="M904.000,814.000 L1373.000,849.000 L1346.000,571.000 C1346.000,571.000 1340.925,563.058 1331.000,560.000 C1321.075,556.942 892.000,444.000 892.000,444.000 C892.000,444.000 877.813,440.347 881.000,460.000 C884.186,479.653 904.000,814.000 904.000,814.000 Z" class="cls-28"/>
    <path d="M906.000,475.000 L927.000,791.000 L1360.000,828.000 L1334.000,580.000 L906.000,475.000 Z" class="cls-12"/>
    <path d="M929.597,501.207 L1299.330,581.775 C1301.512,582.251 1303.419,584.107 1303.594,585.923 L1304.992,600.425 C1305.168,602.250 1303.542,603.364 1301.356,602.913 L930.661,526.381 C927.477,525.724 924.815,523.418 924.725,521.234 L924.006,503.884 C923.916,501.713 926.423,500.515 929.597,501.207 Z" class="cls-29"/>
    <path d="M936.303,537.154 L1189.794,586.133 C1192.098,586.578 1194.084,588.349 1194.234,590.089 L1199.907,655.721 C1200.060,657.500 1198.306,658.653 1195.983,658.296 L939.998,618.936 C936.957,618.468 934.413,616.443 934.324,614.414 L931.013,539.683 C930.925,537.704 933.297,536.573 936.303,537.154 Z" class="cls-29"/>
    <path d="M1218.968,594.331 L1302.051,611.128 C1303.945,611.511 1305.612,613.134 1305.777,614.754 L1312.015,675.790 C1312.184,677.443 1310.779,678.536 1308.872,678.229 L1225.203,664.768 C1223.086,664.427 1221.241,662.736 1221.088,660.993 L1215.431,596.651 C1215.281,594.944 1216.867,593.906 1218.968,594.331 Z" class="cls-30"/>
    <path d="M945.792,632.109 L1072.596,649.376 C1075.515,649.773 1077.984,651.648 1078.120,653.565 L1083.756,733.051 C1083.896,735.019 1081.624,736.388 1078.674,736.108 L950.379,723.905 C947.046,723.588 944.254,721.631 944.152,719.536 L940.008,634.985 C939.908,632.948 942.502,631.661 945.792,632.109 Z" class="cls-30"/>
    <path d="M1100.031,654.985 L1200.294,669.796 C1202.611,670.138 1204.611,671.861 1204.767,673.645 L1211.193,747.546 C1211.352,749.374 1209.589,750.661 1207.251,750.420 L1106.021,739.974 C1103.404,739.704 1101.167,737.914 1101.032,735.976 L1095.573,657.710 C1095.442,655.821 1097.440,654.602 1100.031,654.985 Z" class="cls-30"/>
    <path d="M1226.920,675.622 L1309.219,688.342 C1311.129,688.638 1312.811,690.222 1312.981,691.884 L1319.999,760.625 C1320.172,762.324 1318.757,763.533 1316.834,763.326 L1233.900,754.371 C1231.765,754.141 1229.901,752.499 1229.743,750.706 L1223.360,678.198 C1223.206,676.447 1224.802,675.294 1226.920,675.622 Z" class="cls-29"/>
    <path d="M951.671,749.757 L1080.383,760.508 C1083.342,760.755 1085.849,762.564 1085.990,764.550 L1087.988,792.731 C1088.130,794.736 1085.842,796.202 1082.871,796.004 L953.551,787.388 C950.190,787.164 947.373,785.248 947.268,783.111 L945.796,753.080 C945.692,750.965 948.326,749.478 951.671,749.757 Z" class="cls-31"/>
    <path d="M1107.706,763.876 L1209.206,773.073 C1211.550,773.285 1213.576,774.951 1213.736,776.794 L1216.010,802.945 C1216.171,804.805 1214.400,806.176 1212.048,806.006 L1110.156,798.641 C1107.520,798.450 1105.266,796.695 1105.129,794.722 L1103.194,766.984 C1103.058,765.029 1105.081,763.638 1107.706,763.876 Z" class="cls-31"/>
    <path d="M1235.861,776.490 L1318.971,784.369 C1320.898,784.552 1322.598,786.087 1322.773,787.799 L1325.252,812.081 C1325.428,813.807 1324.008,815.089 1322.075,814.943 L1238.710,808.638 C1236.563,808.476 1234.687,806.864 1234.527,805.041 L1232.269,779.395 C1232.110,777.587 1233.720,776.287 1235.861,776.490 Z" class="cls-32"/>
    <path d="M904.000,813.000 C904.000,813.000 900.776,867.704 915.000,873.000 C929.224,878.296 1360.865,894.941 1369.000,893.000 C1377.135,891.059 1371.000,860.000 1371.000,860.000 L1363.000,845.000 L904.000,813.000 Z" class="cls-28"/>
    <path d="M1059.000,879.000 C1059.000,879.000 1033.938,946.899 1055.000,952.000 C1076.061,957.101 1243.000,954.000 1243.000,954.000 L1159.000,952.000 L1128.000,948.000 C1128.000,948.000 1091.197,916.829 1089.000,912.000 C1086.802,907.171 1059.000,879.000 1059.000,879.000 Z" class="cls-33"/>
    <path d="M1064.000,881.000 C1063.146,882.531 1026.961,957.580 1077.483,952.927 C1115.838,949.394 1220.000,953.000 1220.000,953.000 C1220.000,953.000 1156.517,953.162 1155.000,937.000 C1153.483,920.838 1158.000,884.000 1158.000,884.000 L1064.000,881.000 Z" class="cls-34"/>
    <path d="M906.000,814.000 L911.000,875.000 L1369.000,892.000 C1369.000,892.000 1378.434,887.881 1379.000,884.000 C1379.566,880.119 1373.000,845.000 1373.000,845.000 L906.000,814.000 Z" class="cls-35"/>
  </g>
  <g class="bounceInDown delay-5">
    <path d="M377.117,1091.169 C377.117,1091.169 354.844,1060.463 364.618,1032.823 C374.392,1005.184 421.931,851.402 402.116,795.273 C382.302,739.143 317.560,688.942 289.622,695.251 C261.684,701.561 214.317,739.651 227.125,766.100 C239.933,792.549 278.578,810.986 285.455,845.283 C292.332,879.581 281.121,986.853 281.289,1028.656 C281.457,1070.458 282.528,1172.262 402.116,1187.023 C402.116,1187.023 425.740,1242.825 497.945,1241.201 L722.934,1249.537 C722.934,1249.537 788.853,1269.666 802.097,1262.039 C815.340,1254.413 802.097,1228.699 802.097,1228.699 C802.097,1228.699 871.758,1085.484 868.760,957.807 C868.760,957.807 879.807,960.589 889.592,945.305 C899.377,930.020 906.258,895.294 906.258,895.294 C906.258,895.294 932.346,910.018 939.590,895.294 C946.834,880.570 958.475,851.535 943.756,845.283 C929.038,839.032 905.936,831.897 893.759,836.948 C881.581,841.999 868.760,861.954 868.760,861.954 C868.760,861.954 864.978,775.821 860.427,761.932 C855.876,748.044 843.935,710.700 818.763,695.251 C793.589,679.803 732.790,608.415 581.274,661.911 L502.111,666.078 C502.111,666.078 484.778,676.365 514.611,707.754 C514.611,707.754 484.214,738.096 489.612,770.267 C495.010,802.439 493.465,878.793 477.112,903.629 C460.760,928.465 392.200,994.765 389.617,1028.656 L377.117,1091.169 Z" class="cls-36"/>
    <path d="M627.105,882.791 C627.105,882.791 542.017,925.218 475.880,905.435 C476.315,904.814 476.732,904.207 477.112,903.629 C484.299,892.714 488.625,871.849 490.759,849.157 C508.024,861.174 564.854,896.257 622.939,882.791 C692.580,866.646 627.105,882.791 627.105,882.791 Z" class="cls-37"/>
    <path d="M804.123,753.033 C800.992,752.426 768.129,777.033 774.964,806.003 C774.127,806.219 776.053,789.739 780.028,780.734 C788.515,761.508 818.564,755.830 804.123,753.033 Z" class="cls-12"/>
    <path d="M763.990,766.715 C763.911,767.045 769.612,754.811 778.351,749.485 C785.135,745.351 791.877,743.312 799.636,745.186 C817.253,749.441 802.612,741.071 795.378,740.892 C784.802,740.630 768.354,748.598 763.990,766.715 Z" class="cls-12"/>
    <path d="M756.005,737.078 C755.555,737.265 768.403,733.049 785.365,731.867 C789.797,731.558 796.166,738.018 802.176,740.338 C802.659,740.021 805.973,738.156 799.743,731.192 C793.513,724.229 773.418,729.810 756.005,737.078 Z" class="cls-12"/>
    <path d="M764.000,712.000 C764.000,712.000 800.956,719.085 806.263,711.922 C811.571,704.758 787.383,704.261 774.000,706.000 C760.186,707.795 764.000,712.000 764.000,712.000 Z" class="cls-38"/>
    <path d="M552.109,741.094 L585.441,682.749 C585.441,682.749 528.611,671.280 522.944,682.749 C517.276,694.217 535.814,731.657 552.109,741.094 Z" class="cls-39"/>
    <path d="M835.428,716.089 C835.428,716.089 826.695,722.396 835.428,728.592 C844.161,734.787 856.261,753.597 856.261,753.597 C856.261,753.597 868.117,736.982 860.427,728.592 C852.738,720.202 852.094,720.257 852.094,720.257 L835.428,716.089 Z" class="cls-39"/>
    <path d="M375.377,745.179 L335.286,742.094 L360.285,800.440 L306.121,762.932 L339.453,833.781 L260.290,787.938 L261.525,802.760 C249.698,790.938 237.355,779.966 231.125,767.100 C218.317,740.651 265.684,702.561 293.622,696.251 C312.483,691.992 348.116,713.491 375.377,745.179 Z" class="cls-12"/>
    <path d="M627.105,882.791 C627.105,882.791 542.017,925.218 475.880,905.435 C476.315,904.814 476.732,904.207 477.112,903.629 C484.299,892.714 488.625,871.849 490.759,849.157 C508.024,861.174 564.854,896.257 622.939,882.791 C692.580,866.646 627.105,882.791 627.105,882.791 Z" class="cls-12"/>
    <path d="M435.448,957.807 L445.134,942.583 C454.035,932.193 462.396,922.609 468.761,914.746 C489.438,928.385 583.064,987.345 643.771,978.645 C651.058,986.834 563.757,1060.172 435.448,957.807 Z" class="cls-12"/>
    <path d="M402.116,999.483 L418.165,975.403 C418.383,975.119 418.601,974.835 418.820,974.551 C420.187,977.154 460.535,1053.156 518.777,1061.996 C518.777,1061.996 440.232,1075.736 402.116,999.483 Z" class="cls-37"/>
    <path d="M721.606,598.132 C721.606,598.132 735.855,563.413 755.000,560.000 C764.078,558.382 750.539,585.977 762.000,596.000 C772.398,605.094 787.957,592.704 795.000,602.000 C800.296,608.990 782.702,633.310 773.560,629.201 C762.797,624.365 763.000,628.000 763.000,628.000 C763.000,628.000 752.513,671.968 742.587,681.318 C742.587,681.318 721.162,700.894 710.616,689.336 C700.071,677.777 691.879,609.602 721.606,598.132 Z" class="cls-36"/>
  </g>
  <g class="bounceInDown delay-2">
    <path d="M381.102,1330.875 L635.273,1330.875 C658.284,1330.875 676.937,1349.529 676.937,1372.540 L676.937,1372.554 C676.937,1395.565 658.284,1414.219 635.273,1414.219 L381.102,1414.219 C358.091,1414.219 339.437,1395.565 339.437,1372.554 L339.437,1372.540 C339.437,1349.529 358.091,1330.875 381.102,1330.875 Z" class="cls-40"/>
    <path d="M516.515,1360.062 L612.359,1360.062 C627.314,1360.062 639.437,1372.186 639.437,1387.141 C639.437,1402.095 627.314,1414.219 612.359,1414.219 L516.515,1414.219 C501.561,1414.219 489.437,1402.095 489.437,1387.141 C489.437,1372.186 501.561,1360.062 516.515,1360.062 Z" class="cls-41"/>
    <rect x="460.281" y="1380.91" width="95.813" height="162.53" rx="39.581" ry="39.581" class="cls-42"/>
    <path d="M510.266,1501.750 C521.769,1501.750 531.094,1511.075 531.094,1522.578 L531.094,1622.609 C531.094,1634.112 521.769,1643.437 510.266,1643.437 C498.763,1643.437 489.437,1634.112 489.437,1622.609 L489.437,1522.578 C489.437,1511.075 498.763,1501.750 510.266,1501.750 Z" class="cls-43"/>
    <path d="M339.446,1589.281 L681.116,1589.281 C697.223,1589.281 710.281,1602.339 710.281,1618.446 L710.281,1618.460 C710.281,1634.567 697.223,1647.625 681.116,1647.625 L339.446,1647.625 C323.339,1647.625 310.281,1634.567 310.281,1618.460 L310.281,1618.446 C310.281,1602.339 323.339,1589.281 339.446,1589.281 Z" class="cls-43"/>
    <path d="M318.635,1630.937 L326.959,1630.937 C336.163,1630.937 343.625,1638.399 343.625,1647.603 L343.625,1655.959 C343.625,1665.163 336.163,1672.625 326.959,1672.625 L318.635,1672.625 C309.430,1672.625 301.969,1665.163 301.969,1655.959 L301.969,1647.603 C301.969,1638.399 309.430,1630.937 318.635,1630.937 Z" class="cls-43"/>
    <path d="M435.291,1630.937 L443.615,1630.937 C452.820,1630.937 460.281,1638.399 460.281,1647.603 L460.281,1655.959 C460.281,1665.163 452.820,1672.625 443.615,1672.625 L435.291,1672.625 C426.087,1672.625 418.625,1665.163 418.625,1655.959 L418.625,1647.603 C418.625,1638.399 426.087,1630.937 435.291,1630.937 Z" class="cls-43"/>
    <path d="M581.103,1630.937 L589.428,1630.937 C598.632,1630.937 606.094,1638.399 606.094,1647.603 L606.094,1655.959 C606.094,1665.163 598.632,1672.625 589.428,1672.625 L581.103,1672.625 C571.899,1672.625 564.437,1665.163 564.437,1655.959 L564.437,1647.603 C564.437,1638.399 571.899,1630.937 581.103,1630.937 Z" class="cls-43"/>
    <path d="M693.603,1630.937 L701.928,1630.937 C711.132,1630.937 718.594,1638.399 718.594,1647.603 L718.594,1655.959 C718.594,1665.163 711.132,1672.625 701.928,1672.625 L693.603,1672.625 C684.399,1672.625 676.937,1665.163 676.937,1655.959 L676.937,1647.603 C676.937,1638.399 684.399,1630.937 693.603,1630.937 Z" class="cls-43"/>
    <path d="M522.789,1247.531 L706.086,1247.531 C736.000,1247.531 760.250,1271.781 760.250,1301.695 L760.250,1301.711 C760.250,1331.625 736.000,1355.875 706.086,1355.875 L522.789,1355.875 C492.875,1355.875 468.625,1331.625 468.625,1301.711 L468.625,1301.695 C468.625,1271.781 492.875,1247.531 522.789,1247.531 Z" class="cls-43"/>
    <path d="M323.896,832.415 C422.498,815.172 516.404,881.147 533.643,979.774 L560.909,1135.775 C578.148,1234.402 512.190,1328.333 413.589,1345.576 C314.988,1362.819 221.082,1296.844 203.843,1198.217 L176.576,1042.216 C159.338,943.589 225.295,849.658 323.896,832.415 Z" class="cls-43"/>
    <path d="M280.893,833.323 C359.614,816.772 448.832,883.015 465.210,992.533 L491.197,1166.597 C508.177,1280.531 437.705,1360.660 349.486,1347.094 C265.585,1334.194 200.621,1246.945 189.971,1158.602 L172.891,1017.121 C162.328,929.735 207.743,848.705 280.893,833.323 Z" class="cls-44"/>
    <path d="M324.308,1159.426 C341.331,1156.587 357.433,1168.088 360.271,1185.116 L391.797,1374.212 C394.636,1391.240 383.137,1407.345 366.114,1410.185 C349.091,1413.024 332.990,1401.522 330.151,1384.495 L298.626,1195.399 C295.787,1178.371 307.286,1162.266 324.308,1159.426 Z" class="cls-43"/>
    <rect x="481.125" y="1118.34" width="279.125" height="45.85" rx="22.916" ry="22.916" class="cls-42"/>
    <rect x="114.469" y="1118.34" width="279.156" height="45.85" rx="22.916" ry="22.916" class="cls-45"/>
    <circle cx="322.781" cy="1197.515" r="29.156" class="cls-45"/>
    <circle cx="293.625" cy="1201.69" r="25" class="cls-42"/>
  </g>
  <path d="M1505.000,1037.000 L1680.000,1037.000 C1691.598,1037.000 1701.000,1046.402 1701.000,1058.000 C1701.000,1069.598 1691.598,1079.000 1680.000,1079.000 L1505.000,1079.000 C1493.402,1079.000 1484.000,1069.598 1484.000,1058.000 C1484.000,1046.402 1493.402,1037.000 1505.000,1037.000 Z" class="cls-1 bounceInRight delay-5"/>
  <path d="M1436.000,1037.000 C1447.046,1037.000 1456.000,1045.954 1456.000,1057.000 C1456.000,1068.046 1447.046,1077.000 1436.000,1077.000 C1424.954,1077.000 1416.000,1068.046 1416.000,1057.000 C1416.000,1045.954 1424.954,1037.000 1436.000,1037.000 Z" class="cls-1 bounceInRight delay-7"/>
  <path d="M1528.500,1117.000 L1691.500,1117.000 C1700.060,1117.000 1707.000,1123.939 1707.000,1132.500 C1707.000,1141.060 1700.060,1148.000 1691.500,1148.000 L1528.500,1148.000 C1519.939,1148.000 1513.000,1141.060 1513.000,1132.500 C1513.000,1123.939 1519.939,1117.000 1528.500,1117.000 Z" class="cls-1 bounceInRight delay-2"/>
  <path d="M1461.000,1118.000 C1469.837,1118.000 1477.000,1125.163 1477.000,1134.000 C1477.000,1142.836 1469.837,1150.000 1461.000,1150.000 C1452.163,1150.000 1445.000,1142.836 1445.000,1134.000 C1445.000,1125.163 1452.163,1118.000 1461.000,1118.000 Z" class="cls-1"/>
  <path d="M1535.000,1087.000 L1579.000,1087.000 C1583.418,1087.000 1587.000,1090.582 1587.000,1095.000 C1587.000,1099.418 1583.418,1103.000 1579.000,1103.000 L1535.000,1103.000 C1530.582,1103.000 1527.000,1099.418 1527.000,1095.000 C1527.000,1090.582 1530.582,1087.000 1535.000,1087.000 Z" class="cls-1"/>
  <g class="bounceInDown delay-7">
    <path d="M1578.000,811.000 C1578.000,811.000 1603.001,1113.450 1591.000,1117.000 C1578.999,1120.550 1549.168,1127.820 1575.000,1137.000 C1600.832,1146.180 1619.096,1147.724 1628.000,1118.000 C1636.903,1088.276 1614.000,781.000 1614.000,781.000 L1578.000,811.000 Z" class="cls-25"/>
    <path d="M1570.000,810.000 C1570.000,810.000 1634.487,979.933 1630.000,1008.000 C1625.512,1036.067 1611.096,1110.501 1624.000,1116.000 C1636.903,1121.499 1739.181,1142.399 1773.000,1131.000 C1806.819,1119.601 1865.379,1058.446 1866.000,1024.000 C1866.621,989.554 1874.978,984.087 1839.000,918.000 C1803.022,851.913 1722.000,702.000 1722.000,702.000 L1575.000,735.000 L1570.000,810.000 Z" class="cls-46"/>
    <path d="M1419.000,767.000 C1419.000,767.000 1455.442,842.021 1512.000,837.000 C1568.558,831.978 1686.000,740.000 1686.000,740.000 C1686.000,740.000 1693.609,1009.875 1642.000,1144.000 C1642.000,1144.000 1667.127,1160.566 1671.000,1151.000 C1674.873,1141.434 1757.000,929.000 1757.000,929.000 C1757.000,929.000 1804.536,967.533 1809.000,970.000 C1813.463,972.467 1729.034,962.268 1740.000,1031.000 C1740.000,1031.000 1764.882,1123.957 1755.000,1127.000 C1745.118,1130.043 1714.679,1141.480 1728.000,1150.000 C1741.321,1158.520 1898.000,1132.000 1898.000,1132.000 L1918.000,1066.000 C1918.000,1066.000 1992.317,971.179 1985.000,875.000 C1985.000,875.000 1928.459,1016.816 1912.000,1019.000 C1912.000,1019.000 1867.585,691.828 1682.000,545.000 C1682.000,545.000 1642.254,534.695 1613.000,540.000 C1583.746,545.305 1468.361,630.308 1419.000,767.000 Z" class="cls-25"/>
    <ellipse cx="1610" cy="642.5" rx="68" ry="65.5" class="cls-18"/>
    <ellipse cx="1605.5" cy="643" rx="12.5" ry="9" class="cls-47"/>
    <path d="M1848.000,870.000 C1798.847,870.000 1759.000,830.153 1759.000,781.000 C1759.000,746.287 1778.886,716.238 1807.875,701.565 C1837.948,756.793 1860.021,814.596 1875.896,865.515 C1867.119,868.411 1857.747,870.000 1848.000,870.000 Z" class="cls-48"/>
    <ellipse cx="1865" cy="913.5" rx="21" ry="21.5" class="cls-49"/>
    <path d="M1425.000,750.000 C1425.000,750.000 1446.485,775.694 1440.000,781.000 C1433.515,786.306 1416.775,788.630 1410.000,776.000 C1403.225,763.370 1420.883,750.882 1425.000,750.000 Z" class="cls-48"/>
    <path d="M1688.000,544.000 C1688.000,544.000 1721.021,483.823 1726.000,464.000 C1726.000,464.000 1722.899,468.679 1733.000,488.000 C1743.101,507.321 1775.809,559.361 1772.000,569.000 C1768.190,578.639 1743.249,612.890 1735.000,610.000 C1726.750,607.110 1682.689,551.778 1684.000,549.000 C1685.310,546.222 1688.000,544.000 1688.000,544.000 Z" class="cls-48"/>
    <path d="M1593.000,550.000 C1593.000,550.000 1632.975,534.544 1638.000,537.000 C1643.025,539.456 1594.404,472.372 1587.000,468.000 C1587.000,468.000 1587.926,544.644 1593.000,550.000 Z" class="cls-48"/>
    <path d="M1401.000,805.000 L1406.000,806.000 L1403.000,812.000 L1410.000,815.000 L1408.000,820.000 L1500.000,781.000 L1493.000,764.000 L1401.000,805.000 Z" class="cls-50"/>
    <path d="M1413.000,797.000 C1413.000,797.000 1421.862,814.773 1448.000,808.000 C1449.253,808.137 1474.892,800.362 1466.482,776.053 C1466.482,776.053 1466.500,769.694 1461.000,769.000 C1455.500,768.306 1413.000,797.000 1413.000,797.000 Z" class="cls-25"/>
    <path d="M1413.000,797.000 C1422.509,808.258 1465.612,817.131 1462.000,775.000 C1471.588,770.282 1477.285,806.064 1445.000,809.000 C1421.131,811.170 1413.000,797.000 1413.000,797.000 Z" class="cls-48"/>
    <path d="M1459.000,806.000 C1459.000,806.000 1499.511,787.240 1502.000,781.000 C1504.489,774.760 1501.000,777.000 1501.000,777.000 L1466.000,789.000 L1459.000,806.000 Z" class="cls-51"/>
    <path d="M1407.000,802.000 L1387.000,820.000 L1415.000,818.000 L1407.000,802.000 Z" class="cls-52"/>
    <path d="M1394.000,814.000 L1396.000,819.000 L1389.000,819.000 L1394.000,814.000 Z" class="cls-53"/>
    <path d="M1501.924,759.807 L1506.486,757.762 C1509.006,756.632 1511.965,757.760 1513.094,760.280 L1516.775,768.492 C1517.904,771.012 1516.777,773.971 1514.257,775.100 L1509.694,777.145 C1507.174,778.274 1504.216,777.147 1503.087,774.627 L1499.406,766.414 C1498.277,763.894 1499.404,760.936 1501.924,759.807 Z" class="cls-54"/>
    <path d="M1493.000,764.000 L1500.000,781.000 L1510.000,777.000 L1502.000,760.000 L1493.000,764.000 Z" class="cls-53"/>
  </g>
  <g class="bounceInDown delay-2">
    <rect x="1659.34" y="1107.25" width="337.63" height="83.34" rx="41.665" ry="41.665" class="cls-55"/>
    <path d="M1723.922,1136.437 L1819.828,1136.437 C1834.783,1136.437 1846.906,1148.561 1846.906,1163.516 C1846.906,1178.470 1834.783,1190.594 1819.828,1190.594 L1723.922,1190.594 C1708.967,1190.594 1696.844,1178.470 1696.844,1163.516 C1696.844,1148.561 1708.967,1136.437 1723.922,1136.437 Z" class="cls-41"/>
    <rect x="1780.22" y="1157.28" width="95.84" height="162.53" rx="39.581" ry="39.581" class="cls-42"/>
    <path d="M1826.051,1278.125 L1826.074,1278.125 C1837.579,1278.125 1846.906,1287.452 1846.906,1298.957 L1846.906,1398.980 C1846.906,1410.485 1837.579,1419.812 1826.074,1419.812 L1826.051,1419.812 C1814.546,1419.812 1805.219,1410.485 1805.219,1398.980 L1805.219,1298.957 C1805.219,1287.452 1814.546,1278.125 1826.051,1278.125 Z" class="cls-43"/>
    <path d="M1655.165,1365.656 L1996.960,1365.656 C2013.067,1365.656 2026.125,1378.714 2026.125,1394.821 L2026.125,1394.835 C2026.125,1410.942 2013.067,1424.000 1996.960,1424.000 L1655.165,1424.000 C1639.058,1424.000 1626.000,1410.942 1626.000,1394.835 L1626.000,1394.821 C1626.000,1378.714 1639.058,1365.656 1655.165,1365.656 Z" class="cls-43"/>
    <rect x="1992.78" y="1407.31" width="41.66" height="41.69" rx="16.666" ry="16.666" class="cls-42"/>
    <rect x="1876.06" y="1407.31" width="41.69" height="41.69" rx="16.666" ry="16.666" class="cls-42"/>
    <path d="M1746.885,1407.312 L1755.209,1407.312 C1764.413,1407.312 1771.875,1414.774 1771.875,1423.978 L1771.875,1432.334 C1771.875,1441.538 1764.413,1449.000 1755.209,1449.000 L1746.885,1449.000 C1737.680,1449.000 1730.219,1441.538 1730.219,1432.334 L1730.219,1423.978 C1730.219,1414.774 1737.680,1407.312 1746.885,1407.312 Z" class="cls-43"/>
    <rect x="1617.66" y="1407.31" width="41.68" height="41.69" rx="16.666" ry="16.666" class="cls-42"/>
    <path d="M1630.164,1023.875 L1813.555,1023.875 C1843.469,1023.875 1867.719,1048.125 1867.719,1078.039 L1867.719,1078.086 C1867.719,1108.000 1843.469,1132.250 1813.555,1132.250 L1630.164,1132.250 C1600.250,1132.250 1576.000,1108.000 1576.000,1078.086 L1576.000,1078.039 C1576.000,1048.125 1600.250,1023.875 1630.164,1023.875 Z" class="cls-43"/>
    <path d="M2012.501,608.759 C1913.867,591.515 1819.928,657.492 1802.684,756.123 L1775.408,912.130 C1758.164,1010.760 1824.144,1104.695 1922.778,1121.939 C2021.413,1139.182 2115.351,1073.205 2132.595,974.574 L2159.871,818.568 C2177.115,719.937 2111.136,626.002 2012.501,608.759 Z" class="cls-43"/>
    <path d="M2061.519,613.667 C1982.772,597.115 1893.523,663.361 1877.140,772.882 L1851.144,946.953 C1834.159,1060.891 1904.654,1141.024 1992.903,1127.457 C2076.833,1114.557 2141.819,1027.304 2152.472,938.958 L2169.557,797.472 C2180.125,710.082 2134.694,629.050 2061.519,613.667 Z" class="cls-44"/>
    <path d="M2012.089,935.782 C1995.060,932.943 1978.954,944.445 1976.114,961.473 L1944.578,1150.576 C1941.738,1167.604 1953.240,1183.710 1970.269,1186.550 C1987.298,1189.389 2003.404,1177.887 2006.244,1160.859 L2037.780,971.756 C2040.620,954.728 2029.118,938.622 2012.089,935.782 Z" class="cls-43"/>
    <rect x="1576" y="894.688" width="279.22" height="45.843" rx="22.916" ry="22.916" class="cls-42"/>
    <rect x="1942.75" y="894.688" width="279.25" height="45.843" rx="22.916" ry="22.916" class="cls-45"/>
    <ellipse cx="2013.61" cy="973.859" rx="29.17" ry="29.171" class="cls-45"/>
    <circle cx="2035" cy="974" r="15" class="cls-42"/>
  </g>
  <g class="bounceInDown delay-1">
    <path d="M707.000,229.000 L804.000,237.000 L799.000,103.000 L707.000,229.000 Z" class="cls-15"/>
    <path d="M705.000,230.000 L689.000,212.000 L691.000,103.000 L800.000,103.000 L800.000,230.000 L705.000,230.000 ZM697.500,109.000 C696.672,109.000 696.000,109.672 696.000,110.500 C696.000,111.328 696.672,112.000 697.500,112.000 C698.328,112.000 699.000,111.328 699.000,110.500 C699.000,109.672 698.328,109.000 697.500,109.000 ZM707.500,109.000 C706.671,109.000 706.000,109.672 706.000,110.500 C706.000,111.328 706.671,112.000 707.500,112.000 C708.328,112.000 709.000,111.328 709.000,110.500 C709.000,109.672 708.328,109.000 707.500,109.000 ZM717.500,109.000 C716.672,109.000 716.000,109.672 716.000,110.500 C716.000,111.328 716.672,112.000 717.500,112.000 C718.328,112.000 719.000,111.328 719.000,110.500 C719.000,109.672 718.328,109.000 717.500,109.000 ZM727.500,109.000 C726.671,109.000 726.000,109.672 726.000,110.500 C726.000,111.328 726.671,112.000 727.500,112.000 C728.328,112.000 729.000,111.328 729.000,110.500 C729.000,109.672 728.328,109.000 727.500,109.000 ZM737.500,109.000 C736.672,109.000 736.000,109.672 736.000,110.500 C736.000,111.328 736.672,112.000 737.500,112.000 C738.328,112.000 739.000,111.328 739.000,110.500 C739.000,109.672 738.328,109.000 737.500,109.000 ZM747.500,109.000 C746.671,109.000 746.000,109.672 746.000,110.500 C746.000,111.328 746.671,112.000 747.500,112.000 C748.328,112.000 749.000,111.328 749.000,110.500 C749.000,109.672 748.328,109.000 747.500,109.000 ZM777.500,109.000 C776.671,109.000 776.000,109.672 776.000,110.500 C776.000,111.328 776.671,112.000 777.500,112.000 C778.328,112.000 779.000,111.328 779.000,110.500 C779.000,109.672 778.328,109.000 777.500,109.000 ZM787.500,109.000 C786.672,109.000 786.000,109.672 786.000,110.500 C786.000,111.328 786.672,112.000 787.500,112.000 C788.328,112.000 789.000,111.328 789.000,110.500 C789.000,109.672 788.328,109.000 787.500,109.000 ZM797.500,109.000 C796.671,109.000 796.000,109.672 796.000,110.500 C796.000,111.328 796.671,112.000 797.500,112.000 C798.328,112.000 799.000,111.328 799.000,110.500 C799.000,109.672 798.328,109.000 797.500,109.000 Z" class="cls-16"/>
  </g>
  <g class="bounceInDown delay-6">
    <path d="M379.248,606.221 L645.466,610.888 L642.981,224.891 L379.248,606.221 Z" class="cls-56"/>
    <path d="M379.769,223.220 L380.249,606.220 L642.457,605.892 L641.977,222.892 L379.769,223.220 Z" class="cls-12"/>
    <path d="M412.943,341.179 L436.999,370.149 L562.986,279.991 L575.014,294.976 L588.977,255.958 L545.950,262.012 L552.967,271.004 L412.943,341.179 Z" class="cls-57"/>
    <path d="M428.009,390.160 L462.244,390.160 L462.244,553.117 L428.009,553.117 L428.009,390.160 Z" class="cls-58"/>
    <path d="M468.015,370.110 L502.275,370.110 L502.275,553.067 L468.015,553.067 L468.015,370.110 Z" class="cls-58"/>
    <path d="M510.022,351.057 L544.306,351.057 L544.306,553.015 L510.022,553.015 L510.022,351.057 Z" class="cls-59"/>
    <path d="M549.006,313.009 L583.338,313.009 L583.338,552.966 L549.006,552.966 L549.006,313.009 Z" class="cls-60"/>
    <path d="M409.205,547.184 L604.380,547.184 L604.380,561.940 L409.205,561.940 L409.205,547.184 Z" class="cls-61"/>
    <circle cx="612.86" cy="553.422" r="11.515" class="cls-62"/>
    <path d="M636.331,508.869 C636.331,508.869 729.775,511.132 732.440,510.748 C735.105,510.364 729.244,380.783 729.244,380.783 L636.331,508.869 Z" class="cls-56"/>
    <path d="M634.328,507.902 L618.293,489.922 L620.158,380.920 L729.244,380.783 L729.403,507.783 L634.328,507.902 ZM626.663,386.913 C625.833,386.913 625.161,387.584 625.161,388.411 C625.161,389.239 625.833,389.910 626.663,389.910 C627.492,389.910 628.165,389.239 628.165,388.411 C628.165,387.584 627.492,386.913 626.663,386.913 ZM636.694,386.901 C635.865,386.901 635.192,387.572 635.192,388.399 C635.192,389.226 635.865,389.897 636.694,389.897 C637.524,389.897 638.196,389.226 638.196,388.399 C638.196,387.572 637.524,386.901 636.694,386.901 ZM646.694,386.888 C645.865,386.888 645.192,387.559 645.192,388.386 C645.192,389.214 645.865,389.885 646.694,389.885 C647.524,389.885 648.196,389.214 648.196,388.386 C648.196,387.559 647.524,386.888 646.694,386.888 ZM656.694,386.876 C655.865,386.876 655.192,387.546 655.192,388.374 C655.192,389.201 655.865,389.872 656.694,389.872 C657.524,389.872 658.196,389.201 658.196,388.374 C658.196,387.546 657.524,386.876 656.694,386.876 ZM666.694,386.863 C665.865,386.863 665.192,387.534 665.192,388.361 C665.192,389.189 665.865,389.859 666.694,389.859 C667.524,389.859 668.196,389.189 668.196,388.361 C668.196,387.534 667.524,386.863 666.694,386.863 ZM676.725,386.851 C675.896,386.851 675.224,387.521 675.224,388.349 C675.224,389.176 675.896,389.847 676.725,389.847 C677.555,389.847 678.227,389.176 678.227,388.349 C678.227,387.521 677.555,386.851 676.725,386.851 ZM706.725,386.813 C705.896,386.813 705.224,387.484 705.224,388.311 C705.224,389.139 705.896,389.809 706.725,389.809 C707.555,389.809 708.227,389.139 708.227,388.311 C708.227,387.484 707.555,386.813 706.725,386.813 ZM716.757,386.800 C715.927,386.800 715.255,387.471 715.255,388.299 C715.255,389.126 715.927,389.797 716.757,389.797 C717.586,389.797 718.259,389.126 718.259,388.299 C718.259,387.471 717.586,386.800 716.757,386.800 ZM726.757,386.788 C725.927,386.788 725.255,387.459 725.255,388.286 C725.255,389.114 725.927,389.784 726.757,389.784 C727.586,389.784 728.259,389.114 728.259,388.286 C728.259,387.459 727.586,386.788 726.757,386.788 Z" class="cls-16"/>
    <path d="M640.219,411.394 L640.203,410.395 L709.257,409.308 L709.273,410.308 L640.219,411.394 Z" class="cls-37"/>
    <path d="M640.232,421.894 L640.216,420.895 L709.270,419.808 L709.286,420.808 L640.232,421.894 Z" class="cls-37"/>
    <path d="M640.270,451.894 L640.254,450.895 L709.307,449.808 L709.323,450.808 L640.270,451.894 Z" class="cls-37"/>
    <path d="M640.281,460.894 L640.265,459.894 L709.319,458.808 L709.335,459.808 L640.281,460.894 Z" class="cls-37"/>
    <path d="M640.294,470.894 L640.278,469.894 L709.331,468.808 L709.347,469.808 L640.294,470.894 Z" class="cls-37"/>
    <path d="M682.211,383.842 L671.226,402.856 L691.227,390.831 L682.211,383.842 Z" class="cls-63"/>
    <path d="M678.205,381.847 L692.234,395.829 C692.234,395.829 700.658,389.746 700.224,382.819 L711.221,373.806 L702.204,365.817 L694.208,373.827 C694.208,373.827 683.320,372.450 678.205,381.847 Z" class="cls-64"/>
    <path d="M506.870,223.061 L495.885,242.075 L515.886,230.050 L506.870,223.061 Z" class="cls-63"/>
    <path d="M502.864,221.066 L516.893,235.049 C516.893,235.049 525.318,228.965 524.883,222.039 L535.881,213.025 L526.863,205.036 L518.867,213.046 C518.867,213.046 507.979,211.670 502.864,221.066 Z" class="cls-64"/>
    <path d="M640.250,435.894 L640.234,434.895 L709.287,433.808 L709.303,434.808 L640.250,435.894 Z" class="cls-37"/>
  </g>
</svg>
